<mxfile host="app.diagrams.net" modified="2022-12-04T11:24:57.216Z" agent="5.0 (Windows NT 10.0; Win64; x64) AppleWebKit/537.36 (KHTML, like Gecko) Chrome/107.0.0.0 Safari/537.36" version="20.6.0" etag="mMtZ4dbHJBVPeZyo6UQh" type="github">
  <diagram id="MI3uOKtLTzQ_6PEWRjSz" name="第 1 页">
    <mxGraphModel dx="1422" dy="706" grid="1" gridSize="10" guides="1" tooltips="1" connect="1" arrows="1" fold="1" page="1" pageScale="1" pageWidth="827" pageHeight="1169" math="0" shadow="0">
      <root>
        <mxCell id="0" />
        <mxCell id="1" parent="0" />
        <mxCell id="cNHgtWn2ZiXuFl-ffkAe-1" value="商品" style="swimlane;fontStyle=0;childLayout=stackLayout;horizontal=1;startSize=26;fillColor=none;horizontalStack=0;resizeParent=1;resizeParentMax=0;resizeLast=0;collapsible=1;marginBottom=0;" vertex="1" parent="1">
          <mxGeometry x="100" y="70" width="140" height="78" as="geometry" />
        </mxCell>
        <mxCell id="cNHgtWn2ZiXuFl-ffkAe-2" value="+ 商品名称: String" style="text;strokeColor=none;fillColor=none;align=left;verticalAlign=top;spacingLeft=4;spacingRight=4;overflow=hidden;rotatable=0;points=[[0,0.5],[1,0.5]];portConstraint=eastwest;" vertex="1" parent="cNHgtWn2ZiXuFl-ffkAe-1">
          <mxGeometry y="26" width="140" height="26" as="geometry" />
        </mxCell>
        <mxCell id="cNHgtWn2ZiXuFl-ffkAe-3" value="+ 商品id: type" style="text;strokeColor=none;fillColor=none;align=left;verticalAlign=top;spacingLeft=4;spacingRight=4;overflow=hidden;rotatable=0;points=[[0,0.5],[1,0.5]];portConstraint=eastwest;" vertex="1" parent="cNHgtWn2ZiXuFl-ffkAe-1">
          <mxGeometry y="52" width="140" height="26" as="geometry" />
        </mxCell>
        <mxCell id="cNHgtWn2ZiXuFl-ffkAe-5" value="用户浏览行为" style="swimlane;fontStyle=0;childLayout=stackLayout;horizontal=1;startSize=26;fillColor=none;horizontalStack=0;resizeParent=1;resizeParentMax=0;resizeLast=0;collapsible=1;marginBottom=0;" vertex="1" parent="1">
          <mxGeometry x="380" y="70" width="140" height="104" as="geometry">
            <mxRectangle x="380" y="70" width="110" height="30" as="alternateBounds" />
          </mxGeometry>
        </mxCell>
        <mxCell id="cNHgtWn2ZiXuFl-ffkAe-6" value="+ 用户id: String" style="text;strokeColor=none;fillColor=none;align=left;verticalAlign=top;spacingLeft=4;spacingRight=4;overflow=hidden;rotatable=0;points=[[0,0.5],[1,0.5]];portConstraint=eastwest;" vertex="1" parent="cNHgtWn2ZiXuFl-ffkAe-5">
          <mxGeometry y="26" width="140" height="26" as="geometry" />
        </mxCell>
        <object label="+ 商品id: type" id="cNHgtWn2ZiXuFl-ffkAe-7">
          <mxCell style="text;strokeColor=none;fillColor=none;align=left;verticalAlign=top;spacingLeft=4;spacingRight=4;overflow=hidden;rotatable=0;points=[[0,0.5],[1,0.5]];portConstraint=eastwest;" vertex="1" parent="cNHgtWn2ZiXuFl-ffkAe-5">
            <mxGeometry y="52" width="140" height="26" as="geometry" />
          </mxCell>
        </object>
        <mxCell id="cNHgtWn2ZiXuFl-ffkAe-15" value="+ 分数: float" style="text;strokeColor=none;fillColor=none;align=left;verticalAlign=top;spacingLeft=4;spacingRight=4;overflow=hidden;rotatable=0;points=[[0,0.5],[1,0.5]];portConstraint=eastwest;" vertex="1" parent="cNHgtWn2ZiXuFl-ffkAe-5">
          <mxGeometry y="78" width="140" height="26" as="geometry" />
        </mxCell>
        <mxCell id="cNHgtWn2ZiXuFl-ffkAe-9" value="用户画像" style="swimlane;fontStyle=0;childLayout=stackLayout;horizontal=1;startSize=26;fillColor=none;horizontalStack=0;resizeParent=1;resizeParentMax=0;resizeLast=0;collapsible=1;marginBottom=0;" vertex="1" parent="1">
          <mxGeometry x="640" y="70" width="140" height="52" as="geometry" />
        </mxCell>
        <mxCell id="cNHgtWn2ZiXuFl-ffkAe-10" value="+ 用户id: type" style="text;strokeColor=none;fillColor=none;align=left;verticalAlign=top;spacingLeft=4;spacingRight=4;overflow=hidden;rotatable=0;points=[[0,0.5],[1,0.5]];portConstraint=eastwest;" vertex="1" parent="cNHgtWn2ZiXuFl-ffkAe-9">
          <mxGeometry y="26" width="140" height="26" as="geometry" />
        </mxCell>
        <mxCell id="cNHgtWn2ZiXuFl-ffkAe-16" style="edgeStyle=orthogonalEdgeStyle;rounded=0;orthogonalLoop=1;jettySize=auto;html=1;exitX=1;exitY=0.5;exitDx=0;exitDy=0;" edge="1" parent="1" source="cNHgtWn2ZiXuFl-ffkAe-3" target="cNHgtWn2ZiXuFl-ffkAe-7">
          <mxGeometry relative="1" as="geometry" />
        </mxCell>
        <mxCell id="cNHgtWn2ZiXuFl-ffkAe-17" style="edgeStyle=orthogonalEdgeStyle;rounded=0;orthogonalLoop=1;jettySize=auto;html=1;exitX=0;exitY=0.5;exitDx=0;exitDy=0;" edge="1" parent="1" source="cNHgtWn2ZiXuFl-ffkAe-10" target="cNHgtWn2ZiXuFl-ffkAe-6">
          <mxGeometry relative="1" as="geometry" />
        </mxCell>
        <mxCell id="cNHgtWn2ZiXuFl-ffkAe-18" value="" style="shape=image;verticalLabelPosition=bottom;verticalAlign=top;imageAspect=0;aspect=fixed;image=data:image/png,iVBORw0KGgoAAAANSUhEUgAAAHUAAABBCAYAAADv7+sHAAAMaElEQVR42u1deYxkRRmf7hkVNeLFujjT/V69o7tXB4m60XhFRkVEUFBgFUGDURSPqIlHonjHK2oEFYIQ3YXgEcU7KIkHh8YIHusJHngb/UdhdMDdnVlmZ/x+Pd8v81F5M7UzvdPds6lKKm/6vap69er33V+9NyOxxBJLLLHEEsvASm0klsOijE5NTY3Jsc7f27dvv0f3dyybjyunRkbGVmswNSJgx7L5xGyZpo/O0+ziInU3Fs79So7XFmn61rIst2iTCOxmAjRP3QWlyxZbWb6II2pLalt+y7X/CcjPj8BuEh26xKFuVzsvFos0u0u4cx8Blb9R95bpEti5cy+IoniIC3UoOLCdAVA3KxXg4e/fC8DfleNt+ntOAZ5N0/Sh6BeNpyEWvQLUz0pwZZLetXR0r2WD8fHx+8jvzyuwe7uiOHHvx7WuVRzL8BRyWdlsFgLWAYhdACdieCevq2tDfftn6llp+5Poxw6zLnXuOAAF8doFtZmdgvMEdHJy8p4qoi9TbkX9h3PuiAjskIIq7soTCKo1hMSFuRcAI3jCwZ81oP6VYHug8vcYRDMqiCPq3j6LXwHtaAFpj9QFARf68nt+w3JiogGXBm3UIr7OEgZLIHgxFrm6r9zqvqlcuE+PX247t6093j5KOPmpReJuVW7eCys5T9NXUUTbscjhEOFCHO8oE/eBwrnzikZR3q1dLBsLKqNIChrFMP++A+cJKF0dA0zNcj1EN/Qt2rFyLCGMK2BJR2D7UBhEKNPsXEaSwLEQtVK7bs4y0NmdrTR9GIGxR7n2NgQvTP/9Uuf173lck+NvhJOPjD5uHzk2T/JnwQgynDpvOPU6J4W60x5FHJ+MPrm0B5js73H9Ho1YfSOC2t/oEkqtTJIXgsMUzFuKJNle1Q5VLeNf0ILGEaIWHF0URbNw7sVyfsZa2NDTITFsfWVIkwGL7Brm0a3G4MOR51CHEli4IPRNhaP+3QYAifuauVav0MePAmDkUESf/HEFxKdYUAXoS2loDXOCPkB4m0TSMBZcFA8RUXq7is5r1PU5ggutgFD0noV25FIB+fEmaFEnoch4N6koB6jfDyxMjQQjbc8sk2xHniRPGwigtOiT7EUyl4/BUyidm8L5PM8TzE/W4HQh3OcaQ7A2VAaTPsQWmfx/NBjxbV9MW1CLJHuZgrofgOWN/BF2QQhqKeO0FFQAvNrDs49w/eWdolxUI+t37NNPQLMs68i9/9ZWI3Jb0cKavALXADTmRwPTSRk8F/u6MUkmZSEvRZxXrV9mZ3YL15wvlHl/Agvq9dwhWshvJDCMOjUajQfBPcKYS/Hl7Eur5WVJMDLWRUz/lYn7Eefb72SHAEqLXueS7VBQn8dnh8sHzh0GUGtG773HJsgV1ANS8ZuJ8tsZG17ul72Xrg9TcyKOTjJcfyS41GZ5hLtfTvBWARUG2CXL88l+6s2Zi0cjaqVwZM0aWyBIHb/mj+G7aTAQdS1m1V64HAS6devW+6rqOR3ndZ3mhKtTD9Qax2Wtmh/nxDb4247hzS8MKuO6IuII5JxWC+4szhF0eZiXdI0f4Wi6LKTYMl0WsXBfKMYxhrb5p00G9ADqaIhQFcigYej354JCj6v06RIsbA22CYMalighkKqJPtwBuu5dAFSBmwcoBAEWsEmaL/DhaPAQZI0d/4m61RIAd06wPRbKit61gkrxz7i1iMBnw0WS5zg1b+aP4aISGIQ6c+deKW2uhNFXOHeVqIzXc89V0WweAz9bzp+I5AbOHSuciL9lzHfj3nx2aXMO2hE8ufcZPqi+3SHjPDNLsqfjKOM9g2AbgqtjHJECnwATwNtAvpq2iYy5FfMrs+wEkZIniKS490oMUVfrrY1F56T1AWZgCLQbjQnoUMSAYfXpNT7AAgMT2B2BcaBjZbGuxkP6e5x0V8U0Hso+9HpA5TXMjYESEo8swGMtByDZj0SEPycSrRDYk2SxPwxjR/XmH3UhUxIvVRArGECe86XcMWJBNTp1VDn5i4yydcA4SfYam86EFY17+vPj3yA+qDL05TXkv4lh5aIBLE80/lcm1qpaaIhcPiT0J/oJRb2zot3J8FVlsX6NOLHUG2Tyb3HOPSAMaBhUUikMmJbrzn0elQGSkgZc4i5UCbTIQIq/eAB8SU04/v65SgCH3xifoLINCAAWv67fmT6nGhvlorZKMbQBoJyfrtNp9AZohHF+PE/3T6XfAeDUSdPMA9UHwP3WWK6gjHNxXlm8TkVPypJ2X7HZHGRhOFHqopX0WwDQIKgAkdchRq0bBfHGrTd0NYxKWQA4XfCc+6AadtcQpFKOlFKIjFEKwP/G/a3RmDv3ZmSdxEt4uN5nhwW1aDRK9QjObxvDEGLcAgpuM97FrI7xF1j7UIdy708XTKaken+dpwW1Mo8KSiUVIljvGQL+ItMwsBO5vuIGXsiMAQiOuW5Qd+u5nW0zByysXTDcC34l+lBFkFhtgc7Epjpa7uRUik9rKHG7z6RYvuzvG0qoICq4OSR8zBMca998UKL8HL0BG2GzBVjI9R9y79hBgdpOkhyNmBzHQnBhLACeif9EtCWHBHzHmqks6wKVyXuZ79uxUBT/dI2UaEYp/q00QV6XY6Kd9Z9hYPF5CCrHI2gWVKomrpO5jjqN+dBGWdK92WfMmo/ScAMX+hsOULhThPPrdDr3k+v/IreumVPxd4hTsyQ5I8SpUxvAqUzh0VCjEcG2FgiIV8M9M0mSPNCfo20PnYXxCKrnGZzKseyCctENqPNG71EXXuWt+SgJyao8Go++e0XCgeimW1VKDepU5Detcy2dQjr1q2vUqfVedaq355gLiJDcNrb1+uwyIvtGOw8fVG1/AduHQIV0qwKV4pFrSSli1sbMLz3bEN0+eBlVcyQRwGXzCStk/X60fSitX+ZknfuCtLtZqPIP4IRerV8aSgDJWIW32qjLekHFe0MWVG99nhMA1Yrf20D0XCN1sY71pBcTIGyzt9Nsjq/GAEgUUBqsCipPAEBygO+nlhNlA0AgLyoDfzzkpyJKxL1OXCRWJZxpOO7r91PdDXggzpV7lDkeQaK4ColfzgEGGMbvEdSFrnoYL5pmPCYh6l5iY2oN4hdE95Gg+PUXDty2QkRpDtR3sBElJAHYb2MiSu6XKr5eTXdBQ5ZnU2UoECdaFQEXgSD6hkiZZae0aCj1ACqt320TEw8Ggdv8soDyKdsHbSARu+uqxFplKBkL+A7DeGGdSuMFVtp6Yr/wrfzYL44UfRr7nT7EsV/M92rrH6Z3f9BRRJqsS1Mk7jw7vonmzNCl6RVU+qkqMt/gEd5ZJDyut3VppP0nfZAglsH1IZcmnKVJD02WBtyygVkapvKmpVaGEP3gA8ZAG0SZlgIQ6Xe0rzr3Wc+g+hElPjOvMde6YvDBub9LvQxxX0TkIP1CwYeDzqdiIRGPtPlULAiiJACob/lUa8RgHs79mAvqWYV7lNo/xOsM04XChOiLcY2k2e1bvxTPeL4Kl+Y0c30fY78MxMsc7jQhyJssGAxSrBgmXCbYH2B8StFqUMM7H+ggc+fDtwa18wH6CMFsHf8W9rGWKwPmOCIWyzlSDFLEoTLBsKwO3HEgBu5egGHjBx/aXjCdoDKgb4Pt5EY/OAGAcA9Gjti/JeFNqIqK+RHQN4UD+uEyRiob9B4lbiVBugnGFdNqvM57yLXjoR+RmjJZmjoqnwWpNyS45b5fz0WfIXvD1Buse96D/Tl+eXS5BQsP+wGVOpFjYwxexxywRv4c5fzjxM07Hm1wtH41CRChThAoXCJkdmDBix19DO+B+VXMobZhuwlbzj0ysJvQe7MObXrYTRi47hNe6Hl7vX9vbcKu3SHb94uox1r2/ebevl9wBThAd9udAxOe0Za17vsNbOWo4XxgO0t9he0s9dA9wltJwltN1rGdZczEsoP3CO+cE+MDgf0Vduhfv8oO/ZNsDNT03+/v0EciPe7Q79PWUBo89l2apVzj8rs0CPpXv0vDHGLwXZqbkXmIoA72rbcZ7603xlwr33qD9YngQtVbb4jJQsnHt94G+H4qLE+EtGBx+e+nloH3U+FDIvcp9X3x/dRBv0nOWKRXkB6Kb5LHbz7Ebz4MEtRWlj05fp3l8P+O0q74HaVNXAiKTfHoJq/XxS+eHcbfJjQx4DlmPOK3CTeJbhXwdnYO4iuiIID4FdHN9AHn+L3f+GXuWOI39GOJ/+0ilvh/aWKJJZZYYoklllh6KP8HTHLih8tllvUAAAAASUVORK5CYII=" vertex="1" parent="1">
          <mxGeometry x="230" y="360" width="90" height="50" as="geometry" />
        </mxCell>
        <mxCell id="cNHgtWn2ZiXuFl-ffkAe-20" style="edgeStyle=orthogonalEdgeStyle;rounded=0;orthogonalLoop=1;jettySize=auto;html=1;" edge="1" parent="1" source="cNHgtWn2ZiXuFl-ffkAe-19" target="cNHgtWn2ZiXuFl-ffkAe-18">
          <mxGeometry relative="1" as="geometry" />
        </mxCell>
        <mxCell id="cNHgtWn2ZiXuFl-ffkAe-19" value="日志服务器" style="aspect=fixed;perimeter=ellipsePerimeter;html=1;align=center;shadow=0;dashed=0;spacingTop=3;image;image=img/lib/active_directory/web_server.svg;" vertex="1" parent="1">
          <mxGeometry x="90" y="360" width="40" height="50" as="geometry" />
        </mxCell>
        <mxCell id="cNHgtWn2ZiXuFl-ffkAe-21" style="edgeStyle=orthogonalEdgeStyle;rounded=0;orthogonalLoop=1;jettySize=auto;html=1;" edge="1" parent="1">
          <mxGeometry relative="1" as="geometry">
            <mxPoint x="314" y="384.5" as="sourcePoint" />
            <mxPoint x="414" y="384.5" as="targetPoint" />
          </mxGeometry>
        </mxCell>
        <mxCell id="cNHgtWn2ZiXuFl-ffkAe-22" style="edgeStyle=orthogonalEdgeStyle;rounded=0;orthogonalLoop=1;jettySize=auto;html=1;" edge="1" parent="1">
          <mxGeometry relative="1" as="geometry">
            <mxPoint x="314" y="384.5" as="sourcePoint" />
            <mxPoint x="414" y="384.5" as="targetPoint" />
          </mxGeometry>
        </mxCell>
        <mxCell id="cNHgtWn2ZiXuFl-ffkAe-23" style="edgeStyle=orthogonalEdgeStyle;rounded=0;orthogonalLoop=1;jettySize=auto;html=1;" edge="1" parent="1">
          <mxGeometry relative="1" as="geometry">
            <mxPoint x="314" y="384.5" as="sourcePoint" />
            <mxPoint x="414" y="384.5" as="targetPoint" />
          </mxGeometry>
        </mxCell>
        <mxCell id="cNHgtWn2ZiXuFl-ffkAe-30" value="实时数据写入" style="edgeStyle=orthogonalEdgeStyle;rounded=0;orthogonalLoop=1;jettySize=auto;html=1;exitX=0;exitY=1;exitDx=0;exitDy=0;" edge="1" parent="1" source="cNHgtWn2ZiXuFl-ffkAe-24">
          <mxGeometry relative="1" as="geometry">
            <mxPoint x="420.4000000000001" y="573" as="targetPoint" />
          </mxGeometry>
        </mxCell>
        <mxCell id="cNHgtWn2ZiXuFl-ffkAe-24" value="" style="shape=image;verticalLabelPosition=bottom;verticalAlign=top;imageAspect=0;aspect=fixed;image=data:image/svg+xml,PHN2ZyB4bWxuczp4bGluaz0iaHR0cDovL3d3dy53My5vcmcvMTk5OS94bGluayIgeG1sbnM9Imh0dHA6Ly93d3cudzMub3JnLzIwMDAvc3ZnIiB2aWV3Qm94PSIzNiAxMjcgNDI3IDIyMCI+JiN4YTsgIDxkZWZzPiYjeGE7ICAgIDxsaW5lYXJHcmFkaWVudCBncmFkaWVudFRyYW5zZm9ybT0ibWF0cml4KC0xIDAgMCAxIDQ0MDc2LjM1NTUgMCkiIHkyPSItNjMuMTc5NCIgeDI9IjQ0MTI1LjgwODYiIHkxPSI2OS42Njg5IiB4MT0iNDQwOTcuMzM5OCIgZ3JhZGllbnRVbml0cz0idXNlclNwYWNlT25Vc2UiIGlkPSJTVkdJRF8yMF8iPiYjeGE7ICAgICAgPHN0b3Agc3R5bGU9InN0b3AtY29sb3I6I0ZBQTEwMCIgb2Zmc2V0PSIwLjM4MzYiLz4mI3hhOyAgICAgIDxzdG9wIHN0eWxlPSJzdG9wLWNvbG9yOiNCRjczRjIiIG9mZnNldD0iMC42NTg0Ii8+JiN4YTsgICAgICA8c3RvcCBzdHlsZT0ic3RvcC1jb2xvcjojQzM3MEU2IiBvZmZzZXQ9IjAuNjY0OSIvPiYjeGE7ICAgICAgPHN0b3Agc3R5bGU9InN0b3AtY29sb3I6I0NDNjhDNyIgb2Zmc2V0PSIwLjY4NTIiLz4mI3hhOyAgICAgIDxzdG9wIHN0eWxlPSJzdG9wLWNvbG9yOiNENDYxQUIiIG9mZnNldD0iMC43MDgxIi8+JiN4YTsgICAgICA8c3RvcCBzdHlsZT0ic3RvcC1jb2xvcjojREI1Qjk1IiBvZmZzZXQ9IjAuNzM0MSIvPiYjeGE7ICAgICAgPHN0b3Agc3R5bGU9InN0b3AtY29sb3I6I0UwNTc4NCIgb2Zmc2V0PSIwLjc2NDMiLz4mI3hhOyAgICAgIDxzdG9wIHN0eWxlPSJzdG9wLWNvbG9yOiNFMzU0NzkiIG9mZnNldD0iMC44MDE3Ii8+JiN4YTsgICAgICA8c3RvcCBzdHlsZT0ic3RvcC1jb2xvcjojRTU1MjcyIiBvZmZzZXQ9IjAuODU0MyIvPiYjeGE7ICAgICAgPHN0b3Agc3R5bGU9InN0b3AtY29sb3I6I0U2NTI3MCIgb2Zmc2V0PSIxIi8+JiN4YTsgICAgPC9saW5lYXJHcmFkaWVudD4mI3hhOyAgICA8bGluZWFyR3JhZGllbnQgZ3JhZGllbnRUcmFuc2Zvcm09Im1hdHJpeCgtMSAwIDAgMSA0NDA3Ni4zNTU1IDApIiB5Mj0iLTcwLjA2NjUiIHgyPSI0NDExMS41OTM4IiB5MT0iNzEuNDQyNCIgeDE9IjQ0MDgxLjI2OTUiIGdyYWRpZW50VW5pdHM9InVzZXJTcGFjZU9uVXNlIiBpZD0iU1ZHSURfMjFfIj4mI3hhOyAgICAgIDxzdG9wIHN0eWxlPSJzdG9wLWNvbG9yOiNGQUExMDAiIG9mZnNldD0iMC4zODM2Ii8+JiN4YTsgICAgICA8c3RvcCBzdHlsZT0ic3RvcC1jb2xvcjojQkY3M0YyIiBvZmZzZXQ9IjAuNjU4NCIvPiYjeGE7ICAgICAgPHN0b3Agc3R5bGU9InN0b3AtY29sb3I6I0MzNzBFNiIgb2Zmc2V0PSIwLjY2NDkiLz4mI3hhOyAgICAgIDxzdG9wIHN0eWxlPSJzdG9wLWNvbG9yOiNDQzY4QzciIG9mZnNldD0iMC42ODUyIi8+JiN4YTsgICAgICA8c3RvcCBzdHlsZT0ic3RvcC1jb2xvcjojRDQ2MUFCIiBvZmZzZXQ9IjAuNzA4MSIvPiYjeGE7ICAgICAgPHN0b3Agc3R5bGU9InN0b3AtY29sb3I6I0RCNUI5NSIgb2Zmc2V0PSIwLjczNDEiLz4mI3hhOyAgICAgIDxzdG9wIHN0eWxlPSJzdG9wLWNvbG9yOiNFMDU3ODQiIG9mZnNldD0iMC43NjQzIi8+JiN4YTsgICAgICA8c3RvcCBzdHlsZT0ic3RvcC1jb2xvcjojRTM1NDc5IiBvZmZzZXQ9IjAuODAxNyIvPiYjeGE7ICAgICAgPHN0b3Agc3R5bGU9InN0b3AtY29sb3I6I0U1NTI3MiIgb2Zmc2V0PSIwLjg1NDMiLz4mI3hhOyAgICAgIDxzdG9wIHN0eWxlPSJzdG9wLWNvbG9yOiNFNjUyNzAiIG9mZnNldD0iMSIvPiYjeGE7ICAgIDwvbGluZWFyR3JhZGllbnQ+JiN4YTsgICAgPGxpbmVhckdyYWRpZW50IGdyYWRpZW50VHJhbnNmb3JtPSJtYXRyaXgoLTEgMCAwIDEgNDQwNzYuMzU1NSAwKSIgeTI9Ii0yMS40ODM3IiB4Mj0iNDQwNzguMTAxNiIgeTE9IjYyLjQ2MzkiIHgxPSI0NDA3Ni4yOTY5IiBncmFkaWVudFVuaXRzPSJ1c2VyU3BhY2VPblVzZSIgaWQ9IlNWR0lEXzIyXyI+JiN4YTsgICAgICA8c3RvcCBzdHlsZT0ic3RvcC1jb2xvcjojRkFBN0I1IiBvZmZzZXQ9IjAiLz4mI3hhOyAgICAgIDxzdG9wIHN0eWxlPSJzdG9wLWNvbG9yOiNGQUExMDAiIG9mZnNldD0iMC4zODM2Ii8+JiN4YTsgICAgICA8c3RvcCBzdHlsZT0ic3RvcC1jb2xvcjojQkY3M0YyIiBvZmZzZXQ9IjAuNzMxNyIvPiYjeGE7ICAgIDwvbGluZWFyR3JhZGllbnQ+JiN4YTsgICAgPGxpbmVhckdyYWRpZW50IGdyYWRpZW50VHJhbnNmb3JtPSJtYXRyaXgoLTEgMCAwIDEgNDQwNzYuMzU1NSAwKSIgeTI9IjE4LjkyNDMiIHgyPSI0NDA3OC40MjE5IiB5MT0iNTMuODM1OSIgeDE9IjQ0MDk4LjY4NzUiIGdyYWRpZW50VW5pdHM9InVzZXJTcGFjZU9uVXNlIiBpZD0iU1ZHSURfMjNfIj4mI3hhOyAgICAgIDxzdG9wIHN0eWxlPSJzdG9wLWNvbG9yOiNGNkU4QTAiIG9mZnNldD0iMCIvPiYjeGE7ICAgICAgPHN0b3Agc3R5bGU9InN0b3AtY29sb3I6I0U2NTI3MSIgb2Zmc2V0PSIxIi8+JiN4YTsgICAgPC9saW5lYXJHcmFkaWVudD4mI3hhOyAgICA8bGluZWFyR3JhZGllbnQgZ3JhZGllbnRUcmFuc2Zvcm09Im1hdHJpeCgtMSAwIDAgMSA0NDA3Ni4zNTU1IDApIiB5Mj0iMi43NTE1IiB4Mj0iNDQwNzcuNjQ4NCIgeTE9IjMyLjg1NzQiIHgxPSI0NDA5NS4xMjUiIGdyYWRpZW50VW5pdHM9InVzZXJTcGFjZU9uVXNlIiBpZD0iU1ZHSURfMjRfIj4mI3hhOyAgICAgIDxzdG9wIHN0eWxlPSJzdG9wLWNvbG9yOiNGNkU4QTAiIG9mZnNldD0iMCIvPiYjeGE7ICAgICAgPHN0b3Agc3R5bGU9InN0b3AtY29sb3I6I0U2NTI3MSIgb2Zmc2V0PSIxIi8+JiN4YTsgICAgPC9saW5lYXJHcmFkaWVudD4mI3hhOyAgICA8bGluZWFyR3JhZGllbnQgZ3JhZGllbnRUcmFuc2Zvcm09Im1hdHJpeCgtMSAwIDAgMSA0NDA3Ni4zNTU1IDApIiB5Mj0iMTkuOTM1MyIgeDI9IjQ0MDU4LjA4OTgiIHkxPSI1NS4xMDY0IiB4MT0iNDQwNTYuMDc0MiIgZ3JhZGllbnRVbml0cz0idXNlclNwYWNlT25Vc2UiIGlkPSJTVkdJRF8yNV8iPiYjeGE7ICAgICAgPHN0b3Agc3R5bGU9InN0b3AtY29sb3I6I0Y2RThBMCIgb2Zmc2V0PSIwIi8+JiN4YTsgICAgICA8c3RvcCBzdHlsZT0ic3RvcC1jb2xvcjojRTY1MjcxIiBvZmZzZXQ9IjEiLz4mI3hhOyAgICA8L2xpbmVhckdyYWRpZW50PiYjeGE7ICAgIDxsaW5lYXJHcmFkaWVudCBncmFkaWVudFRyYW5zZm9ybT0ibWF0cml4KC0xIDAgMCAxIDQ0MDc2LjM1NTUgMCkiIHkyPSI3MS40NDkyIiB4Mj0iNDQwNjkuNTc4MSIgeTE9IjE5Ljk3ODUiIHgxPSI0NDA1Ny45NjA5IiBncmFkaWVudFVuaXRzPSJ1c2VyU3BhY2VPblVzZSIgaWQ9IlNWR0lEXzI2XyI+JiN4YTsgICAgICA8c3RvcCBzdHlsZT0ic3RvcC1jb2xvcjojRTY1MjcxIiBvZmZzZXQ9IjAiLz4mI3hhOyAgICAgIDxzdG9wIHN0eWxlPSJzdG9wLWNvbG9yOiNGQUExMDAiIG9mZnNldD0iMC4zODM2Ii8+JiN4YTsgICAgPC9saW5lYXJHcmFkaWVudD4mI3hhOyAgICA8bGluZWFyR3JhZGllbnQgZ3JhZGllbnRUcmFuc2Zvcm09Im1hdHJpeCgtMSAwIDAgMSA0NDA3Ni4zNTU1IDApIiB5Mj0iOS4xMDMiIHgyPSI0NDA1NS4yNjU2IiB5MT0iNDUuNzM4MyIgeDE9IjQ0MDk4LjI3MzQiIGdyYWRpZW50VW5pdHM9InVzZXJTcGFjZU9uVXNlIiBpZD0iU1ZHSURfMjdfIj4mI3hhOyAgICAgIDxzdG9wIHN0eWxlPSJzdG9wLWNvbG9yOiNGNkU4QTAiIG9mZnNldD0iMCIvPiYjeGE7ICAgICAgPHN0b3Agc3R5bGU9InN0b3AtY29sb3I6I0U2NTI3MSIgb2Zmc2V0PSIxIi8+JiN4YTsgICAgPC9saW5lYXJHcmFkaWVudD4mI3hhOyAgICA8bGluZWFyR3JhZGllbnQgZ3JhZGllbnRUcmFuc2Zvcm09Im1hdHJpeCgtMSAwIDAgMSA0NDA3Ni4zNTU1IDApIiB5Mj0iOC43NjYiIHgyPSI0NDEwMS4yNzM0IiB5MT0iMjAuMTMyOCIgeDE9IjQ0MDU5LjQ3NjYiIGdyYWRpZW50VW5pdHM9InVzZXJTcGFjZU9uVXNlIiBpZD0iU1ZHSURfMjhfIj4mI3hhOyAgICAgIDxzdG9wIHN0eWxlPSJzdG9wLWNvbG9yOiNGQUE3QjUiIG9mZnNldD0iMCIvPiYjeGE7ICAgICAgPHN0b3Agc3R5bGU9InN0b3AtY29sb3I6I0ZBQTEwMCIgb2Zmc2V0PSIwLjM4MzYiLz4mI3hhOyAgICAgIDxzdG9wIHN0eWxlPSJzdG9wLWNvbG9yOiNCRjczRjIiIG9mZnNldD0iMC43MzE3Ii8+JiN4YTsgICAgPC9saW5lYXJHcmFkaWVudD4mI3hhOyAgICA8bGluZWFyR3JhZGllbnQgZ3JhZGllbnRUcmFuc2Zvcm09Im1hdHJpeCgtMSAwIDAgMSA0NDA3Ni4zNTU1IDApIiB5Mj0iLTM2LjI3MiIgeDI9IjQ0MTQ0LjUzOTEiIHkxPSI2OC45ODYzIiB4MT0iNDM5NDguMjIyNyIgZ3JhZGllbnRVbml0cz0idXNlclNwYWNlT25Vc2UiIGlkPSJTVkdJRF8yOV8iPiYjeGE7ICAgICAgPHN0b3Agc3R5bGU9InN0b3AtY29sb3I6I0ZBQTdCNSIgb2Zmc2V0PSIwIi8+JiN4YTsgICAgICA8c3RvcCBzdHlsZT0ic3RvcC1jb2xvcjojRkFBMTAwIiBvZmZzZXQ9IjAuMzgzNiIvPiYjeGE7ICAgICAgPHN0b3Agc3R5bGU9InN0b3AtY29sb3I6I0JGNzNGMiIgb2Zmc2V0PSIwLjczMTciLz4mI3hhOyAgICA8L2xpbmVhckdyYWRpZW50PiYjeGE7ICAgIDxyYWRpYWxHcmFkaWVudCBncmFkaWVudFVuaXRzPSJ1c2VyU3BhY2VPblVzZSIgZ3JhZGllbnRUcmFuc2Zvcm09Im1hdHJpeCgtMC40NTc5IDAuMTM4NyAwLjI2NzUgMC44ODMgMzcwNjIuMTg3NSAtMjIzNjAuMzI4MSkiIHI9IjE0Ljg3NyIgY3k9IjExNTYwLjI5ODgiIGN4PSI4NzY1MS4yNSIgaWQ9IlNWR0lEXzMwXyI+JiN4YTsgICAgICA8c3RvcCBzdHlsZT0ic3RvcC1jb2xvcjojRkZGRkZGIiBvZmZzZXQ9IjAuMDA5MSIvPiYjeGE7ICAgICAgPHN0b3Agc3R5bGU9InN0b3AtY29sb3I6I0ZGRkZGRjtzdG9wLW9wYWNpdHk6MCIgb2Zmc2V0PSIxIi8+JiN4YTsgICAgPC9yYWRpYWxHcmFkaWVudD4mI3hhOyAgICA8cmFkaWFsR3JhZGllbnQgZ3JhZGllbnRVbml0cz0idXNlclNwYWNlT25Vc2UiIGdyYWRpZW50VHJhbnNmb3JtPSJtYXRyaXgoLTAuNDc4NSAwIDAgMC40Nzg1IDM3NDUzLjYyMTEgLTE2NTgzLjk0OTIpIiByPSIyMy4yNTU3IiBjeT0iMzQ2ODUuMTk5MiIgY3g9Ijc4MzEyLjEwOTQiIGlkPSJTVkdJRF8zMV8iPiYjeGE7ICAgICAgPHN0b3Agc3R5bGU9InN0b3AtY29sb3I6I0ZGRkZGRiIgb2Zmc2V0PSIwLjAwOTEiLz4mI3hhOyAgICAgIDxzdG9wIHN0eWxlPSJzdG9wLWNvbG9yOiNGRkZGRkY7c3RvcC1vcGFjaXR5OjAiIG9mZnNldD0iMSIvPiYjeGE7ICAgIDwvcmFkaWFsR3JhZGllbnQ+JiN4YTsgICAgPHJhZGlhbEdyYWRpZW50IGdyYWRpZW50VW5pdHM9InVzZXJTcGFjZU9uVXNlIiBncmFkaWVudFRyYW5zZm9ybT0ibWF0cml4KC0wLjQ3ODUgMCAwIDAuNDc4NSAzNzQ1My42MjExIC0xNjU4My45NDkyKSIgcj0iMjMuMjQ2IiBjeT0iMzQ2ODUuMTk1MyIgY3g9Ijc4MzEyLjEyNSIgaWQ9IlNWR0lEXzMyXyI+JiN4YTsgICAgICA8c3RvcCBzdHlsZT0ic3RvcC1jb2xvcjojRkZGRkZGIiBvZmZzZXQ9IjAuMDA5MSIvPiYjeGE7ICAgICAgPHN0b3Agc3R5bGU9InN0b3AtY29sb3I6I0ZGRkZGRjtzdG9wLW9wYWNpdHk6MCIgb2Zmc2V0PSIxIi8+JiN4YTsgICAgPC9yYWRpYWxHcmFkaWVudD4mI3hhOyAgICA8bGluZWFyR3JhZGllbnQgZ3JhZGllbnRUcmFuc2Zvcm09Im1hdHJpeCgtMSAwIDAgMSA0NDA3Ni4zNTU1IDApIiB5Mj0iLTQ2LjUxMjEiIHgyPSI0NDAzOS45MzM2IiB5MT0iLTIxLjY4ODUiIHgxPSI0NDAyOC45MjE5IiBncmFkaWVudFVuaXRzPSJ1c2VyU3BhY2VPblVzZSIgaWQ9IlNWR0lEXzMzXyI+JiN4YTsgICAgICA8c3RvcCBzdHlsZT0ic3RvcC1jb2xvcjojRkFBN0I1IiBvZmZzZXQ9IjAuMDA0MSIvPiYjeGE7ICAgICAgPHN0b3Agc3R5bGU9InN0b3AtY29sb3I6I0ZBQTEwMCIgb2Zmc2V0PSIwLjM4MzYiLz4mI3hhOyAgICA8L2xpbmVhckdyYWRpZW50PiYjeGE7ICAgIDxsaW5lYXJHcmFkaWVudCBncmFkaWVudFRyYW5zZm9ybT0ibWF0cml4KC0xIDAgMCAxIDQ0MDc2LjM1NTUgMCkiIHkyPSItMTguNjE4MyIgeDI9IjQ0MTExLjI4NTIiIHkxPSI0OS45ODYzIiB4MT0iNDQxMDIuMjU3OCIgZ3JhZGllbnRVbml0cz0idXNlclNwYWNlT25Vc2UiIGlkPSJTVkdJRF8zNF8iPiYjeGE7ICAgICAgPHN0b3Agc3R5bGU9InN0b3AtY29sb3I6I0ZBQTdCNSIgb2Zmc2V0PSIwIi8+JiN4YTsgICAgICA8c3RvcCBzdHlsZT0ic3RvcC1jb2xvcjojRkFBMTAwIiBvZmZzZXQ9IjAuMzgzNiIvPiYjeGE7ICAgICAgPHN0b3Agc3R5bGU9InN0b3AtY29sb3I6I0JGNzNGMiIgb2Zmc2V0PSIwLjczMTciLz4mI3hhOyAgICA8L2xpbmVhckdyYWRpZW50PiYjeGE7ICAgIDxsaW5lYXJHcmFkaWVudCBncmFkaWVudFRyYW5zZm9ybT0ibWF0cml4KC0xIDAgMCAxIDQ0MDc2LjM1NTUgMCkiIHkyPSItMTcuNjI3OCIgeDI9IjQ0MTE4LjgyMDMiIHkxPSI1MC45NzY2IiB4MT0iNDQxMDkuNzkzIiBncmFkaWVudFVuaXRzPSJ1c2VyU3BhY2VPblVzZSIgaWQ9IlNWR0lEXzM1XyI+JiN4YTsgICAgICA8c3RvcCBzdHlsZT0ic3RvcC1jb2xvcjojRkFBN0I1IiBvZmZzZXQ9IjAiLz4mI3hhOyAgICAgIDxzdG9wIHN0eWxlPSJzdG9wLWNvbG9yOiNGQUExMDAiIG9mZnNldD0iMC4zODM2Ii8+JiN4YTsgICAgICA8c3RvcCBzdHlsZT0ic3RvcC1jb2xvcjojQkY3M0YyIiBvZmZzZXQ9IjAuNzMxNyIvPiYjeGE7ICAgIDwvbGluZWFyR3JhZGllbnQ+JiN4YTsgICAgPGxpbmVhckdyYWRpZW50IGdyYWRpZW50VHJhbnNmb3JtPSJtYXRyaXgoLTEgMCAwIDEgNDQwNzYuMzU1NSAwKSIgeTI9Ii0yNi4wMTc2IiB4Mj0iNDQxMTguOTk2MSIgeTE9IjIxLjcyMDciIHgxPSI0NDEyMy4wNTA4IiBncmFkaWVudFVuaXRzPSJ1c2VyU3BhY2VPblVzZSIgaWQ9IlNWR0lEXzM2XyI+JiN4YTsgICAgICA8c3RvcCBzdHlsZT0ic3RvcC1jb2xvcjojRkFBN0I1IiBvZmZzZXQ9IjAiLz4mI3hhOyAgICAgIDxzdG9wIHN0eWxlPSJzdG9wLWNvbG9yOiNGQUExMDAiIG9mZnNldD0iMC4zODM2Ii8+JiN4YTsgICAgICA8c3RvcCBzdHlsZT0ic3RvcC1jb2xvcjojQkY3M0YyIiBvZmZzZXQ9IjAuNzMxNyIvPiYjeGE7ICAgIDwvbGluZWFyR3JhZGllbnQ+JiN4YTsgICAgPGxpbmVhckdyYWRpZW50IGdyYWRpZW50VHJhbnNmb3JtPSJtYXRyaXgoLTEgMCAwIDEgNDQwNzYuMzU1NSAwKSIgeTI9Ii0yMi4wMzUiIHgyPSI0NDA1Mi42NTIzIiB5MT0iNjEuOTE5OSIgeDE9IjQ0MDUwLjg0NzciIGdyYWRpZW50VW5pdHM9InVzZXJTcGFjZU9uVXNlIiBpZD0iU1ZHSURfMzdfIj4mI3hhOyAgICAgIDxzdG9wIHN0eWxlPSJzdG9wLWNvbG9yOiNGQUE3QjUiIG9mZnNldD0iMCIvPiYjeGE7ICAgICAgPHN0b3Agc3R5bGU9InN0b3AtY29sb3I6I0ZBQTEwMCIgb2Zmc2V0PSIwLjM4MzYiLz4mI3hhOyAgICAgIDxzdG9wIHN0eWxlPSJzdG9wLWNvbG9yOiNCRjczRjIiIG9mZnNldD0iMC43MzE3Ii8+JiN4YTsgICAgPC9saW5lYXJHcmFkaWVudD4mI3hhOyAgICA8bGluZWFyR3JhZGllbnQgZ3JhZGllbnRUcmFuc2Zvcm09Im1hdHJpeCgtMSAwIDAgMSA0NDA3Ni4zNTU1IDApIiB5Mj0iLTkuNjc2NSIgeDI9IjQ0MDM4LjMxNjQiIHkxPSItMi4zMDI3IiB4MT0iNDQwMzMuODQ3NyIgZ3JhZGllbnRVbml0cz0idXNlclNwYWNlT25Vc2UiIGlkPSJTVkdJRF8zOF8iPiYjeGE7ICAgICAgPHN0b3Agc3R5bGU9InN0b3AtY29sb3I6I0ZBQTdCNSIgb2Zmc2V0PSIwIi8+JiN4YTsgICAgICA8c3RvcCBzdHlsZT0ic3RvcC1jb2xvcjojRkFBMTAwIiBvZmZzZXQ9IjAuMzgzNiIvPiYjeGE7ICAgICAgPHN0b3Agc3R5bGU9InN0b3AtY29sb3I6I0JGNzNGMiIgb2Zmc2V0PSIwLjczMTciLz4mI3hhOyAgICA8L2xpbmVhckdyYWRpZW50PiYjeGE7ICAgIDxsaW5lYXJHcmFkaWVudCBncmFkaWVudFRyYW5zZm9ybT0ibWF0cml4KC0xIDAgMCAxIDQ0MDc2LjM1NTUgMCkiIHkyPSIzNC42ODk1IiB4Mj0iNDQwNDguNDU3IiB5MT0iMzQuNjg5NSIgeDE9IjQ0MDQ4LjQ1NyIgZ3JhZGllbnRVbml0cz0idXNlclNwYWNlT25Vc2UiIGlkPSJTVkdJRF8zOV8iPiYjeGE7ICAgICAgPHN0b3Agc3R5bGU9InN0b3AtY29sb3I6I0U2NTI3MSIgb2Zmc2V0PSIwIi8+JiN4YTsgICAgICA8c3RvcCBzdHlsZT0ic3RvcC1jb2xvcjojRkFBMTAwIiBvZmZzZXQ9IjAuMzgzNiIvPiYjeGE7ICAgIDwvbGluZWFyR3JhZGllbnQ+JiN4YTsgIDwvZGVmcz4mI3hhOyAgPHN5bWJvbCB2aWV3Qm94PSItNTAuNDUyIC01MC45NTUgMTAwLjkwNCAxMDEuOTEiIGlkPSJOZXdfU3ltYm9sXzMiPiYjeGE7ICAgIDxwYXRoIGQ9Ik0xNC4xMTMtNTAuMDEyYy0xLjM1MywwLjAxNy0yLjcwNCwwLjAyMS00LjA1NiwwLjAyMWwtMy40ODktMC4wMDNjMCwwLTkuOTgsMC4wMDQtMTQuNzUsMC4wMDQmIzEwOyYjOTsmIzk7Yy0wLjc0OSwwLTEuNS0wLjAwMy0yLjI1LTAuMDA1Qy0xMS4xODMtNDkuOTk3LTExLjkzMy01MC0xMi42ODQtNTBjLTAuNDcsMC0wLjkzOCwwLjAwMS0xLjQwNywwLjAwNCYjMTA7JiM5OyYjOTtjLTIuODM4LDAuMDE3LTUuNTUxLDAuMzU4LTguMDYzLDEuMDE2Yy0xMC4wMDIsMi42MTctMTcuNTc2LDguNTUxLTIyLjUxMiwxNy42MzRjLTIuMzY2LDQuMzU0LTMuNzExLDkuMjI1LTMuOTk1LDE0LjQ3MyYjMTA7JiM5OyYjOTtjLTAuMTI2LDIuMzM0LTAuMDA3LDQuNzI2LDAuMzU1LDcuMTA4YzAuMDQzLDAuMjg0LDAuMDk1LDAuNTY4LDAuMTQ3LDAuODU0bDAuMTE1LDAuNjVsMC4xOTUtMC4xOTImIzEwOyYjOTsmIzk7YzAuMTAzLTAuMTAyLDAuMTM1LTAuMjA4LDAuMTU5LTAuMjg4YzAuMDk3LTAuMzE4LDAuMTg4LTAuNjM5LDAuMjgtMC45NThjMC4xOS0wLjY2NSwwLjM4OC0xLjM1MywwLjYyLTIuMDEzJiMxMDsmIzk7JiM5O2MxLjcwMS00Ljg1Miw0LjI4NC05LjM5Nyw3Ljg5Ni0xMy45MDJjMC4xNDMtMC4xNzgsMC4yNTEtMC4zNzUsMC4zMTMtMC41NjZjMS4yMjUtMy43NzEsMy4zNTQtNy4wMjgsNi4zMjYtOS42OSYjMTA7JiM5OyYjOTtjMi44OTEtMi41ODgsNi4zNTctNC41MjYsMTAuMzE2LTUuNzcxYy0yLjUzOSwxLjA4Ny00Ljg4OSwyLjQ3Ni03LjAwMyw0LjE0M2MtMy40NDgsMi43MTktNS45MzMsNi4wNDYtNy4zODMsOS44OSYjMTA7JiM5OyYjOTtjLTAuMTQ1LDAuMzg2LTAuMjY3LDAuODUyLTAuMDcxLDEuMzY4YzAuMDY1LDAuMTc2LDAuMTExLDAuMzU4LDAuMTU4LDAuNTQxYzAuMDMyLDAuMTI2LDAuMDYzLDAuMjUyLDAuMTAyLDAuMzc3JiMxMDsmIzk7JiM5O2MwLjc4MSwyLjU1MywxLjk2Nyw0LjU1NSwzLjYyNiw2LjExN2MxLjU0NSwxLjQ1NiwzLjUxMywyLjUyMSw2LjAxNywzLjI1N2MyLjMzOCwwLjY4OCw0Ljc3OCwwLjk5OCw3LjEzNywxLjI5OGwxLjAxMSwwLjEzJiMxMDsmIzk7JiM5O2MxLjMyMSwwLjE3MywyLjY2LDAuMzc3LDMuOTU0LDAuNTc3bDAuNzc5LDAuMTJjMC4yOSwwLjA0NCwwLjU3OCwwLjEwNywwLjg3NiwwLjE3MmwwLjcyNywwLjE1MmwtMC4xOTEtMC4zMjUmIzEwOyYjOTsmIzk7Yy0wLjAxNS0wLjAyOC0wLjAyNy0wLjA1MS0wLjA0OC0wLjA3NWMtMS4yMjUtMS4zNzItMi4yNTMtMi44OTctMy4wNTUtNC41MzhjLTAuMDY4LTAuMTM5LTAuMjE0LTAuMjY3LTAuMzU0LTAuMzEyJiMxMDsmIzk7JiM5O2MtMC4xNzQtMC4wNTctMC4zNDctMC4xMTMtMC41Mi0wLjE3MWMtMC41NTEtMC4xODUtMS4xMTktMC4zNzEtMS42OTctMC40ODZjLTAuNjIyLTAuMTI0LTEuMjU5LTAuMjE0LTEuODc2LTAuMyYjMTA7JiM5OyYjOTtjLTAuNDk0LTAuMDctMC45ODgtMC4xMzktMS40NzktMC4yMjljLTEuNjUzLTAuMjk0LTIuOTMyLTAuODI1LTMuODk5LTEuNjM2YzAuMjEyLDAuMDUxLDAuNDMxLDAuMDgzLDAuNjQ2LDAuMTE0JiMxMDsmIzk7JiM5O2MwLjMsMC4wNDMsMC42MDgsMC4wODksMC44ODksMC4xODZjMS41MjQsMC41MywzLjE5NiwwLjc3Niw1LjI2MywwLjc3NmwwLjI3OS0wLjAwMWMwLjM3MS0wLjAwNCwwLjc0MS0wLjAyMSwxLjExNy0wLjAzOSYjMTA7JiM5OyYjOTtsMC43MjYtMC4wM2wtMC4wNTQtMC4xNzljLTEuNDgzLTQuODQ1LTEuNDQxLTkuNTk5LDAuMTE5LTE0LjE1N2MtMC42NTMsMy4wOTEtMC43NzIsNS45NjItMC4zNjgsOC43MzcmIzEwOyYjOTsmIzk7YzAuNjE4LDQuMjQxLDIuNDg2LDcuODk2LDUuNTU2LDEwLjg2M2MyLjA3LDIuMDAxLDQuNjY3LDMuNjgxLDcuOTM4LDUuMTMzYzIuODQxLDEuMjYzLDUuODAxLDIuMDIxLDguNTg5LDIuNjkxTDYuMDk5LTcuMzUmIzEwOyYjOTsmIzk7YzEuOTg4LDAuNDc4LDQuMDQ0LDAuOTcyLDYuMDM2LDEuNTU3YzIuOTg3LDAuODc1LDUuNTgzLDIuMzE0LDcuNzE2LDQuMjg0YzAuMzE5LDAuMjk1LDAuNjgyLDAuNjMsMC45NjgsMSYjMTA7JiM5OyYjOTtjMi4wMzcsMi42NCw0LjQxMiw0LjUxMyw3LjI1OCw1LjcyN2MwLjA4MiwwLjAzNSwwLjE3NSwwLjEyMiwwLjIzNSwwLjIyMWMwLjkzMSwxLjUyLDIuMDQ4LDIuNjM5LDMuNDE1LDMuNDI0JiMxMDsmIzk7JiM5O2MwLjMwNSwwLjE3NSwwLjYwOSwwLjI2MywwLjkwNCwwLjI2M2MwLjM3NCwwLDAuNzQ4LTAuMTQ0LDEuMTEzLTAuNDIxYzAuMTM4LTAuMTA2LDAuMjY0LTAuMjE3LDAuMzc1LTAuMzMmIzEwOyYjOTsmIzk7YzAuNDc5LTAuNDgxLDAuODYzLTEuMDczLDEuMjExLTEuODU5YzAuMDQzLTAuMDk0LDAuMDgyLTAuMTI0LDAuMTg3LTAuMTM3YzAuMzQ3LTAuMDQ2LDAuNzA1LTAuMDkzLDEuMDYtMC4xNjMmIzEwOyYjOTsmIzk7YzUuODEyLTEuMTUsOS44NTktNS42MjIsMTAuNTYyLTExLjY3M2MwLjAxOS0wLjE2MSwwLjAzMi0wLjMyNCwwLjA0NS0wLjQ4NmMwLjAzMS0wLjM4NCwwLjA2Mi0wLjc4LDAuMTc3LTEuMTM3JiMxMDsmIzk7JiM5O2MwLjE0NC0wLjQ1MSwwLjM2MS0wLjg5NSwwLjU3My0xLjMyMWMwLjA5My0wLjE4OSwwLjE4OC0wLjM4MiwwLjI3Ni0wLjU3NWMwLjA3NS0wLjE2NiwwLjE1NC0wLjMzLDAuMjMyLTAuNDk0JiMxMDsmIzk7JiM5O2MwLjE4NS0wLjM4OSwwLjM3NC0wLjc4NiwwLjUzMS0xLjE5M2MwLjI0MS0wLjYyMSwwLjI2OS0xLjI2MywwLjA4NC0xLjkwOGMtMC4wOC0wLjI3Ny0wLjI0OC0wLjMxOC0wLjM0MS0wLjMxOCYjMTA7JiM5OyYjOTtjLTAuMDcxLDAtMC4xNDcsMC4wMjMtMC4yMjQsMC4wNzFjLTAuMTYsMC4xMDMtMC4zMDksMC4yMTctMC40NTgsMC4zMzVjLTAuMDcsMC4wNTgtMC4xNDIsMC4xMTEtMC4yMTQsMC4xNjUmIzEwOyYjOTsmIzk7Yy0wLjA4LDAuMDYyLTAuMTU5LDAuMTIzLTAuMjM3LDAuMTg4Yy0wLjE4NywwLjE0Ni0wLjM2MiwwLjI4OC0wLjU1NywwLjM5NWMtMC4wNywwLjAzOS0wLjE0MywwLjA2MS0wLjIxNCwwLjA2MSYjMTA7JiM5OyYjOTtjLTAuMDc0LDAtMC4xNDUtMC4wMjItMC4yMTEtMC4wNjVsMC4yNzQtMC4yNDVjMC40ODktMC40MzQsMC45NzctMC44NjksMS40NTctMS4zMWMwLjEwMS0wLjA5MiwwLjE2OC0wLjI2MSwwLjE1OS0wLjQmIzEwOyYjOTsmIzk7Yy0wLjA1Ny0wLjkwOC0wLjM3NC0xLjY2MS0wLjk0NS0yLjI0MWMtMC42OC0wLjY4OC0xLjM5My0xLjAyMi0yLjE3OC0xLjAyMmMtMC4xNjgsMC0wLjMzOSwwLjAxNi0wLjUxMywwLjA0NyYjMTA7JiM5OyYjOTtjLTAuMDMyLTAuMzA1LTAuMDk3LTAuNDE5LTAuMzUxLTAuNTU1Yy0xLjYwNi0wLjg3MS0zLjE3Mi0xLjI5NS00Ljc4NS0xLjI5NWwtMC4yNTIsMC4wMDJjLTEuMDk5LDAtMi4xNjktMC4zMTItMy4zNjktMC45ODEmIzEwOyYjOTsmIzk7Yy0wLjQxMy0wLjIyOS0wLjc3OC0wLjM4Ni0xLjExOS0wLjQ3NmMtMS4wMzEtMC4yNzQtMi4wNzItMC4zNzctMy4wMTMtMC40MjFjMC40MDQtMC4wNTYsMC44MjYtMC4wODMsMS4yNzktMC4wODMmIzEwOyYjOTsmIzk7YzAuMjg5LDAsMC41ODcsMC4wMTIsMC45MDksMC4wMzNsMC4xODQsMC4wMTljMC4xMzYsMC4wMTMsMC4yNzQsMC4wMjUsMC40MDYsMC4wMjVjMC4xNzcsMCwwLjMyMy0wLjAyMiwwLjQ0Ni0wLjA3MyYjMTA7JiM5OyYjOTtjMC44NDEtMC4zNDQsMS42NjMtMC43NiwyLjQzMy0xLjE1NGMwLjE1MS0wLjA3OCwwLjI2LTAuMTEsMC4zNjEtMC4xMWMwLjA1NiwwLDAuMTEsMC4wMTEsMC4xNjcsMC4wMzJsMC4yMjUsMC4wODQmIzEwOyYjOTsmIzk7YzAuNDIxLDAuMTU5LDAuODU2LDAuMzIzLDEuMjcxLDAuNTA3YzAuOTg3LDAuNDM5LDEuODM4LDAuNjQ2LDIuNjc4LDAuNjQ2YzAuMjI1LDAsMC40NS0wLjAxNywwLjY3My0wLjA0NyYjMTA7JiM5OyYjOTtjMC41NzYtMC4wNzgsMS4yNDgtMC4yMSwxLjg1NC0wLjU4M2MwLjI5OS0wLjE4NCwwLjY5OC0wLjQ5MSwwLjczNS0xLjA2NGMwLjAwMi0wLjAxLDAuMDIyLTAuMDQ0LDAuMDY5LTAuMDg4JiMxMDsmIzk7JiM5O2MwLjA3My0wLjA2NywwLjE0OS0wLjEzMSwwLjIyNy0wLjE5NWMwLjA3OC0wLjA2NCwwLjE1OC0wLjEzMSwwLjIzMy0wLjIwMmMwLjQ3LTAuNDMxLDAuNjc3LTAuOTc3LDAuNjE5LTEuNjI0JiMxMDsmIzk7JiM5O2MtMC4wMTgtMC4xODEtMC4wNTgtMC42MDUtMC40MjEtMC42MDVjLTAuMTEsMC0wLjIzOSwwLjA0LTAuNDE4LDAuMTMxYy0wLjA3NSwwLjAzOS0wLjE0NCwwLjA3LTAuMjA3LDAuMDg4JiMxMDsmIzk7JiM5O2MwLjE3Ny0wLjEwOCwwLjM0OS0wLjIxNywwLjUxOC0wLjMzMmMwLjQwMS0wLjI3MywwLjU5Ny0wLjY5MSwwLjU3OC0xLjI0MmMtMC4wMzgtMS4yLTEuMzAyLTIuMzM2LTIuNjAxLTIuMzM2JiMxMDsmIzk7JiM5O2MtMC4xNTQsMC0wLjMwNiwwLjAxOS0wLjQ1MSwwLjA1Yy0wLjM4MywwLjA4NC0wLjg1OSwwLjI0NC0xLjE0NiwwLjc0MmMtMC4wMDksMC4wMTQtMC4wNDIsMC4wMzYtMC4wNDksMC4wMzhsLTAuMjItMC4wMSYjMTA7JiM5OyYjOTtjLTAuMjYxLTAuMDEtMC41MjktMC4wMjEtMC43NzgtMC4wNzhsLTAuMDczLTAuMDE3Yy0wLjQyMy0wLjA5OC0wLjg1OS0wLjE5NS0xLjMwNS0wLjE5NWMtMC4xNzgsMC0wLjM0NSwwLjAxNi0wLjUwNywwLjA0NyYjMTA7JiM5OyYjOTtjLTAuMTk5LDAuMDM3LTAuMzk2LDAuMDg2LTAuNTk4LDAuMTM2bC0wLjE0NiwwLjAzNWMtMC4yMzEtMC43NDktMC42MDQtMS40NTItMS4xMDktMi4wOTRjLTEuMTMxLTEuNDM4LTIuNjM5LTIuNDUyLTQuNjA3LTMuMDk3JiMxMDsmIzk7JiM5O2MtMS40MjctMC40Ny0yLjk2MS0wLjcwNS00LjU2Mi0wLjcwNWMtMC44NDEsMC0xLjcyNCwwLjA2My0yLjYyMywwLjE5MWMtMy41NDYsMC41MDctNi4wMjEsMi40MzUtNy4zNTksNS43MjkmIzEwOyYjOTsmIzk7Yy0wLjIyNSwwLjU1Mi0wLjM3NiwxLjEzOC0wLjUyNCwxLjcwNmMtMC4wNzEsMC4yNzQtMC4xNDQsMC41NTQtMC4yMjQsMC44MjdjLTAuNDIsMS40MjktMC45NDksMi42ODktMS42MTksMy44NTkmIzEwOyYjOTsmIzk7Yy0xLjIxNiwyLjEyMy0yLjcyLDMuNjM2LTQuNTk5LDQuNjI1Yy0xLjUwMiwwLjc5MS0zLjE0NiwxLjE5Mi00Ljg4NCwxLjE5MmMtMC43MjgsMC0xLjQ4OS0wLjA2OS0yLjI2NC0wLjIwOCYjMTA7JiM5OyYjOTtjLTAuMTU3LTAuMDI4LTAuMzEzLTAuMDYyLTAuNDcyLTAuMDk2YzAuNTQ3LTAuMDI1LDEuMDY3LTAuMDU1LDEuNTkyLTAuMTA2YzIuNDMxLTAuMjQ2LDQuNjQ1LTAuOTkzLDYuNTgtMi4yMTkmIzEwOyYjOTsmIzk7YzIuNjMzLTEuNjcxLDQuMjQ5LTMuNzQ3LDQuOTM3LTYuMzQ1YzAuMzg1LTEuNDUyLDAuOTM1LTIuODk4LDEuNjM0LTQuMjk5YzAuNDA0LTAuODEyLDAuOTE4LTEuNzUyLDEuNjU4LTIuNTQ2JiMxMDsmIzk7JiM5O2MxLjA0Ni0xLjExOSwyLjM5NC0xLjg4NCw0LjI0MS0yLjQwM2MwLjUwNS0wLjE0MywxLjAwNy0wLjI5OCwxLjUwNi0wLjQ1OGMwLjI3Ni0wLjA4OSwwLjQ2OC0wLjI4LDAuNTg3LTAuNTg3JiMxMDsmIzk7JiM5O2MwLjI4OS0wLjc1LDAuMzYxLTEuNTE1LDAuMjEzLTIuMjdjLTAuMjE3LTEuMTA5LTAuNzQ0LTIuMTM2LTEuNjEzLTMuMTM5Yy0wLjY4Ni0wLjc5MS0xLjUzOC0xLjM2Ni0yLjM2Mi0xLjkyMyYjMTA7JiM5OyYjOTtjLTAuNDE0LTAuMjc3LTAuODAzLTAuNTcyLTEuMTU3LTAuODc1Yy0wLjMwMy0wLjI2LTAuNDYtMC42LTAuNDQzLTAuOTU4YzAuMDI2LTAuNTksMC4wNy0wLjYxMiwwLjE4LTAuNjEyJiMxMDsmIzk7JiM5O2MwLjA5MiwwLDAuMjM3LDAuMDM1LDAuNDcxLDAuMTExYzAuMTE1LDAuMDM4LDAuMjI5LDAuMDg0LDAuMzQyLDAuMTM0bDAuNjg2LDAuMjk2YzAuMzkyLDAuMTY5LDAuNzgzLDAuMzM5LDEuMTc4LDAuNTAzJiMxMDsmIzk7JiM5O2MwLjg1NiwwLjM1NywxLjcwMywwLjU0LDIuNTE1LDAuNTRjMC40MzQsMCwwLjg2OC0wLjA1MiwxLjI5MS0wLjE1M2MxLjUyLTAuMzY0LDIuNTE4LTEuMjY3LDIuOTY2LTIuNjg2JiMxMDsmIzk7JiM5O2MwLjEyLTAuMzg0LDAuMTAzLTAuNzEyLTAuMDU1LTAuOTc5Yy0wLjEwNC0wLjE3Ny0wLjM0Mi0wLjMyNS0wLjU0LTAuMzMxYy0wLjE4NCwwLTAuMzU2LDAuMTYzLTAuNDg4LDAuMzA4JiMxMDsmIzk7JiM5O2MtMC4wNzQsMC4wODEtMC4wOTIsMC4xODctMC4xMDYsMC4yNzljLTAuMDA2LDAuMDMtMC4wMTEsMC4wNjItMC4wMTgsMC4wOWMtMC4xMzUsMC41MDUtMC4zMjIsMC44MzUtMC42MDQsMS4wNTYmIzEwOyYjOTsmIzk7YzAuNTA0LTAuNjg1LDAuNzMtMS40MTcsMC42ODktMi4yM2MtMC4wNDItMC44MDctMC42NDYtMS4zNjktMS40NzEtMS4zNjljLTAuMDM0LDAtMC4wNjcsMC4wMDEtMC4xMDMsMC4wMDMmIzEwOyYjOTsmIzk7Yy0wLjMxMywwLjAxOS0wLjUxMiwwLjE4OC0wLjU0NSwwLjQ2NmMtMC4wMjIsMC4xOTItMC4wMjIsMC4zOS0wLjAyMywwLjU4YzAsMC4wNzksMCwwLjE1OS0wLjAwMiwwLjIzNyYjMTA7JiM5OyYjOTtjLTAuMDAyLDAuMTA0LTAuMDAxLDAuMjA1LDAsMC4zMDljMCwwLjIyMiwwLjAwMSwwLjQzMS0wLjAyNywwLjYzN2MtMC4wNjIsMC40NDQtMC4zMjYsMC43NDQtMC43ODUsMC44OTEmIzEwOyYjOTsmIzk7Yy0wLjAzMiwwLjAxMi0wLjA2NCwwLjAyLTAuMDk4LDAuMDIzYzAuMTM5LTAuMDc5LDAuMjU5LTAuMTg4LDAuMzQ0LTAuMzQ2YzAuMTctMC4zMTUsMC4zMTUtMC42MDIsMC4zOTQtMC45MTEmIzEwOyYjOTsmIzk7YzAuMjA0LTAuODIxLDAuMDAzLTEuNDYxLTAuNTgxLTEuODUzYy0wLjMwMy0wLjIwMS0wLjY5MS0wLjI3Ni0xLjAzMy0wLjMyNGMtMC4xMzktMC4wMi0wLjI3NS0wLjAyNi0wLjQxMi0wLjAyNiYjMTA7JiM5OyYjOTtjLTAuNTExLDAtMS4wMTEsMC4xMi0xLjQ5MywwLjIzNGwtMC4yNDUsMC4wNTljLTAuNDU3LDAuMTA1LTAuODYyLDAuMTU4LTEuMjUxLDAuMTU5Yy0wLjMzMiwwLTAuNjc3LTAuMDY0LTEuMDExLTAuMTI2JiMxMDsmIzk7JiM5O2wtMC4xNTUtMC4wMjhjLTIuNTMzLTAuNDU2LTQuODEtMC42NzctNi45NTktMC42NzdMMTQuMTEzLTUwLjAxMnoiIGZpbGw9IiNFNjUyNzAiLz4mI3hhOyAgICA8cGF0aCBkPSJNMzQuNzMtMjAuNDUxYzAsMC0zLjczNS00LjQ1Ni0xMC4wNzgtMS45MDMmIzEwOyYjOTsmIzk7Yy01LjgxLDIuMzQxLTMuNjkyLDguNzg0LTMuNjkyLDguNzg0czEuMDMtMy45OTYsNC4wMzYtNS41MUMyOS4zNDgtMjEuMjczLDM0LjczLTIwLjQ1MSwzNC43My0yMC40NTF6IiBmaWxsPSIjNDMwQTFEIiBvcGFjaXR5PSIwLjIiLz4mI3hhOyAgICA8cGF0aCBkPSJNMTYuMzI3LTIyLjM1OWMwLjgwOS0wLjgyMiwwLjgyNC0xLjY2MywxLjA3OC0yLjY4OCYjMTA7JiM5OyYjOTtjMC40NzktMS45MjgsMS4wNjgtMy42MDIsMi4yOTYtNS4xODhjMS4xODEtMS41MjQsMi41OTQtMi42MDIsNC40MTktMy4zMDNjMS41ODEtMC42MDYsMy42MTQtMC40MjcsMy4zMTEtMi43ODFsLTAuNTMtMS45ODImIzEwOyYjOTsmIzk7Yy00LjA0LDAtNy44MjUsMS44NDQtOS4zNjcsNS44NTRjLTEuMzUyLDMuNTE4LDAuMjQxLDcuNzY5LTMuODU3LDEzLjcxN0MxNC4wMDUtMTkuMTMyLDE1LjkwOC0yMS45MzEsMTYuMzI3LTIyLjM1OXoiIGZpbGw9IiM0MzBBMUQiIG9wYWNpdHk9IjAuMiIvPiYjeGE7ICAgIDxnIG9wYWNpdHk9IjAuMiI+JiN4YTsgICAgICA8cGF0aCBkPSJNMTQuNzI3LTIwLjYxMWMwLjA2Mi0wLjI1LDAuMTE4LTAuNTA0LDAuMTc1LTAuNzU3QzE0Ljc1MS0yMS4xODMsMTQuNjczLTIwLjk0NywxNC43MjctMjAuNjExeiIgZmlsbD0iIzJCMkIyQiIvPiYjeGE7ICAgIDwvZz4mI3hhOyAgICA8cGF0aCBkPSJNLTMyLjM0OS0zNS45ODNjLTE1LjI0MSwxLjUwNi0xNy4wMzUsMTYuNjc3LTE3LjAzNSwxNi42NzdzLTAuODI4LDcuMDMyLDEuMTA0LDEzLjkzJiMxMDsmIzk7JiM5O2MxLjI0MS0xMi41NSwxMS4zMDktMjEuMjM5LDExLjMwOS0yMS4yMzlTLTM0Ljc1OS0zMy43NjYtMzIuMzQ5LTM1Ljk4M3oiIGZpbGw9InVybCgjU1ZHSURfMjBfKSIvPiYjeGE7ICAgIDxwYXRoIGQ9Ik0tMzYuMTUtMzAuMjA1YzAsMC0zLjE5Ni0wLjMwNC03LjQ2MSw0Ljg3MyYjMTA7JiM5OyYjOTtjNC4xMTItNy40NjEsOS40NDEtNy42MTMsOS40NDEtNy42MTNMLTM2LjE1LTMwLjIwNXoiIGZpbGw9IiMyQjJCMkIiIG9wYWNpdHk9IjAuMiIvPiYjeGE7ICAgIDxwYXRoIGQ9Ik0tMjcuOTEyLTM4LjkxN2MtMC43OTksMTQuMDMsNy40MzgsNy41MiwxMS42OSwxNC45NmMxLjE5NSw2LjUxLDQuNzgyLDEwLjYyOCw0Ljc4MiwxMC42MjgmIzEwOyYjOTsmIzk7cy0yNS41MDYsNC43ODItMjUuOTA3LTEzLjgxN2MwLjg4OC00LjAyNyw0Ljc5Mi03LjkyMSw3LjIzNi0xMC4wMjhjLTAuNDc4LDEuMDc4LTYuNTY3LDE3LjgzMywxMy43MTEsMTYuNDY3JiMxMDsmIzk7JiM5O2MtNi45OTksMC41OTYtMTcuMTA1LTYuNzE2LTEyLjI4OC0xNy42N0MtMjguMjA1LTM4LjcyOS0yNy45MTItMzguOTE3LTI3LjkxMi0zOC45MTd6IiBmaWxsPSJ1cmwoI1NWR0lEXzIxXykiLz4mI3hhOyAgICA8cGF0aCBkPSJNLTIxLjAxNy0xOC42ODRjLTUuMjcyLTEuOTgyLTE0LjIyNS0xLjk3My0xMS42NzctMTUuNDI2JiMxMDsmIzk7JiM5O2MtMC40MDgtMC4zMDYtMi40NDYsMi44NTQtMS45MzcsMi41NDdDLTM2Ljk3NS0xOS41MzUtMjYuNDQ3LTIwLjIzLTIxLjAxNy0xOC42ODR6IiBmaWxsPSIjRkZGRkZGIiBvcGFjaXR5PSIwLjIiLz4mI3hhOyAgICA8cGF0aCBkPSJNLTE0LjM0MS0xMy44NjVjNS4xMjcsMi4wMjgsMC45NjQtMy43MjIsMC4yMzYtNC42NDImIzEwOyYjOTsmIzk7Yy0xLjY4My0yLjEyOC01Ljk0MS0xLjQzNi04LjIxLTIuMTQ2Yy0xLjMwNS0wLjQwOC02LjUzNi0xLjE3NS04LjI2OS02LjEyOGMtMC43Ny0yLjE5NC0xLjA2LTUuNzgxLDAuNTgxLTEwLjE0NiYjMTA7JiM5OyYjOTtjLTAuNDA3LTAuMzA4LTMuMTA0LDIuNjQ2LTIuNTk0LDIuMzQyQy0zNi45MjUtMTUuMjU1LTE2LjUxMS0yMi4xOTMtMTQuMzQxLTEzLjg2NXoiIGZpbGw9IiM4QjRGQkEiIG9wYWNpdHk9IjAuNiIvPiYjeGE7ICAgIDxwYXRoIGQ9Ik0zNi42MzEtNS45NzJjMC4xMzksMC4zODQsMC4zNzgsMC44NzUsMC42NzksMS4xNjVjMC4wNy0wLjAzMywwLjE0NS0wLjAzNywwLjIwMi0wLjA3MyYjMTA7JiM5OyYjOTtjMC41LDAuMzI0LDEuMjksMC4yODEsMS45MTgsMC4yODFjMC4zNzYsMCwwLjkyNCwwLjEwNCwxLjI4Ny0wLjAzN2MwLjUyOC0wLjIwNSwwLjQ2OC0wLjc2MSwwLjY4OS0xLjE4MiYjMTA7JiM5OyYjOTtjMC40MTQtMC43ODYsMS42OS0wLjc5NiwxLjY5NS0xLjkwN2MwLjAwNC0wLjUyMywwLjEzNS0xLjIzMiwwLjAwMS0xLjc0NGMtMC4xLTAuMzgtMC41MjUtMC4yNjQtMC44OTEtMC4yNjQmIzEwOyYjOTsmIzk7Yy0xLjEwOSwwLTIuMjE1LTAuMDMxLTMuMzI2LTAuMDMxbC0xLjUzNiwxLjE0NWMtMC40MS0wLjEzMS0wLjczMSwwLjcyOS0wLjc4NywxLjAyMUMzNi40Ny03LjExNiwzNi40NTgtNi40NDksMzYuNjMxLTUuOTcyeiIgZmlsbD0iI0Y5RTBFNyIvPiYjeGE7ICAgIDxwYXRoIGQ9Ik00MS43NTYtNy40OTRjMC4xODgsMC4wNzcsMC40NjUsMC4zNzgsMC41ODEsMC41NTVjMC4wODQsMC4xMjcsMC4wNiwwLjIwOCwwLjI0LDAuMjAzJiMxMDsmIzk7JiM5O2MwLjQ2OS0wLjAxMywwLjQ3My0wLjY0NiwwLjQ0OS0wLjk3M2MtMC4wMjgtMC40MTgtMC4xOTctMC44MDItMC4yNTgtMS4yMTNjLTAuMTUyLDAuMDM4LTAuMjM2LDAuMjI5LTAuNDA3LDAuMjc3JiMxMDsmIzk7JiM5O2MtMC4xMzYsMC4wNC0wLjMzMSwwLjAyMS0wLjQ3MywwLjAxNWMtMC4yMDgtMC4wMDktMC40OTYtMC4xNDktMC42ODQtMC4wNjlMNDEuNzU2LTcuNDk0eiIgZmlsbD0iI0ZGRkZGRiIvPiYjeGE7ICAgIDxwYXRoIGQ9Ik0tMTguOTksMTMuMDY4YzAuMDcsMC4wODEsMC4wODgsMC4xMDUsMC4xMSwwLjEyOGMyLjAzNSwxLjksMy4xMTQsNC4yOTgsMy42OTQsNi45NzkmIzEwOyYjOTsmIzk7YzAuMzgxLDEuNzU1LTAuMTA1LDMuMzAzLTAuODk1LDQuODE2Yy0wLjAxNCwwLjAyNS0wLjAzOSwwLjA1LTAuMDY2LDAuMDg0Yy0wLjE1OC0wLjQ5NC0wLjMwMi0wLjk3OS0wLjQ3LTEuNDU2JiMxMDsmIzk7JiM5O2MtMC40MTMtMS4xNzYtMC45MTMtMi4zMTQtMS43MDctMy4yODhjLTAuMzE3LTAuMzg4LTEzLjYxMy03Ljc1My0xMi4yNDQtMjQuMDY0YzAuMDA5LTAuMTAxLDAuMDI2LTAuMTk3LDAuMDQtMC4zMSYjMTA7JiM5OyYjOTtjMC4yNDYsMC4yMjksMC40NjEsMC40NjYsMC43MDgsMC42NjFjMC44ODUsMC42OTIsMS45MDcsMS4xMzMsMi45NzMsMS40MzFjMS45NTEsMC41NDQsMy45MTUsMS4wNDQsNS44ODEsMS41MjUmIzEwOyYjOTsmIzk7YzIuMjM3LDAuNTQ4LDQuNDg3LDEuMDU2LDYuNjQ1LDEuODgyYzEuMjIsMC40NjYsMi4zNTQsMS4wOCwzLjQzNywxLjgyYzEuNjE0LDEuMTA0LDMuMDA3LDIuNDI2LDQuMjA3LDMuOTU2JiMxMDsmIzk7JiM5O2MwLjY5OSwwLjg5MSwxLjAyNSwxLjU3MSwxLjM0LDIuNjE4YzAuMTk5LTAuNTM5LDAuMDk1LTIuMDQxLTAuMjA1LTIuOTk5Yy0wLjMxLTAuOTktMC44MzctMS44NTQtMS41MjQtMi42NDcmIzEwOyYjOTsmIzk7YzAuMTY1LDAuMDUzLDAuMzQ1LDAuMDgsMC40OTIsMC4xNjRjMS45MDIsMS4wODQsMy41ODcsMi40MTksNC44MzEsNC4yNDljMC44MzQsMS4yMjYsMS4zNDIsMi41NjgsMS40MTMsNC4wNjImIzEwOyYjOTsmIzk7YzAuMDAxLDAuMDIxLDAuMDEsMC4wNDIsMC4wMTcsMC4wNzVjMC4zOTYtMS44MzIsMC4zMzktNC45NTItMS43MjctNy4xN2MwLjczLDAuMjU4LDEuMzksMC41MTcsMi4wNjYsMC43MTgmIzEwOyYjOTsmIzk7YzAuNTU5LDAuMTY2LDAuOTI4LDAuNDkzLDEuMjM3LDAuOTg0YzEuMzU2LDIuMTQ2LDIuNDgsNC4zOTYsMy4wODgsNi44NzdjMC40NywxLjkxNiwwLjU4NywzLjg0LDAuMDYsNS43NjUmIzEwOyYjOTsmIzk7Yy0wLjU5OCwyLjE3Ni0xLjkxMiwzLjg1MS0zLjcsNS4xODJjLTEuMjQyLDAuOTI1LTIuNjEyLDEuNjExLTQuMDUsMi4xNzNjLTAuMDg3LDAuMDM0LTAuMTc0LDAuMDY1LTAuMjU5LDAuMTAzJiMxMDsmIzk7JiM5O2MtMC4wMTQsMC4wMDUtMC4wMjEsMC4wMjEtMC4wNzYsMC4wODFjMC40OTgtMC4xMzcsMC45NDUtMC4yNTMsMS4zODYtMC4zODRjMi4wNi0wLjYxMiw0LjAzNC0xLjQxLDUuNzgyLTIuNjg4JiMxMDsmIzk7JiM5O2MxLjU2LTEuMTQsMi43NTQtMi41NjIsMy4zNTEtNC40MzJjMC41MzMtMS42NzQsMC40ODctMy4zNjYsMC4xMDQtNS4wNThDNi4zODksMTIuNDM4LDUuMjQsMTAuMjQsMy44NCw4LjE1OSYjMTA7JiM5OyYjOTtDMy43OTcsOC4wOTQsMy43NTUsOC4wMywzLjcxNCw3Ljk2NmMtMC4wMDYtMC4wMS0wLjAwNS0wLjAyNi0wLjAxMy0wLjA2MmMwLjA1OCwwLjAyMSwwLjEwNCwwLjAzNiwwLjE0NiwwLjA1OSYjMTA7JiM5OyYjOTtjMi45MzEsMS40OTksNS41MzcsMy40MTYsNy42MTMsNS45OTJjMi4wMTYsMi41LDMuNDgzLDUuMjg0LDQuMTgsOC40MzhjMC44NzcsMy45OC0wLjA4NSw3LjUxNC0yLjY2MywxMC42MzEmIzEwOyYjOTsmIzk7Yy0xLjYyOSwxLjk3My0zLjY0MywzLjQ2NS01Ljg3Myw0LjY4MWMtMi44NzcsMS41NjYtNS45MzgsMi41OS05LjE3NywzLjA2MWMtMS44NDIsMC4yNjktMy42ODYsMC4zMi01LjUyNy0wLjAzNCYjMTA7JiM5OyYjOTtjLTEuMDEyLTAuMTkyLTEuNjY4LTAuNDU4LTIuNzktMS4xMDZjMC4xNDIsMC4xMjEsMC4yNzcsMC4yNDksMC40MjYsMC4zNThjMS4wMDcsMC43NjUsMi4xNjgsMS4xNiwzLjM4NywxLjQwNyYjMTA7JiM5OyYjOTtjMi4wMTYsMC40MDgsNC4wNDksMC40MDMsNi4wODIsMC4xNjZjMy4xNDgtMC4zNjgsNi4xNDktMS4yNCw4Ljk5MS0yLjY0NmMwLjI3OC0wLjE0LDAuNTUzLTAuMjgzLDAuODYtMC40NDEmIzEwOyYjOTsmIzk7YzAsMC4yNTgtMC4wMTUsMC40ODMsMC4wMDQsMC43MDZjMC4wMjYsMC4zNDQsMC4xOTksMC41NDEsMC40NywwLjU3M2MwLjI1OCwwLjAzMiwwLjQxLTAuMDY1LDAuNDYtMC4zMTkmIzEwOyYjOTsmIzk7YzAuMDQxLTAuMjE1LDAuMDUyLTAuNDM2LDAuMDgzLTAuNjUyYzAuMDctMC40OTIsMC4yOTgtMC45MDksMC42MzYtMS4yNzFjMC4wMzMtMC4wMzcsMC4wNzQtMC4wNjksMC4xMTUtMC4wOTcmIzEwOyYjOTsmIzk7YzAuMDE5LTAuMDE1LDAuMDQ2LTAuMDE0LDAuMTE4LTAuMDI4YzAsMC4xNzcsMC4wMDEsMC4zNCwwLDAuNTAyYy0wLjAwNSwwLjMyOS0wLjAxOCwwLjY1OS0wLjAxMSwwLjk4OCYjMTA7JiM5OyYjOTtjMC4wMDMsMC4wODEsMC4wNiwwLjIxMSwwLjExNiwwLjIyN2MwLjA3NywwLjAyMSwwLjIxNy0wLjAxOCwwLjI2NS0wLjA3OWMwLjEyOS0wLjE3LDAuMjY4LTAuMzU0LDAuMzI3LTAuNTU2JiMxMDsmIzk7JiM5O2MwLjEyOS0wLjQyOCwwLjE4Ny0wLjg3NiwwLjMyMS0xLjMwMWMwLjA4OC0wLjI3NSwwLjIyOC0wLjU0NywwLjQwMy0wLjc3NWMwLjE5Mi0wLjI1LDAuMzg2LTAuMTk1LDAuNDU5LDAuMTExJiMxMDsmIzk7JiM5O2MwLjA2OCwwLjI4NiwwLjA5MywwLjU4MywwLjEzNiwwLjg3NWMwLjAxNSwwLjEwMSwwLjAxOCwwLjIwNSwwLjA0OSwwLjI5OWMwLjAyNSwwLjA4MSwwLjA4NCwwLjE0OCwwLjEyOCwwLjIyMyYjMTA7JiM5OyYjOTtjMC4wNjYtMC4wNjEsMC4xNjMtMC4xMDYsMC4xOTItMC4xODJjMC4wNjctMC4xNywwLjEzMy0wLjM1MywwLjE0MS0wLjUzMmMwLjAyMS0wLjM5Ni0wLjAxNi0wLjc5NSwwLjAxMy0xLjE4OSYjMTA7JiM5OyYjOTtjMC4wMTUtMC4yMSwwLjA4NS0wLjQzNCwwLjE4OC0wLjYxNmMwLjExNC0wLjIwMywwLjI5Ny0wLjE3OSwwLjM2LDAuMDQ4YzAuMDkxLDAuMzI0LDAuMTM2LDAuNjU5LDAuMjAyLDAuOTkmIzEwOyYjOTsmIzk7YzAuMDQ1LDAuMjI0LDAuMDkyLDAuNDQ3LDAuMTQ3LDAuNzIxYzAuMjY1LTAuMjI2LDAuMzI5LTAuNDc3LDAuMzU1LTAuNzJjMC4wNjgtMC42NDcsMC4xMDEtMS4yOTcsMC4xNTgtMS45NDUmIzEwOyYjOTsmIzk7YzAuMDQ0LTAuNDg2LDAuMjExLTAuOTEzLDAuNDk4LTEuMzI4YzAuNTIxLTAuNzU1LDAuOTgyLTEuNTU0LDEuNDQ4LTIuMzQ2YzAuMjQtMC40MDYsMC40NjItMC40NDMsMC42ODYtMC4wMjUmIzEwOyYjOTsmIzk7YzAuMjU0LDAuNDc1LDAuNDQzLDAuOTgyLDAuNjU4LDEuNDc5YzAuMDk0LDAuMjE3LDAuMTczLDAuNDM4LDAuMjcyLDAuNjUyYzAuMDQ2LDAuMTA0LDAuMTI0LDAuMTkyLDAuMTk1LDAuMyYjMTA7JiM5OyYjOTtjMC4yNTUtMC4xODUsMC4zMTYtMC40MjcsMC4yNjctMC42NjdjLTAuMDczLTAuMzYxLTAuMjA2LTAuNzEyLTAuMy0xLjA2OWMtMC4xMDEtMC4zOS0wLjIwOS0wLjc3OS0wLjI3LTEuMTc3JiMxMDsmIzk7JiM5O2MtMC4wMjMtMC4xNiwwLjA0OS0wLjM1MiwwLjEyMi0wLjUwN2MwLjEwMy0wLjIyNSwwLjI2Ny0wLjI1MiwwLjQ0My0wLjA3NmMwLjE3OSwwLjE3OCwwLjMxOCwwLjM5NSwwLjQ5MiwwLjU3NiYjMTA7JiM5OyYjOTtjMC4wOTksMC4xMDQsMC4yMzUsMC4xNjcsMC4zNTQsMC4yNDljMC4wNjctMC4xNDYsMC4yMDMtMC4yOTgsMC4xOTEtMC40MzhjLTAuMDI1LTAuMjk3LTAuMDk2LTAuNi0wLjIwNS0wLjg3OCYjMTA7JiM5OyYjOTtjLTAuMjIyLTAuNTY1LTAuNTIxLTEuMTAzLTAuNzEyLTEuNjc2Yy0wLjEzOC0wLjQxNi0wLjE2NC0wLjg3MS0wLjIwOS0xLjMxMmMtMC4wMTItMC4xMDgsMC4wNzgtMC4yOTksMC4xNjMtMC4zMyYjMTA7JiM5OyYjOTtjMC4wODktMC4wMzEsMC4yNjUsMC4wNTcsMC4zNDQsMC4xNDRjMC4zNjMsMC4zOTgsMC43MDQsMC44MTksMS4wNiwxLjIyOGMwLjA4NywwLjEwMiwwLjIwMywwLjE3NCwwLjMwNSwwLjI2MiYjMTA7JiM5OyYjOTtjMC4wMzUtMC4wMTgsMC4wNjgtMC4wMzIsMC4xMDMtMC4wNTFjLTAuMDM0LTAuMjMxLTAuMDI1LTAuNDgxLTAuMTA5LTAuNjk2Yy0wLjE0My0wLjM1Ny0wLjMyLTAuNzA4LTAuNTI0LTEuMDMzJiMxMDsmIzk7JiM5O2MtMC4zMjMtMC41MTctMC42OTItMS4wMDItMS4wMjMtMS41MTJjLTAuNjEyLTAuOTQzLTEuMDE3LTEuOTczLTEuMjcxLTMuMDY5Yy0wLjE4My0wLjc4OC0wLjQ0My0xLjU1OS0wLjY3MS0yLjMzNCYjMTA7JiM5OyYjOTtjLTAuMDI3LTAuMDk2LTAuMDYxLTAuMTg5LTAuMDY1LTAuMjk2YzAuMTk5LDAuMzE3LDAuMzkzLDAuNjQxLDAuNTk5LDAuOTU3YzAuNDMxLDAuNjY0LDAuOTI4LDEuMjc0LDEuNTk2LDEuNzE0JiMxMDsmIzk7JiM5O2MwLjMzNiwwLjIyLDAuNjk3LDAuNDE4LDEuMDczLDAuNTU2YzEuOTMzLDAuNzExLDMuODg3LDEuMzcyLDUuNzMsMi4yOTljMC41MjQsMC4yNjcsMS4wMjUsMC41ODgsMS41MDIsMC45MzYmIzEwOyYjOTsmIzk7YzAuNjAzLDAuNDM4LDAuODI2LDEuMDQ5LDAuNjQ2LDEuNzg5Yy0wLjEyNiwwLjUxNC0wLjI1MiwxLjAyNy0wLjM4MywxLjU2MmMtMC4zMTItMC40OTgtMC41ODctMC45NzgtMC45MDItMS40MjgmIzEwOyYjOTsmIzk7cy0wLjcwNC0wLjgzMi0xLjI4My0xLjA4OWMwLjA1MiwwLjA5OSwwLjA2NywwLjE0MiwwLjA5MywwLjE3N2MwLjgxMiwxLjExOSwxLjI4LDIuMzkxLDEuNjQyLDMuNzA4JiMxMDsmIzk7JiM5O2MwLjAzNywwLjEzNi0wLjAwNSwwLjMtMC4wMjksMC40NDdjLTAuMTY2LDAuOTYtMC4wODYsMS45MjItMC4wNDMsMi44ODVjMC4wMSwwLjE5MSwwLjAxLDAuMzktMC4wMTcsMC41OCYjMTA7JiM5OyYjOTtjLTAuMDExLDAuMDg4LTAuMDgzLDAuMTk4LTAuMTU4LDAuMjMxYy0wLjA1MSwwLjAyMy0wLjE4NC0wLjA0Ny0wLjIyOS0wLjEwOGMtMC4xODYtMC4yNjItMC4zOTQtMC41MTktMC41MTktMC44MDgmIzEwOyYjOTsmIzk7Yy0wLjUwMy0xLjE2OS0wLjk4NS0yLjM0OC0xLjQ2NS0zLjUyNGMtMC41OTgtMS40NjktMS4yNzItMi44OTUtMi4yOTktNC4xMjFjLTAuNDY0LTAuNTU1LTAuOTkzLTEuMDM4LTEuNjQyLTEuMzc1JiMxMDsmIzk7JiM5O2MtMC4xMjQtMC4wNjMtMC4yNTYtMC4xMTQtMC4zOTUtMC4xNThjMS4wMDUsMS4wMzksMS4yMzEsMi4zNTQsMS4yNzYsMy42OTljMC4wNTksMS43MjIsMC4wMjUsMy40NDgsMC4wNDIsNS4xNzImIzEwOyYjOTsmIzk7YzAuMDE4LDEuODY0LDAuMTcyLDMuNzEyLDAuNzI4LDUuNTA4YzAuMDIxLDAuMDcxLTAuMDE0LDAuMTc1LTAuMDUzLDAuMjQ2Yy0wLjE1NywwLjMwNi0wLjM1NiwwLjU5Mi0wLjQ4NiwwLjkwOCYjMTA7JiM5OyYjOTtjLTAuMjczLDAuNjYzLTAuNTAxLDEuMzQzLTAuNzY4LDIuMDFjLTAuMTU2LDAuMzkyLTAuMjA5LDAuNDIxLTAuNjI5LDAuMzkxYy0wLjQ1Mi0wLjAzMi0wLjcyMiwwLjIyNy0wLjk2MiwwLjU0OCYjMTA7JiM5OyYjOTtjLTAuMTgzLDAuMjQzLTAuMjU4LDAuMjM3LTAuMzg0LTAuMDQ4Yy0wLjEzNy0wLjMxLTAuMjQ1LTAuNjI5LTAuMzkzLTAuOTM0Yy0wLjA1MS0wLjEwNC0wLjE4MS0wLjE3Mi0wLjI3NS0wLjI1NiYjMTA7JiM5OyYjOTtjLTAuMDcyLDAuMTA2LTAuMTkyLDAuMjEtMC4yMDQsMC4zMjNjLTAuMDM5LDAuMzY5LTAuMDI5LDAuNzQxLTAuMDU1LDEuMTExYy0wLjAxMiwwLjE4NC0wLjAzNywwLjM3LTAuMDk5LDAuNTQyJiMxMDsmIzk7JiM5O2MtMC4wMywwLjA4MS0wLjE1NCwwLjE2OS0wLjI0MywwLjE3NmMtMC4wNjQsMC4wMDUtMC4xNzUtMC4xMDQtMC4yMDItMC4xODZjLTAuMDkxLTAuMjYzLTAuMTQ1LTAuNTM3LTAuMjI4LTAuODAyJiMxMDsmIzk7JiM5O2MtMC4wNjctMC4yMTMtMC4xNjItMC4yMzYtMC4yODktMC4wNjJjLTAuOTI1LDEuMjYtMi4xNTksMi4xNTMtMy40NzgsMi45NDdjLTAuMzg5LDAuMjM0LTAuNzcyLDAuNDc5LTEuMTU5LDAuNzE1JiMxMDsmIzk7JiM5O2MtMC4wMjctMC4wMDktMC4wNTQtMC4wMTktMC4wNzktMC4wMjZjMC4wNDktMC40MjksMC4xLTAuODU3LDAuMTQ5LTEuMjg1Yy0wLjAzNS0wLjAxOS0wLjA3LTAuMDM1LTAuMTA0LTAuMDUzJiMxMDsmIzk7JiM5O2MtMC4xMjIsMC4xMDQtMC4yNjIsMC4xOS0wLjM2NCwwLjMxMmMtMC4yNTcsMC4zMDMtMC40ODksMC42MjUtMC43NDksMC45MjdjLTAuNTE0LDAuNjA0LTEuMTYyLDEuMDM2LTEuNzg1LDEuMTc5JiMxMDsmIzk7JiM5O2MwLjE5Ny0wLjY3NSwwLjM4NS0xLjMxNCwwLjU3MS0xLjk1NWMtMC4wMjktMC4wMTUtMC4wNjEtMC4wMjctMC4wOS0wLjA0Yy0wLjA2NSwwLjA4LTAuMTQsMC4xNTQtMC4xOTMsMC4yNDEmIzEwOyYjOTsmIzk7Yy0wLjE1MSwwLjI0NS0wLjMsMC40ODktMC40MzgsMC43NDFjLTAuNTk0LDEuMDc1LTEuNTEsMS42OTUtMi43MTIsMS44NjhjLTAuODE4LDAuMTE4LTEuNjQ1LDAuMTk2LTIuNDY5LDAuMjUyJiMxMDsmIzk7JiM5O2MtMC42MDUsMC4wNDItMS4xODQsMC4xMzEtMS43MzgsMC4zOTZjLTAuMzg4LDAuMTc1LTAuODA0LDAuMjk1LTEuMjEyLDAuNDMxYy0wLjA2OSwwLjAyNC0wLjE1OS0wLjAwNS0wLjIzOS0wLjAxJiMxMDsmIzk7JiM5O2MwLjAwNi0wLjA4Ny0wLjAxMi0wLjE4OCwwLjAyMy0wLjI2YzAuMTkyLTAuMzc2LDAuNDAxLTAuNzQzLDAuNTk0LTEuMTE5YzAuMDcxLTAuMTM1LDAuMTE3LTAuMjg0LDAuMTczLTAuNDI3JiMxMDsmIzk7JiM5O2MtMC4wMTktMC4wMjEtMC4wMzctMC4wNC0wLjA1NS0wLjA2MWMtMC4xMjMsMC4wNDEtMC4yNTEsMC4wNjktMC4zNjYsMC4xMjVjLTAuNTMyLDAuMjU4LTEuMDcyLDAuNTAxLTEuNTg2LDAuNzkxJiMxMDsmIzk7JiM5O2MtMC41MjQsMC4yOTYtMS4xLDAuMzItMS42NjgsMC4zNjhjLTEuNzc1LDAuMTQ5LTMuNTI4LDAuMDMtNS4yNDMtMC40ODljLTEuMDQzLTAuMzE0LTIuMDA3LTAuNzg4LTIuODU1LTEuNTIxJiMxMDsmIzk7JiM5O2MwLjEwNywwLjAxMSwwLjIxNywwLjAxMSwwLjMyMSwwLjAzYzEuMDM2LDAuMjEzLDIuMDcyLDAuNDEzLDMuMTM4LDAuMzc4YzAuNzI1LTAuMDIzLDEuNDMyLTAuMTM5LDIuMDctMC41MDcmIzEwOyYjOTsmIzk7YzAuMTAxLTAuMDU4LDAuMTY2LTAuMTgsMC4yNDgtMC4yNzFjLTAuMTQzLTAuMDUtMC4yOTMtMC4xNDYtMC40My0wLjEyOGMtMC4zMzEsMC4wMzktMC42NTUsMC4xNjItMC45ODgsMC4xODkmIzEwOyYjOTsmIzk7Yy0xLjA2MiwwLjA5NS0yLjA4NC0wLjE1LTMuMDk1LTAuNDI5Yy0yLjQ0OC0wLjY3Mi00LjY2NS0xLjgxNS02LjcyNC0zLjI4NmMtMC41MDItMC4zNTctMS4wMjMtMC42ODgtMS41NDQtMS4wMiYjMTA7JiM5OyYjOTtjLTEuMDE2LTAuNjQ2LTEuODM5LTEuNDgxLTIuNDg5LTIuNDkyYy0wLjA3Ni0wLjEyLTAuMTQ3LTAuMjQ5LTAuMTk1LTAuMzgyYy0wLjEzMy0wLjM3LTAuMDM1LTAuNjc5LDAuMzE1LTAuODYzJiMxMDsmIzk7JiM5O2MwLjI0OS0wLjEzMiwwLjUyNy0wLjIyNiwwLjgwMy0wLjI5M2MzLjY1OS0wLjg5Miw2LjM4NC0zLjkwOCw2LjgwNi03LjYzOWMwLjE1OS0xLjM5OSwwLjM1NC0yLjgwMiwwLjI4NC00LjIyMSYjMTA7JiM5OyYjOTtjLTAuMTYxLTMuMjU3LTEuMzI4LTYuMDk1LTMuNTAyLTguNTE5Yy0xLjI5My0xLjQ0Mi0yLjgyMi0yLjU4OS00LjQ5NS0zLjU1NEMtMTguODU2LDEzLjEzNC0xOC44OTIsMTMuMTE5LTE4Ljk5LDEzLjA2OHoiIGZpbGw9InVybCgjU1ZHSURfMjJfKSIvPiYjeGE7ICAgIDxwYXRoIGQ9Ik0yNy44OTcsMzQuNjg5Yy0xLjU1NC0xMi4xMzgtNi45NDEtOS4zOTEtMTAuNDY1LTE2LjE2NyYjMTA7JiM5OyYjOTtjLTAuMTkzLDAuMjU2LTAuNjM3LTEuODE2LDAuMjUxLDIuMDMxYzAuODg5LDMuODUxLDMuNDM2LDIuMTEyLDUuODQ3LDYuNTE2QzI2LjU4MywzMi42MzYsMjUuOTczLDMzLjEzNSwyNy44OTcsMzQuNjg5eiIgZmlsbD0iIzhCNEZCQSIgb3BhY2l0eT0iMC4yIi8+JiN4YTsgICAgPHBhdGggZD0iTTExLjgwNCwzNC40NjFjLTAuNTc4LTMuNDc0LTUuNDktMy4zMTctOS42OTMtMS44NDMmIzEwOyYjOTsmIzk7Yy00LjU2OCwxLjYwMi0xNC4wNTcsMi4xMTYtMTQuODIxLDAuMjA1Yy0wLjM4MS0wLjQzOC0xLjE0NiwxLjM2My0xLjE0NiwxLjM2M3M3LjIwNyw3Ljg2MywxOS4yNzItMC40MzYmIzEwOyYjOTsmIzk7Yy0wLjQ5MSwwLjc2NCw0LjMzNiwzLDQuMzM2LDNTMTEuMjA0LDM3LjE5MSwxMS44MDQsMzQuNDYxeiIgZmlsbD0iI0ZGRkZGRiIgb3BhY2l0eT0iMC4zIi8+JiN4YTsgICAgPHBhdGggZD0iTS0xMy4xOTUsMS4xMDRjMC4yNjItMC42NSwyLjM5Ni0wLjIxMiwyLjU5NiwwLjgwMyYjMTA7JiM5OyYjOTtjLTMuMTQ4LDMuNTY2LDUuMTQsMTAuMTE5LTIuNTA0LDE4LjY3MkMtOC4xLDcuMzg0LTE4Ljc1LDYuODQ3LTEzLjE5NSwxLjEwNHoiIGZpbGw9IiM4QjRGQkEiIG9wYWNpdHk9IjAuMiIvPiYjeGE7ICAgIDxwYXRoIGQ9Ik0tMTMuMTk1LDEuMTA0YzAuMjYyLTAuNjUsMC4yMTUtMC40NjQsMC40MTUsMC41NTEmIzEwOyYjOTsmIzk7Yy0zLjE0OCwzLjU2Nyw1LjIzNyw4Ljc2OC0wLjMyMywxOC45MjRDLTguMSw3LjM4NC0xOC43NSw2Ljg0Ny0xMy4xOTUsMS4xMDR6IiBmaWxsPSIjOEI0RkJBIiBvcGFjaXR5PSIwLjYiLz4mI3hhOyAgICA8cGF0aCBkPSJNLTEuNzIzLDMuNzA4YzE1LjEyOCwxNS45MTktMy45OTcsMTMuMjUzLTEwLjIzLDI0LjA1OGMwLjAxMSwwLjE4NiwwLjAyNCwwLjM2NiwwLjAyNCwwLjU1NyYjMTA7JiM5OyYjOTtjMCwxLjUwMi0wLjM2NCwyLjkxNi0wLjk5OCw0LjE3YzUuODM0LTguNjUzLDIwLjYyNC0xLjAyMywxNy43NTEtMTguNzEyQzQuNTY1LDEyLjg3MSwyLjUwNywzLjkwNy0xLjcyMywzLjcwOHoiIGZpbGw9InVybCgjU1ZHSURfMjNfKSIvPiYjeGE7ICAgIDxwYXRoIGQ9Ik0tMS43MjMsMy43MDhjLTYuMjI5LTMuMDU3LTExLjY3NC0zLjE0Ni0xMS40MTYtMi4yMzljMTIuMzc1LDguMzk3LDIuMzg1LDE3LjA1LDAuMDU2LDI1LjIwMSYjMTA7JiM5OyYjOTtjMC4xNTksMC42NTgsMS4xNTQsMC45MDMsMS4xNTQsMS42NWMwLDAuMDgtMC4wMDksMC4xNTYtMC4wMTEsMC4yMzVjMC4xOC0wLjgwOSwwLjYwNi0xLjA5LDEuMDE0LTEuNSYjMTA7JiM5OyYjOTtDLTUuMTc0LDIxLjI1MywxMy4xMSwxOS4zMTQtMS43MjMsMy43MDh6IiBmaWxsPSJ1cmwoI1NWR0lEXzI0XykiLz4mI3hhOyAgICA8cGF0aCBkPSJNLTMuNjc0LDMuOTQ1YzkuNTgsMTQuMzA4LTguMzA0LDE3LjAyNi04LjE3NCwyMS41NjJjLTEuNDI1LTkuMzMsMTUuNzE3LTEzLjMyNC0wLjM4OS0yNC40OTEmIzEwOyYjOTsmIzk7Qy0xMi40OTUsMC4xMS05LjkwMywwLjg4OC0zLjY3NCwzLjk0NXoiIGZpbGw9IiNFNjUyNzEiLz4mI3hhOyAgICA8cGF0aCBkPSJNMjMuMDk0LDI4LjhjMC43NjEtMS4yNzEtMC4wODQtMi43NzEtMC45Ny00LjE3NmMtMC44MTgtMS4yOTgtMi43OTMtMC44NzMtNC4xMzMtNC4wMDImIzEwOyYjOTsmIzk7bDAuMTE1LDIuNDM4YzEuNDg1LDIuNTg3LTEuMDI3LDYuMTQ4LTEuNzI2LDguNTU1Yy0xLjE5LDQuMS0yLjQ4NCw3Ljg4My0wLjkwNywxMi4wNDNjMC4xMDcsMC4yNzksMC4xOTgsMC41ODUsMC4zMDYsMC44NzImIzEwOyYjOTsmIzk7YzAuNzg2LTAuNTgxLDEuMzgtMS4xNiwyLjA1Ny0yLjA0M2MwLjQ0Ny0wLjU4NiwwLjI5MSwxLjUxMiwwLjg3OSwxLjA3MWMwLjQzMi0wLjMxOS0wLjAyMS0xLjgwMywwLjM5MS0yLjE0NiYjMTA7JiM5OyYjOTtjMC40NjItMC4zOSwwLjc0LDEuODY4LDEuMDc1LDEuMzY4YzAuNzgxLTEuMTc0LDEuMjI5LTAuNDI5LDEuNTYyLTAuNzgxYzAuMzAxLTAuMzE5LDEuMDA1LTIuNzc4LDEuMjg5LTMuMTExJiMxMDsmIzk7JiM5O2MwLjI3OC0wLjMyMywwLjU0My0wLjY1NiwwLjgwNS0wLjk5MWMtMC4xNTgtMS43OS0wLjUwNi0zLjgwMi0xLjA4Mi01LjQxN0MyMi4yMTIsMzAuOTU0LDIyLjE4NiwzMC4zMTgsMjMuMDk0LDI4Ljh6IiBmaWxsPSJ1cmwoI1NWR0lEXzI1XykiLz4mI3hhOyAgICA8cGF0aCBkPSJNMS44LDQ3LjQ5YzAuMDQ2LTAuMDE3LDAuMDg2LTAuMDI0LDAuMTEtMC4wMjNjMC40MTksMC4wMDctMS4xMjksMS45NTQtMC42ODQsMS45NTQmIzEwOyYjOTsmIzk7YzAuNzUxLDAsMS44MTItMC43NzYsMi41NDctMC44MzNjMS41NTItMC4xMTksMy4xNjEtMC4wODQsNC41MzYtMC43MTNjMS4zMTgtMC42MDQsMS45MDQtMi40NzksMi4xOTktMi41NTgmIzEwOyYjOTsmIzk7YzAuMjk3LTAuMDgyLTAuNzE3LDIuMTY3LTAuNDI2LDIuMDY3YzAuNDkzLTAuMTY2LDAuODg3LTAuNDEsMS4yMTItMC42OGMxLjMtMS44NjEsMS43MjItMTEuMDg0LTAuMTg1LTEwLjg0NiYjMTA7JiM5OyYjOTtjLTIuMDA0LDAuMjUsMy4xNjEtMC43MDgsMy4xODItMC42MzFjMS43MjcsNi41MjEtMi4xMjEsMTAuNTMxLTEuOTQ3LDEwLjMwNWMwLjIyNy0wLjMsMC40MTEtMC41MzMsMC42MDYtMC42MDgmIzEwOyYjOTsmIzk7YzAuNDExLTAuMTU4LTAuMjU1LDEuNTcyLDAuMTIsMS4zNDNjMS4xOTMtMC43MjksMi4wMzktMS4yNDMsMi43MzQtMS43NjFjMC4wMjEtMC4wMywwLjAyNy0wLjEwMiwwLjA2MS0wLjA4OCYjMTA7JiM5OyYjOTtjMC41MTIsMC4yMTMsMy42NzIsMC45NTYsMS4yNjctMTAuMzk2YzMuNjUyLDcuMzkxLDAuNzkzLDEwLjI5MSwxLjA3Myw5Ljk4OGMxLjI5Ny0xLjQsMS41NjItNC44MTgsMS43MjktNi44NDUmIzEwOyYjOTsmIzk7YzAuMTU4LTEuOTAxLTEuMDM4LTYuMjM1LTIuNTg4LTcuNjY4Yy0xLjA5MS0xLjAwOC0xLjA2OSwwLjI0LTEuNDc5LDEuMjA0Yy0wLjY3MywxLjU4My0xLjkwNywyLjg1OS0zLjAyNyw0LjE2MyYjMTA7JiM5OyYjOTtjLTAuODM0LDAuOTctMS44NDYsMS42NzktMi43NjMsMi41NDdjLTAuOTk5LDAuOTQ2LTEuNTI1LDIuMjY4LTIuNDE4LDMuMzA2Yy0wLjc5OCwwLjkyOC0xLjc4LDEuNjY3LTIuNTM5LDIuNjM1JiMxMDsmIzk7JiM5O2MtMC44NTEsMS4wODQtMS40MjEsMi4zMjQtMi4zNjEsMy4zMjJDMi40Niw0Ni45OTQsMi4xMjYsNDcuMjM0LDEuOCw0Ny40OXoiIGZpbGw9IiNFNjUyNzEiLz4mI3hhOyAgICA8cGF0aCBkPSJNOC44MDMsNDguNTI2YzIuMjMyLDAuMDA3LDMuNjMzLTEuMDYyLDUuNDgtMi4wODRjMS41MzEtMC44NTEsMy40MTItMC44NTksNC43MDUtMi4wMzEmIzEwOyYjOTsmIzk7YzEuNzE3LTEuNTU5LDIuNDYtMy4xMDQsMi43ODMtNS4zODZjMC4zNjktMi41OTgsMC40MTMtNS45MS0wLjA3OC04LjQ5OWMtMC4yNTItMS4zMjgtMS4xOTYtNC4wNS0yLjE5MS01LjAyMWwtMS4xOTQsMC43NiYjMTA7JiM5OyYjOTtjLTIuMzU1LDYuMDgxLTkuNDUzLDguNTc2LTEyLjEzOSwxNC41NTNjLTAuNzkyLDEuNzU5LTEuMDksNC4wNDUtMS4xMDksNS45NjdDNS4wMzksNDguNzk3LDcuMTc3LDQ4LjUyMSw4LjgwMyw0OC41MjZ6IiBmaWxsPSJ1cmwoI1NWR0lEXzI2XykiLz4mI3hhOyAgICA8cGF0aCBkPSJNLTEzLjQwNiwzMy4zM2MtMS4yOTgsMi4wMTctMy4zNTMsMy41LTUuNzY3LDQuMDM5Yy0wLjYxNCwwLjEzNy0xLjcxNCwwLjUxOS0wLjYyNSwxLjgzJiMxMDsmIzk7JiM5O2MxLjE2NSwxLjgxOCwyLjgzOSwyLjUxNiwzLjc0LDMuMTg0YzMuNjIzLDIuNjksMi4xMjUsMi45NjUsNC4yMzksMy4yMDljMC44MjYsMC4wOTYsMC42MDgsMC4xNjgsMS4wMjcsMCYjMTA7JiM5OyYjOTtzLTAuMzIyLDAuMTE4LTAuNTg3LDAuMjkzYy0yLjM1OCwxLjU2MS0yLjE4OC0xLjU1My0xLjE3NC0wLjg4YzMuMDE4LDIuMzM0LDkuOTcsMy45NzIsMTEuOTE5LDMuNjM4JiMxMDsmIzk7JiM5O2MwLjI4NC0wLjA0OCwyLjI0My0xLjE4LDIuNTQzLTEuMTc1YzAuNDE5LDAuMDA3LTEuMTI5LDEuOTU0LTAuNjg0LDEuOTU0YzAuNzUxLDAsMS44MTItMC43NzYsMi41NDctMC44MzMmIzEwOyYjOTsmIzk7YzEuNTIxLTAuMTE3LDYuMTQ2LTIuMjM4LDYuMTEzLTcuODIyYy0wLjAxLTEuNzA2LDAuMDk1LTIuOTAyLTAuMTM1LTQuMDE1QzguMDY0LDI4LjU4NC05LjAwOSw0MC4wNDctMTMuNDA2LDMzLjMzeiIgZmlsbD0iI0Y2RThBMCIvPiYjeGE7ICAgIDxwYXRoIGQ9Ik03LjAzLDM4LjM2NWMtMC43OTEsMC45ODgtNS45MzMsMi43NjktNS45MzMsMi43NjlzLTguNTQsMi45NDMtMTYuNDE1LTUuNDM4JiMxMDsmIzk7JiM5O2M0LjAyNSwzLjE5NSwxMS4wOTgsMS44NTUsMTYuMjEzLDEuMjY1YzAuNjc2LTAuMDc5LTEuNDYxLDAuNjAzLTAuOTAxLDAuODFjMS45LDAuNzAzLDMuNjU5LTEuMjY3LDUuNTUzLTAuODg3JiMxMDsmIzk7JiM5O0M2LjQzLDM3LjA2MSw2Ljk2MSwzNy41NCw3LjAzLDM4LjM2NXoiIGZpbGw9IiNGRkZGRkYiLz4mI3hhOyAgICA8cGF0aCBkPSJNMC40OCwzOS43NDhjLTMuMTM2LDAuODI2LTYuMjcxLTAuMzgzLTYuODc1LTAuNDJjMC4yODQsMC40MjcsMC43NDcsMS40MTIsMy4wNywxLjc1MiYjMTA7JiM5OyYjOTtjMC41MzQsMC4wNzksMS42MDQtMC4wMDcsMi4xNjUtMC4wMDZjMS4wMDQsMC4wMDIsMS42MjctMC4yNCwyLjUxMy0wLjY2N2MwLjU2NS0wLjI3MiwxLjkzMS0wLjU2MiwyLjM2NS0wLjQ5NCYjMTA7JiM5OyYjOTtjMCwwLDQuODA2LTAuMzYyLDMuMjE0LTEuOTkyYy0xLjU5LTEuNjI5LTMuOTEyLDIuMTAxLTkuMDA2LDAuOTA4Qy0yLjA3MywzOC45OTUtMC45MDksMzkuODI2LDAuNDgsMzkuNzQ4eiIgZmlsbD0iI0Y2RThBMCIvPiYjeGE7ICAgIDxnPiYjeGE7ICAgICAgPHBhdGggZD0iTS00LjI3NCw0Ni41MDdjLTEuOTgyLDEuMzEyLTUuNDQ3LDAuMTg3LTUuODk3LDAuMTkzYy0wLjAxLDAuMDQ2LDAuMDE3LDAuMDk3LDAuMDk4LDAuMTQ4JiMxMDsmIzk7JiM5OyYjOTtjMy4wMTksMi4zMzQsNy40OTIsMi4xMjYsOS40NDEsMS43OTJjMC4wMTUtMC4wMDIsMC4wMzYtMC4wMDksMC4wNTgtMC4wMTdjMC4wMDktMC4wMDMsMC4wMjMtMC4wMDgsMC4wMzUtMC4wMTMmIzEwOyYjOTsmIzk7JiM5O2MwLjQyMi0wLjE2MiwxLjgwMS0wLjkzOSwyLjMwMy0xLjExYzIuOTM4LTEuNjY1LDcuNTgtNS4xODEsNy45ODktMTAuNzUxYy0xLjY2OSwwLjc0Mi0yLjg2OSwxLjQ2NS0zLjc5MSwyLjE2OSYjMTA7JiM5OyYjOTsmIzk7Yy0wLjMxLDAuMjM3LTcuMzMyLDcuNTc2LTI1LjkxNy0xLjI0MmMwLDAtMC41MTcsMC4yODQtMC4yMjIsMC45NDhjNC4xOTcsNi43NDQsMTEuODYsOC42ODEsMjQuMDYzLDIuMjk0JiMxMDsmIzk7JiM5OyYjOTtDMi4xNTYsNDIuOTgsMS4zMTcsNDQuODQ5LTQuMjc0LDQ2LjUwN3oiIGZpbGw9IiNGOEQyODUiLz4mI3hhOyAgICA8L2c+JiN4YTsgICAgPHBhdGggZD0iTTcuNjA2LDguNjA0YzYuODg0LDcuMDM5LDkuNjg5LDEyLjI5OCw2LjM1NywxNy45NjFDOC41NjcsMzUuNzQzLTguMDUxLDI2LjE3LTE1LjI3OCwzNS40MyYjMTA7JiM5OyYjOTtjMC43NjYtMC44NzUsMi4zOTQtMi42MDgsMy45NjktMy40NmM1LjM1Ny0zLjUsMTUuNDQtMi4zNzQsMTguNjUzLTUuMDhDMTEuNDc3LDIzLjQxLDEyLjUzMywxNi4zOTMsNy42MDYsOC42MDR6IiBmaWxsPSJ1cmwoI1NWR0lEXzI3XykiLz4mI3hhOyAgICA8cGF0aCBkPSJNLTE0LjgxOSwyMy4zMTZjLTAuMDA4LTAuNDcyLDEuMDcyLTMuMTk1LDAuOTAzLTMuODIyYy0xLjQ1LTUuMzUzLTcuNzM0LTcuOTc5LTcuNzM0LTcuOTc5JiMxMDsmIzk7JiM5O3MtNy4wMzctMi44MzItOC4xNTUtMTUuNzc2Yy0xLjI4NC0wLjkyNC0xLjEwNiwxLjA0My0xLjA2NiwxLjkxN0MtMzAuMDcyLDE0LjYzMi0xNS45NDksMTIuNzM0LTE0LjgxOSwyMy4zMTZ6IiBmaWxsPSJ1cmwoI1NWR0lEXzI4XykiLz4mI3hhOyAgICA8cGF0aCBkPSJNOS4xMjMtNC43MzVDOS4wMDctNC42ODIsOC44OTYtNC42MTIsOC43NzUtNC41NzdjLTAuNjE3LDAuMTcyLTEuMjM4LDAuMzMtMS44NTYsMC41MDYmIzEwOyYjOTsmIzk7QzYuNzI0LTQuMDE2LDYuNTM4LTMuOTI3LDYuMzQ3LTMuODU0QzYuMzQ4LTMuODEyLDYuMzUtMy43NzEsNi4zNTEtMy43M2MwLjIyMiwwLjA0LDAuNDQxLDAuMTEsMC42NjMsMC4xMTMmIzEwOyYjOTsmIzk7YzAuODg3LDAuMDEsMS43NzUtMC4wMDIsMi42NjMtMC4wMDRjMS4yNTMtMC4wMDMsMi41MTIsMC4wMDMsMy43MjEsMC4zNjljMC41OSwwLjE4LDEuMTY1LDAuNDUsMS43MDYsMC43NTEmIzEwOyYjOTsmIzk7YzUuNzEzLDMuMTgsOS43NSw3LjgzNCwxMi4xNzksMTMuODk1YzAuNDk3LDEuMjM5LDAuODc4LDIuNTIsMS4xNzIsMy44MmMwLjAxOCwwLjA3MiwwLjAyNiwwLjE0NywwLjA0OCwwLjI3MiYjMTA7JiM5OyYjOTtjLTAuMDk1LTAuMDU4LTAuMTU2LTAuMDg2LTAuMjEzLTAuMTIzYy0zLjQ5Ni0yLjM5NS03LjMxNC00LjAxOS0xMS40ODEtNC44MDhjLTEuNDg5LTAuMjgxLTIuOTk0LTAuNDIyLTQuNTA5LTAuNDY2JiMxMDsmIzk7JiM5O2MtMC4xMTQtMC4wMDMtMC4yNTgtMC4wNDYtMC4zMzMtMC4xMjRjLTIuMjY2LTIuMzExLTQuOTQyLTQuMDE5LTcuODMtNS40MzlDMS44MzQsMy4zOTMtMC41OTksMi43MDctMy4xLDIuMjIxJiMxMDsmIzk7JiM5O2MtMy4yMDctMC42MjMtNi40MjItMS4yMTUtOS42My0xLjgzMmMtMy45MzktMC43NTctNy44NTgtMS41OTgtMTEuNjY2LTIuODg2Yy0yLjQxNS0wLjgxNi00Ljc1Ni0xLjc5Ny02Ljg5Ni0zLjIwMiYjMTA7JiM5OyYjOTtjLTEuNjExLTEuMDYtMy4wNDUtMi4zMTItNC4wNTktMy45NzljLTAuMzU2LTAuNTg4LTAuNjA5LTEuMjM5LTAuOTE1LTEuODU4Yy0wLjA1Ni0wLjExMS0wLjExNi0wLjIyNy0wLjIwMi0wLjMxMiYjMTA7JiM5OyYjOTtjLTIuMTI0LTIuMDc3LTIuOTYtNC42MDQtMi42MzQtNy41MzZjMC4yNDItMi4xNjksMS4wMTgtNC4xNTMsMi4xMjctNi4wMmMwLjEzMS0wLjIxOSwwLjI0Mi0wLjQ0NywwLjM0NC0wLjY0JiMxMDsmIzk7JiM5O2MwLjA1MywwLjQ3MywwLjA5NSwxLjAwMywwLjE2OSwxLjUyOGMwLjQ2OSwzLjM0MSwyLjE5LDUuODI5LDUuMTE3LDcuNDkxYzEuNzAzLDAuOTcsMy41MzcsMS42MTEsNS40MzgsMi4wMzEmIzEwOyYjOTsmIzk7YzIuMDg0LDAuNDYsNC4xODYsMC44NDcsNi4yODcsMS4yMjhjMi41NTEsMC40NjEsNS4xMTYsMC44NDYsNy41OTYsMS42MjhjMC40ODIsMC4xNTEsMC45NTksMC4zMjYsMS40MzIsMC41MDYmIzEwOyYjOTsmIzk7YzAuNjEsMC4yMjksMS4xOCwwLjUyNCwxLjcxMSwwLjkxOGMxLjc1OCwxLjI5NSwzLjY4NCwyLjI4Nyw1LjcxNSwzLjA4MWMwLjA1NSwwLjAyMSwwLjEwOSwwLjA0NSwwLjE2MywwLjA2NiYjMTA7JiM5OyYjOTtDLTMtNy41NTktMi45OTktNy41NDgtMi45OTEtNy41MjVjLTAuMDMzLDAuMDAzLTAuMDYyLDAuMDA3LTAuMDkyLDAuMDA3Qy01LjM1NS03LjUyLTcuNjMtNy41MzItOS45MDItNy41MiYjMTA7JiM5OyYjOTtjLTIuMDMyLDAuMDEzLTQuMDU4LTAuMDUtNi4wNzQtMC4zMTVjLTIuNzkxLTAuMzctNS40OTItMS4wOTMtOC4xMjItMi4wOTRjLTMuMTAzLTEuMTg0LTYuMDQtMi42OTktOC44ODctNC4zOTkmIzEwOyYjOTsmIzk7Yy0wLjA3Ni0wLjA0Ni0wLjE1NS0wLjA5LTAuMjU3LTAuMTA4YzAuMDUzLDAuMDQzLDAuMTAzLDAuMDkxLDAuMTU1LDAuMTMxYzMuMTE3LDIuMzYzLDYuNDM2LDQuMzgxLDEwLjA5Nyw1Ljc5NiYjMTA7JiM5OyYjOTtjMi41NDksMC45ODMsNS4xODEsMS42MjksNy45MDEsMS45MTdjMi4zOTYsMC4yNTMsNC43OTMsMC4yMjksNy4xOTEsMC4wNTVjMi4wNzQtMC4xNTEsNC4xNDctMC4zMDIsNi4yMjItMC40NDQmIzEwOyYjOTsmIzk7YzAuMTgtMC4wMTUsMC4zNzMsMC4wMTEsMC41NDcsMC4wNjJjMi4wNTEsMC42MjQsNC4xNSwwLjk5MSw2LjI2OSwxLjI5MmMxLjI1MSwwLjE3OSwyLjQ4NiwwLjQ3OSwzLjcyNiwwLjcyNiYjMTA7JiM5OyYjOTtDOC45NTEtNC44ODQsOS4wMzEtNC44NCw5LjExMS00LjgwN0M5LjExNS00Ljc4NCw5LjExOS00Ljc2LDkuMTIzLTQuNzM1eiIgZmlsbD0idXJsKCNTVkdJRF8yOV8pIi8+JiN4YTsgICAgPHBhdGggZD0iTS0yOS4wNjEtMTEuNzI4YzguMTI0LDkuNzA1LDI5LjIwMiw0LjYxOCwzOC4xODQsNi45OTImIzEwOyYjOTsmIzk7QzMuNDM2LTguMDAzLTEuMTktNy40MzgtMS4xOS03LjQzOFMtMjAuNTk5LTUuMjk1LTI5LjA2MS0xMS43Mjh6IiBmaWxsPSIjRkZGRkZGIiBvcGFjaXR5PSIwLjIiLz4mI3hhOyAgICA8cGF0aCBkPSJNMzMuMDU2LDI1LjEwMWMtMC4yNzUtMC4wNDctMC40NzgtMC4wNi0wLjY2NC0wLjEyYy0wLjczMi0wLjIyOS0xLjQ5NS0wLjM5OS0yLjE4MS0wLjcyOSYjMTA7JiM5OyYjOTtjLTAuNjUzLTAuMzE1LTEuMjU4LTAuNzYyLTEuODI0LTEuMjIyYy0xLjA5Ny0wLjg5Mi0yLjE0NC0xLjg0MS0zLjIyNi0yLjc0NGMtMC44ODYtMC43MzktMS44MjctMS40LTIuOTQ3LTEuNzQzJiMxMDsmIzk7JiM5O2MtMC4zNjEtMC4xMS0wLjczNi0wLjE3My0xLjExNC0wLjIzNWMxLjQ2LDAuNzM1LDIuMjc3LDIuMDQ1LDMuMTI0LDMuMzg5Yy0wLjA3Mi0wLjAxMy0wLjA5OC0wLjAxLTAuMTE3LTAuMDE5JiMxMDsmIzk7JiM5O2MtMi4yMjYtMS4wODktNC40MDctMi4yNTItNi4zODgtMy43NTljLTAuNTI5LTAuNDAzLTAuOTQ2LTAuODYxLTEuMjQ0LTEuNDg2Yy0wLjQ3Ni0wLjk5NC0xLjA3OS0xLjkyOS0xLjYyNy0yLjg4NyYjMTA7JiM5OyYjOTtjLTAuMDI0LTAuMDQzLTAuMDUtMC4wODUtMC4xMTctMC4yYzAuNDgsMC4xMDEsMC45LDAuMTY4LDEuMzEyLDAuMjczYzEuNzQ0LDAuNDQ2LDMuMzY2LDEuMjAxLDQuOTU4LDIuMDIxJiMxMDsmIzk7JiM5O2MyLjQ4NywxLjI4Nyw0Ljg1MywyLjc3NSw3LjE1MSw0LjM3MmMwLjA2OSwwLjA0OCwwLjE0LDAuMDk0LDAuMjMyLDAuMTIyYy0wLjAyMS0wLjAyOS0wLjAzOC0wLjA2MS0wLjA2My0wLjA4NSYjMTA7JiM5OyYjOTtjLTIuNzI1LTIuNzE3LTUuNzgxLTQuOTU1LTkuMzUzLTYuNDM4Yy0xLjU0NS0wLjY0NC0zLjE0Ni0xLjA3My00LjgxMy0xLjI0NmMtMC4wNjItMC4wMDktMC4xNDMtMC4wMjgtMC4xNzgtMC4wNzEmIzEwOyYjOTsmIzk7Yy0wLjM3MS0wLjQ0OS0wLjczMy0wLjkwMy0xLjE0My0xLjQxYzEuMDE2LDAuMjE4LDEuOTczLDAuNDA5LDIuOTI0LDAuNjNjMi42NiwwLjYxOCw1LjI2OCwxLjQwMyw3Ljc1OSwyLjUzNSYjMTA7JiM5OyYjOTtjMS44NCwwLjgzNiwzLjU5MywxLjgxOSw1LjA3LDMuMjE3YzEuOTQ4LDEuODQ2LDMuMzgyLDQuMDMsNC4yMTgsNi41ODhDMzIuOTI4LDI0LjIyOSwzMi45NjYsMjQuNjM3LDMzLjA1NiwyNS4xMDF6IiBmaWxsPSIjRTY1MjcxIi8+JiN4YTsgICAgPHBhdGggZD0iTS0xMi45NjMsMC4zOTljMC43ODksMC4yNjUsMS42ODgsMC41OTMsMi42NDcsMC45NjEmIzEwOyYjOTsmIzk7QzAuOTksNC44ODYsNC43MjYsNy44MjUsNC43MjYsNy44MjVsMTEuMzU3LDguNDA4YzAsMCwxLjg1Ni0xLjQyMSw0LjI1OCwwLjQzN2MtMS42MzctMS45NjUtNi42Ni0zLjQ5NC02LjY2LTMuNDk0JiMxMDsmIzk7JiM5O3MtMC4yMzItMS41NDYtMS44Ny0yLjc0N2M0LjQ3LDEuNTE5LDExLjk3OSwxLjA4NCwxNy4xODksNS43NzVjLTMuOTQtMTEuMTQ0LTEzLjcyNS0yLjY0OS0yMy4xODItOS41OCYjMTA7JiM5OyYjOTtDNC43MjYsNS45NjktOS42OTgsMi4yODItMi41MywyLjUzNUM0LjYzNywyLjc4Nyw5LjM2LTIuMTA0LDE1LjM0Ny0wLjUwMUM5LjcyNy0yLjUzOSw0Ljc2MSwwLjcyNy0zLjA2NywxLjI3NiYjMTA7JiM5OyYjOTtjMS4yMTgtMC4yNDQsMi44ODctMC45MTUsMy41OTgtMS44MzJDLTIuMzA3LDEuNDctNy44NjEsMS41NjMtOS4xOCwxLjFDLTEwLjM3OSwwLjk0OC0xMS42MzgsMC43Mi0xMi45NjMsMC4zOTl6IiBmaWxsPSIjOEI0RkJBIiBvcGFjaXR5PSIwLjYiLz4mI3hhOyAgICA8cGF0aCBkPSJNMTQuMTU1LTMuMDM4Yy04LjIzNy0zLjI3Mi0zNy4zNSw2LjIwNi01MC40MjEtOC40OTgmIzEwOyYjOTsmIzk7YzAsMC0wLjk3OSwwLjQzOCw0LjIyNiw2LjI3M0MtMTEuNTcyLDQuNTIxLDMuNjYxLTQuNzMxLDE0LjE1NS0zLjAzOHoiIGZpbGw9IiMyQjJCMkIiIG9wYWNpdHk9IjAuMiIvPiYjeGE7ICAgIDxwYXRoIGQ9Ik0yNi44OTEsOS45OTZjMi40MzcsMS4zNzEsMC40NTctMS45OC0xLjk3OS0zLjk1OSYjMTA7JiM5OyYjOTtjLTkuNTk0LTYuNy0xMy45MzMsMC45MjQtMjMuNDQ4LTIuNzQ1QzE2LjAyMywxMS4zMTcsMTcuNDQ5LDEuMzE2LDI2Ljg5MSw5Ljk5NnoiIGZpbGw9InVybCgjU1ZHSURfMzBfKSIgb3BhY2l0eT0iMC43Ii8+JiN4YTsgICAgPHBhdGggZD0iTTI2LjE0Niw4LjA5NGMyLjQzOCwxLjM3MSwxLjIwMi0wLjA3OC0xLjIzNC0yLjA1OCYjMTA7JiM5OyYjOTtjLTkuNTk0LTYuNy0xMy45MzMsMC45MjQtMjMuNDQ4LTIuNzQ1QzEwLjgzMSw4LjUwMywxNi43MDUtMC41ODUsMjYuMTQ2LDguMDk0eiIgZmlsbD0iIzhCNEZCQSIgb3BhY2l0eT0iMC4yIi8+JiN4YTsgICAgPGc+JiN4YTsgICAgICA8cGF0aCBkPSJNLTIxLjIyLDExLjY4NyYjMTA7JiM5OyYjOTsmIzk7Yy00LjQzOC00LjA2Mi0wLjk1OC0xMi45NTctMC45NTgtMTIuOTU3bC0zLjE1OS0wLjY3N0MtMjUuMzM3LTEuOTQ3LTI4LjUyNSw2LjY1Mi0yMS4yMiwxMS42ODd6IiBmaWxsPSJ1cmwoI1NWR0lEXzMxXykiIG9wYWNpdHk9IjAuNyIvPiYjeGE7ICAgICAgPHBhdGggZD0iTS0xMy41NiwxOC41MDFjMy4zNDUtNS45NTMtNS41MjYtMTQuMTQyLTAuNzYyLTE3LjA0MSYjMTA7JiM5OyYjOTsmIzk7Yy0wLjA3Ni0wLjM5MS0yLjcyNC0xLjcxOS0yLjYtMS4zMzVjLTUuODc5LDkuMDIxLDMuODE3LDExLjE3MiwyLjU0NCwxNi44MTJjLTYuNzk5LTkuMjc1LTYuODcyLTExLjExMS0zLjU2OS0xNi45ODMmIzEwOyYjOTsmIzk7JiM5O2MtMC4wNDEtMC4wMzItMC40MDQtMC41MDYtMC43NjUtMC4yMzZDLTIzLjg3NywzLjU5MS0yNS4zMzEsNy45NDItMTMuNTYsMTguNTAxeiIgZmlsbD0idXJsKCNTVkdJRF8zMl8pIiBvcGFjaXR5PSIwLjciLz4mI3hhOyAgICA8L2c+JiN4YTsgICAgPHBhdGggZD0iTS0yLjYyOSw2LjQwM2MwLjIxMi0yLjc4OCwyLjE1OSwxLjc0MSwyLjQ1NCw0Ljg2NyYjMTA7JiM5OyYjOTtjMC4yNTQsMTEuNjk4LTExLjYwNyw4Ljg2OS0xMi4xNDksMTguMzMzQy0xMy40NzgsMTguODM3LTAuNjQzLDE5LjA3My0yLjYyOSw2LjQwM3oiIGZpbGw9IiM4QjRGQkEiIG9wYWNpdHk9IjAuMiIvPiYjeGE7ICAgIDxwYXRoIGQ9Ik04Ljg3MSwxMS4wNDNjMC4yMS0yLjc4OCw1LjgwOCw0LjM4OCw2LjEwNCw3LjUxMyYjMTA7JiM5OyYjOTtDMTMuMDk3LDM4LjYyNy03LjU2MSwyNi40Mi0xMi45NjIsMzMuODE0Qy04LjUwMSwyNS43MTUsMjAuMzc0LDM2Ljk4NCw4Ljg3MSwxMS4wNDN6IiBmaWxsPSIjRkZGRkZGIiBvcGFjaXR5PSIwLjMiLz4mI3hhOyAgICA8cGF0aCBkPSJNNDYuNjY5LTI4LjAzOGMtMC4zMDMtMC4yNjYtMC41NTItMC41MDgtMC44MjYtMC43MThjLTAuMjItMC4xNjctMC40NjEtMC4zMTUtMC43MDktMC40MzgmIzEwOyYjOTsmIzk7Yy0wLjYwNC0wLjI5Mi0xLjIxMi0wLjMzLTEuODIzLTAuMDA2Yy0wLjk1MSwwLjUwNC0xLjk3MSwwLjU0Mi0zLjAxMiwwLjQyOGMtMC4zMDMtMC4wMzItMC41MDEtMC4xNzYtMC42NC0wLjQ1OSYjMTA7JiM5OyYjOTtjLTEuMDQzLTIuMTQ2LTIuNzgxLTMuNTI0LTQuOTU4LTQuMzk2Yy0wLjI0OS0wLjEtMC4zNjYtMC4yMTYtMC40MS0wLjQ4N2MtMC4xMTEtMC42ODMtMC4xNTctMS4zNTUsMC4wMDUtMi4wMzYmIzEwOyYjOTsmIzk7YzAuMjYzLTEuMDg5LDAuOTQxLTEuODcsMS44NTMtMi40NzFjMC45NTYtMC42MywyLjAyMS0xLjAwMSwzLjEyMi0xLjI3N2MxLjMyMy0wLjMyNywyLjY2Mi0wLjU0OCw0LjAyOS0wLjU0NCYjMTA7JiM5OyYjOTtjMC42OTUsMC4wMDEsMS4zODIsMC4wODIsMi4wNSwwLjI4NGMxLjQ5MywwLjQ1MSwyLjQxNCwxLjQ0OCwyLjc1MywyLjk1NWMwLjIxOSwwLjk3OSwwLjQyNiwxLjk2OCwwLjUyNiwyLjk2MyYjMTA7JiM5OyYjOTtjMC4yMjksMi4yODEtMC4zODIsNC4zMjgtMS44ODksNi4wODRDNDYuNzEzLTI4LjEyMiw0Ni42OTUtMjguMDgxLDQ2LjY2OS0yOC4wMzh6IiBmaWxsPSJ1cmwoI1NWR0lEXzMzXykiLz4mI3hhOyAgICA8Zz4mI3hhOyAgICAgIDxwYXRoIGQ9Ik00Mi4zNTUtMjguMjA3YzAuMTEzLTAuNjg1LDEuMzk5LTAuODcxLDEuOTk2LTAuODUxJiMxMDsmIzk7JiM5OyYjOTtjMS4wNTEsMC4wMzUsMS43MzEsMC42NDgsMi40MTQsMS40NDRjMC4xMSwwLjEzLDAuMTk2LDAuMjU4LDAuMjcxLDAuMzg5YzEuMTktMC45NDksMS44NTUtMi4yMzQsMS42NzItMy41NDUmIzEwOyYjOTsmIzk7JiM5O2MtMC4zMjQtMi4zMS0zLjE2OS0zLjgxNy02LjM1Mi0zLjM3Yy0yLjIwMSwwLjMxLTMuOTg4LDEuNDc1LTQuNzcyLDIuOTI4YzAuNTgyLDAuNzQ0LDAuODEsMS42ODksMS41NzcsMi4zMzMmIzEwOyYjOTsmIzk7JiM5O0MzOS45MDgtMjguMjU1LDQxLjM4NC0yOC4xNjUsNDIuMzU1LTI4LjIwN3oiIGZpbGw9IiNGNkU4QTAiIG9wYWNpdHk9IjAuMyIvPiYjeGE7ICAgIDwvZz4mI3hhOyAgICA8cGF0aCBkPSJNLTM1LjA0NS02LjQ4NmMwLjY4OS0wLjM0LDEuMTY5LTAuNDE0LDEuNTk2LTAuMjZjLTAuNDkxLDIuNS0wLjc0OCw1LjAyMS0wLjY2MSw3LjU1OCYjMTA7JiM5OyYjOTtjMC4wOTgsMi44MDgsMC41ODQsNS41NDIsMS44MTYsOC4xMDJjMC4xNTYsMC4zMjUsMC4zMzcsMC42NCwwLjU0OSwwLjk0Yy0wLjAxMy0wLjA1LTAuMDIxLTAuMTAxLTAuMDQtMC4xNDcmIzEwOyYjOTsmIzk7Yy0wLjY2My0xLjY2NS0wLjk2OS0zLjQwMy0xLjA3LTUuMTg3Yy0wLjE1Ny0yLjc4LDAuMTctNS41MTYsMC43NzEtOC4yMjVjMC4wMTQtMC4wNjYsMC4wMzQtMC4xMywwLjA2MS0wLjIyNiYjMTA7JiM5OyYjOTtjMC4zOTMsMC4yNjQsMC43NzYsMC41MTYsMS4xNDksMC43ODFjMC4wNDUsMC4wMzMsMC4wNDYsMC4xNTQsMC4wMzYsMC4yMzFjLTAuMTkxLDEuNjQ1LTAuMTc3LDMuMjg5LDAsNC45MzQmIzEwOyYjOTsmIzk7YzAuMjU0LDIuMzUsMC44MzQsNC42MTUsMS42NjEsNi44MjFjMS4xNTMsMy4wOCwyLjcxNCw1Ljk0LDQuNjIyLDguNjEzYzAuMDQ0LDAuMDYyLDAuMDg5LDAuMTI0LDAuMTMxLDAuMTg3JiMxMDsmIzk7JiM5O2MwLjAwOSwwLjAxNCwwLjAwOCwwLjAzMSwwLjAyMSwwLjA4MmMtMC4yNzgtMC4wOTgtMC41MzgtMC4xODctMC43OTgtMC4yODFjLTEuNzU2LTAuNjM2LTMuNDc2LTEuMzU0LTUuMTMyLTIuMjIyJiMxMDsmIzk7JiM5O2MtMC4yNTktMC4xMzQtMC41MDktMC4zMDMtMC43MjgtMC40OTZjLTIuMzMxLTIuMDY0LTMuNzA1LTQuNjc0LTQuMzI2LTcuNzAxYy0wLjA5My0wLjQ1LTAuMTU5LTAuOTA4LTAuMjg0LTEuMzYmIzEwOyYjOTsmIzk7YzAuMDI4LDAuNTAyLDAuMDQxLDEuMDA2LDAuMDg1LDEuNTA4YzAuMjA4LDIuMzg5LDAuNjU1LDQuNzM0LDEuNDYsNi45OTdjMC4yMDUsMC41NzUsMC4wNjIsMS4wOTQtMC4wMjUsMS42MzQmIzEwOyYjOTsmIzk7Yy0wLjAyNywwLjE2OC0wLjE0NiwwLjMyMi0wLjIyNCwwLjQ4M2MtMC4xMjktMC4xMjUtMC4yODgtMC4yMy0wLjM4MS0wLjM3OGMtMC42NjItMS4wNTMtMS4wODgtMi4yMDktMS40MzgtMy4zOTUmIzEwOyYjOTsmIzk7Yy0wLjUzNS0xLjgxNC0wLjg1NC0zLjY4LTEuMTE3LTUuNTU0Yy0wLjI0NC0xLjc1LTAuNC0zLjUxLTAuMzkyLTUuMjc5YzAuMDA5LTEuNzg5LDAuMTQ2LTMuNTYyLDAuNzQxLTUuMjcmIzEwOyYjOTsmIzk7YzAuMjgzLTAuODEyLDAuNjY0LTEuNTczLDEuMjEzLTIuMjM4YzAuMTk2LTAuMjM4LDAuNDM3LTAuNDQxLDAuNjU2LTAuNjYxQy0zNS4wNzYtNi40OTEtMzUuMDYxLTYuNDg5LTM1LjA0NS02LjQ4NnoiIGZpbGw9InVybCgjU1ZHSURfMzRfKSIvPiYjeGE7ICAgIDxwYXRoIGQ9Ik0tMjYuOTM1LDE3LjY1NGMwLDAtNC40NDYtMC42MjUtNi4zMjEtMy42ODMmIzEwOyYjOTsmIzk7Yy0xLjg3Ni0zLjA1Ni0yLjQxNS04LjMxMi0yLjQxNS04LjMxMnMtMC45Ni03LjgzOSwyLjIyMi0xMi40MDRDLTM1LjQ2NSw5Ljk5NS0yNi45MzUsMTcuNjU0LTI2LjkzNSwxNy42NTR6IiBmaWxsPSIjMkIyQjJCIiBvcGFjaXR5PSIwLjIiLz4mI3hhOyAgICA8cGF0aCBkPSJNLTM1LjA0NS02LjQ4NmMtMC4wMTYtMC4wMDMtMC4wMzEtMC4wMDUtMC4wNDctMC4wMDdjLTAuOTE3LDAuMzU4LTEuNjM0LDAuOTc1LTIuMjE5LDEuNzUmIzEwOyYjOTsmIzk7Yy0wLjg1MywxLjEzLTEuMzAyLDIuNDM3LTEuNTc4LDMuODA0Qy0zOS4zLDEuMDk5LTM5LjMzNSwzLjE1OS0zOS4xNiw1LjIyYzAuMSwxLjE3NywwLjI3MywyLjM1LDAuNDE1LDMuNTIxJiMxMDsmIzk7JiM5O2MwLjAwNSwwLjA0MiwwLjAwNiwwLjA4MywwLjAxLDAuMTY4Yy0wLjA3Mi0wLjA2Mi0wLjEyMy0wLjA5Ny0wLjE2NC0wLjE0Qy00Mi4zLDUuMjQ0LTQ0Ljg1NiwxLjE4NS00Ni41My0zLjQyMiYjMTA7JiM5OyYjOTtjLTAuMDQ0LTAuMTItMC4wMy0wLjI4MiwwLjAwOC0wLjQwOGMwLjk5OS0zLjE5NCwyLjQ0NS02LjE4Myw0LjIxNi05LjAxM2MwLjc0OC0xLjE5NCwxLjU3My0yLjM0LDIuMzY0LTMuNTA3JiMxMDsmIzk7JiM5O2MwLjA2Mi0wLjA5MiwwLjEzNC0wLjE3NSwwLjI0OC0wLjMyM2MwLjAyOCwwLjU4NywwLjM0MSwxLjA2MiwwLjEsMS42MzdjLTAuMzA5LDAuNzMzLTAuNTA4LDEuNTA0LTAuNDY3LDIuMzE2JiMxMDsmIzk7JiM5O2MwLjAxNiwwLjMsMC4wODgsMC41OCwwLjI5NiwwLjg1OGMwLjIwNy0wLjU4OCwwLjM2Ny0xLjE2NywwLjgyOC0xLjYxYzAuMTM1LDAuMjQxLDAuMTYyLDAuNDUxLDAuMDc3LDAuNzA5JiMxMDsmIzk7JiM5O2MtMC4zMjEsMC45NTgtMC41NDQsMS45MzctMC40ODMsMi45NTZjMC4wMTksMC4zMTIsMC4wOSwwLjYxOSwwLjE3NSwwLjkzM2MwLjI3OS0wLjc2NSwwLjc0LTEuMzkxLDEuMjczLTEuOTkyJiMxMDsmIzk7JiM5O2MwLjAzMSwwLjA0NiwwLjA1OSwwLjA3NiwwLjA3NiwwLjExMmMwLjcxMSwxLjQ3LDEuNjIyLDIuODA1LDIuNzA3LDQuMDIzQy0zNS4wNjMtNi42NzMtMzUuMDY2LTYuNTY4LTM1LjA0NS02LjQ4NnoiIGZpbGw9InVybCgjU1ZHSURfMzVfKSIvPiYjeGE7ICAgIDxwYXRoIGQ9Ik0tMzguNDg1LTEwLjQwNmMwLDAtNSw5Ljc4NS0yLjY2LDE4LjE4OCYjMTA7JiM5OyYjOTtjMC4yOTEsMC4yMy0wLjQ2OS0wLjM2My0xLjM3NC0xLjQwNGMtMC4xMzgtMC4xNTgtMS44MTUtMTEuMjU0LDEuNTg4LTE2LjE0NmMtNC41NzQsNS40MjYtMi40MDgsMTUuMTIxLTIuNjAxLDE0LjgzOCYjMTA7JiM5OyYjOTtjLTAuNDA5LTAuNjA0LTAuNzc2LTEuMjcxLTEuMDE4LTEuOTY4Yy0yLjMzOS0xMC45NTYsNS43NDUtMTcuNTUsNS43NDUtMTcuNTVMLTM4LjQ4NS0xMC40MDZ6IiBmaWxsPSIjMkIyQjJCIiBvcGFjaXR5PSIwLjIiLz4mI3hhOyAgICA8cGF0aCBkPSJNMzguMDMxLTQ1LjYzNWMtMC4yMDctMC4zMTQtMC40NDYtMC42My0wLjYzNi0wLjk3OGMtMC4xNzUtMC4zMTYtMC4yMS0wLjY3Ni0wLjA5NC0xLjAzMiYjMTA7JiM5OyYjOTtjMC4xNDMtMC40NCwwLjQzOC0wLjYwOSwwLjg5NS0wLjU0NWMwLjM2NywwLjA1NiwwLjczNSwwLjExMiwxLjEwNCwwLjEyNGMwLjM5MiwwLjAxMywwLjQyLTAuMDQsMC40NjQtMC40MjEmIzEwOyYjOTsmIzk7YzAuMDExLTAuMTAxLDAuMDI0LTAuMjA1LDAuMDYxLTAuMjk3YzAuMTQ4LTAuMzc3LDAuMzY3LTAuNzAyLDAuODA1LTAuNzZjMC40MjUtMC4wNTYsMC43MjQsMC4xODIsMC45NTQsMC41MDkmIzEwOyYjOTsmIzk7YzAuNjg1LDAuOTcsMC4xMTcsMi4yODEtMS4wNzMsMi40MzljLTAuMzY5LDAuMDQ5LTAuNzU0LTAuMDExLTEuMTMyLTAuMDIxYy0wLjA3My0wLjAwMy0wLjE0NS0wLjAxNi0wLjIxOC0wLjAyMiYjMTA7JiM5OyYjOTtjLTAuMDE4LDAuMDIxLTAuMDM2LDAuMDQ1LTAuMDU1LDAuMDY2YzAuMTAyLDAuMTE5LDAuMTgxLDAuMjc3LDAuMzA5LDAuMzUyYzAuMjcyLDAuMTUzLDAuNTYyLDAuMjE2LDAuODk2LDAuMTc4JiMxMDsmIzk7JiM5O2MyLjAzNy0wLjIzMywzLjk4LDAuMDA4LDUuNzA4LDEuMjI5YzAuOTU5LDAuNjc5LDEuNjY3LDEuNTcsMi4yMDksMi42MDRjMC4wMDMsMC4wMDcsMC4wMSwwLjAxNCwwLjAxMywwLjAyMSYjMTA7JiM5OyYjOTtjMC4wNjgsMC4xODgsMC4yMDcsMC40MTcsMC4wMjIsMC41NmMtMC4xMDgsMC4wODQtMC4zNTQsMC4wNDctMC41MTctMC4wMDZjLTAuNzYxLTAuMjUtMS41LTAuNTY3LTIuMjctMC43NzcmIzEwOyYjOTsmIzk7Yy0xLjEyNi0wLjMwOC0yLjI5Mi0wLjMxOC0zLjQ1LTAuMjU1Yy0xLjU2NSwwLjA4NC0zLjEwMywwLjMzMy00LjU4MSwwLjg4OGMtMS42NTcsMC42MjItMy4xNTIsMS41LTQuNDQ5LDIuNzA5JiMxMDsmIzk7JiM5O2MtMC4xNDksMC4xNC0wLjMsMC4yNzctMC40NjcsMC4zOWMtMC4yODMsMC4xODgtMC40NzYsMC4wOTUtMC40ODctMC4yNDdjLTAuMDA4LTAuMjQyLDAuMDE2LTAuNDkxLDAuMDcxLTAuNzI5JiMxMDsmIzk7JiM5O2MwLjU1NC0yLjQxNywyLjAyMS00LjExNyw0LjE4OC01LjI0QzM2Ljg2OC00NS4xOTMsMzcuNDc4LTQ1LjQwMiwzOC4wMzEtNDUuNjM1eiIgZmlsbD0iI0U2NTI3MCIvPiYjeGE7ICAgIDxwYXRoIGQ9Ik0tNDguMDI1LTAuNjQ2Yy0wLjA4Ny04LjcyMSwyLjcxOC0xNi4yODksOC41NTgtMjIuNzE1Yy0wLjA4MiwwLjU5Mi0wLjE5MSwxLjE4NC0wLjI0MSwxLjc3NSYjMTA7JiM5OyYjOTtjLTAuMDgzLDEuMDA5LTAuMTM2LDIuMDIxLTAuMTg1LDMuMDM1Yy0wLjAxLDAuMjA2LTAuMDYyLDAuMzY5LTAuMTc4LDAuNTM0Yy0yLjE4NywzLjE1NS00LjE5Myw2LjQxOS01Ljc5Myw5LjkxOCYjMTA7JiM5OyYjOTtjLTAuODEyLDEuNzc1LTEuNTA2LDMuNTk4LTEuODc4LDUuNTIyQy00Ny44NjMtMS45NTUtNDcuOTI4LTEuMzI0LTQ4LjAyNS0wLjY0NnoiIGZpbGw9InVybCgjU1ZHSURfMzZfKSIvPiYjeGE7ICAgIDxwYXRoIGQ9Ik0yMy4yOTgsMjguMDMxYzEuMDQ2LDEuODA5LDIuMTI1LDMuNTUsMi41MDgsNS42MDFjMC4wNjQsMC4zNDMsMC4wNDQsMC43MDgsMC4wMjMsMS4wNjImIzEwOyYjOTsmIzk7Yy0wLjExNCwxLjk3OCwwLjA5MSwzLjkwOSwwLjczMiw1Ljc5M2MwLjA1NywwLjE2NywwLjEyNiwwLjM0MywwLjEyMiwwLjUxM2MtMC4wMDMsMC4xNDEtMC4wNzYsMC4zMDQtMC4xNywwLjQxNSYjMTA7JiM5OyYjOTtjLTAuMTIsMC4xNDEtMC4yODMsMC4wOTEtMC40MzcsMC4wMDNjLTAuNDkzLTAuMjc5LTAuODUxLTAuNjg5LTEuMTM4LTEuMTY2Yy0wLjU4NC0wLjk1OS0wLjg5NS0yLjAyMS0xLjExMi0zLjEwNiYjMTA7JiM5OyYjOTtjLTAuNTk1LTIuOTc1LTAuNjg1LTUuOTgzLTAuNTY4LTkuMDA3QzIzLjI1OSwyOC4xMjMsMjMuMjY5LDI4LjEwOSwyMy4yOTgsMjguMDMxeiIgZmlsbD0idXJsKCNTVkdJRF8zN18pIi8+JiN4YTsgICAgPHBhdGggZD0iTTIzLjkxNCwzOS41NTVjMC4xOSwwLjQwNCwwLjk3MiwxLjI4OCwxLjI4NiwxLjU0M2wwLjcwNywwLjQ1MSYjMTA7JiM5OyYjOTtjLTAuNzEtMS44MTItMC45NjUtMy42NTYtMC45NjUtNS41ODZjMC0xLjYyNiwwLjUwMS0zLjEzNiwwLjU4LTQuNzU0YzAuMDY0LTEuMzMzLTAuNTE3LTIuMDAzLTEuMjA5LTMuMDg4JiMxMDsmIzk7JiM5O2MtMC4zMTItMC40ODgtMC43MzgtMS41NDUtMS40MTYtMS41NDljLTAuMzE0LDAuNzcxLTAuMjYzLDEuNzM3LTAuMjcxLDIuNTYyYy0wLjAwOSwwLjk4Ny0wLjE2NywxLjk1LTAuMTI4LDIuOTQ3JiMxMDsmIzk7JiM5O0MyMi41NzIsMzMuOTYzLDIzLjU4OCwzOC44NjEsMjMuOTE0LDM5LjU1NXoiIGZpbGw9IiM4QjRGQkEiIG9wYWNpdHk9IjAuNCIvPiYjeGE7ICAgIDxwYXRoIGQ9Ik00OC4yNTYtMzguMzljLTAuMDMtMC4wMjQtMC4wNC0wLjAyOC0wLjA0My0wLjAzNGMtMC43NjktMS41ODEtMi4xMzYtMi4yNzEtMy43ODgtMi40MSYjMTA7JiM5OyYjOTtjLTIuNzI5LTAuMjMyLTUuMzQ3LDAuMjc5LTcuODMxLDEuNDIxYy0xLjA0NywwLjQ4Mi0xLjk0MywxLjE4Mi0yLjQ0NywyLjI1OGMtMC4yMTgsMC40NjUtMC4zMjQsMC45ODMtMC40ODcsMS40OTQmIzEwOyYjOTsmIzk7Yy0wLjU0MiwwLjAwMy0xLjE4Ny0wLjUzMy0xLjIzLTEuMTExYy0wLjAxNC0wLjE4OCwwLjA2NS0wLjM5OCwwLjE1LTAuNTc0YzAuMzQzLTAuNzA5LDAuODk0LTEuMjQ2LDEuNDk1LTEuNzMyJiMxMDsmIzk7JiM5O2MxLjU0NS0xLjI0NywzLjMxNC0yLjAzNCw1LjIzMi0yLjQ5OGMyLjUxOS0wLjYxLDUuMDM4LTAuNjI4LDcuNTMsMC4xMjdjMC41OSwwLjE3OSwxLjE0OSwwLjQ3OSwxLjY5NywwLjc3MSYjMTA7JiM5OyYjOTtjMC40MjQsMC4yMjcsMC42NCwwLjYxNSwwLjU3NywxLjEyQzQ5LjA0My0zOS4wMTQsNDguNzYxLTM4LjYyNCw0OC4yNTYtMzguMzl6IiBmaWxsPSIjRTY1MjcwIi8+JiN4YTsgICAgPHBhdGggZD0iTTQ4LjI1Ni0zOC4zOWMtMC4wMy0wLjAyNC0wLjA0LTAuMDI4LTAuMDQzLTAuMDM0JiMxMDsmIzk7JiM5O2MtMC43NjktMS41ODEtMi4xMzYtMi4yNzEtMy43ODgtMi40MWMtMi43MjktMC4yMzItNS4zNDcsMC4yNzktNy44MzEsMS40MjFjLTEuMDQ3LDAuNDgyLTEuOTQzLDEuMTgyLTIuNDQ3LDIuMjU4JiMxMDsmIzk7JiM5O2MtMC4yMTgsMC40NjUtMC4zMjQsMC45ODMtMC40ODcsMS40OTRjLTAuNTQyLDAuMDAzLTEuMTg3LTAuNTMzLTEuMjMtMS4xMTFjLTAuMDE0LTAuMTg4LDAuMDY1LTAuMzk4LDAuMTUtMC41NzQmIzEwOyYjOTsmIzk7YzAuMzQzLTAuNzA5LDAuODk0LTEuMjQ2LDEuNDk1LTEuNzMyYzEuNTQ1LTEuMjQ3LDMuMzE0LTIuMDM0LDUuMjMyLTIuNDk4YzIuNTE5LTAuNjEsNS4wMzgtMC42MjgsNy41MywwLjEyNyYjMTA7JiM5OyYjOTtjMC41OSwwLjE3OSwxLjE0OSwwLjQ3OSwxLjY5NywwLjc3MWMwLjQyNCwwLjIyNywwLjY0LDAuNjE1LDAuNTc3LDEuMTJDNDkuMDQzLTM5LjAxNCw0OC43NjEtMzguNjI0LDQ4LjI1Ni0zOC4zOXoiIGZpbGw9IiMyQjJCMkIiIG9wYWNpdHk9IjAuNCIvPiYjeGE7ICAgIDxnPiYjeGE7ICAgICAgPHBhdGggZD0iTTIwLjg1NS0xMy4yOTljLTAuMDE5LTAuOTc3LDAuMTg1LTEuODk2LDAuNjA2LTIuNzY4YzAuODUyLTEuNzUxLDIuMjU3LTIuODk2LDQuMDE3LTMuNjQ3JiMxMDsmIzk7JiM5OyYjOTtjMS41MzUtMC42NTYsMy4xNDYtMC44NzksNC44MDYtMC43OTNjMC4wMjEsMC4wMDEsMC4wNDIsMC4wMSwwLjExMywwLjAzMmMtMS4xNjEsMC4xNzktMi4yNDIsMC40NjgtMy4yODYsMC44ODUmIzEwOyYjOTsmIzk7JiM5O2MtMS44MSwwLjcyMy0zLjQwNiwxLjc1MS00LjY0NSwzLjI4NGMtMC42NjUsMC44Mi0xLjE2NiwxLjczMy0xLjUwOCwyLjczNUMyMC45MjgtMTMuNDc5LDIwLjg5LTEzLjM4OSwyMC44NTUtMTMuMjk5eiIgZmlsbD0iIzBEMEQwRCIvPiYjeGE7ICAgICAgPHBhdGggZD0iTTM0LjQxMSwwLjY4MmMxLjc4NywxLjA5MSwyLjE3MywzLjY1NCwxLjAyOCw1LjExOUMzNS43MDgsMy45NzEsMzUuMzM4LDIuMjcxLDM0LjQxMSwwLjY4MnoiIGZpbGw9IiMwRDBEMEQiLz4mI3hhOyAgICAgIDxwYXRoIGQ9Ik0zNy4zNTgtOS4zNzZjMC44NzQtMC43MTYsMS45MjUtMC45MTQsMy4wMjItMC44OTVjMC40MzgsMC4wMTEsMC44NzQsMC4wODMsMS4zMTIsMC4xMDQmIzEwOyYjOTsmIzk7JiM5O2MwLjIzNywwLjAxMSwwLjQ4NS0wLjAwNCwwLjcxOC0wLjA1NWMwLjQ0Mi0wLjEwMSwwLjYzOS0wLjAzMywwLjc5LDAuMzkxYzAuMzQyLDAuOTY3LDAuNTAzLDEuOTY5LDAuMzg4LDIuOTkmIzEwOyYjOTsmIzk7JiM5O0M0My41MzItNi4zNTEsNDMuNDMtNS44NDksNDMuMjM2LTUuNGMtMC43NjMsMS43ODMtMy4wNzMsMi41MTYtNC43ODQsMS41NDJjLTAuMjItMC4xMjUtMC40MjgtMC4yNzEtMC42MjUtMC40MzMmIzEwOyYjOTsmIzk7JiM5O2MtMC4yMDgtMC4xNjktMC4zOTYtMC4zNjUtMC42MTItMC41NjdjMC4wOTYtMC4xMTEsMC4xNzYtMC4yMTgsMC4yNjYtMC4zMTFjMC4yMDctMC4yMTIsMC4yODUtMC40NjMsMC4yMjItMC43NDUmIzEwOyYjOTsmIzk7JiM5O0MzNy41MDctNi44LDM3Ljg5LTcuNDI5LDM4LjYyOS03LjgzMmMwLjUyOC0wLjI4OCwxLjEwNi0wLjQ5NSwxLjY4MS0wLjY4N2MwLjI5Ni0wLjEwMSwwLjYwMS0wLjE3MywwLjkxMS0wLjIzNSYjMTA7JiM5OyYjOTsmIzk7YzAuMDk1LDAuMDAzLDAuMTM1LDAuMDE5LDAuMjA5LDAuMDc4YzAuNDYxLDAuMjk4LDAuNzkxLDAuNjg5LDAuOTk1LDEuMjAxYzAuMTEtMC4zMDIsMC4wODgtMC44MDQtMC4wMDktMS4xNzcmIzEwOyYjOTsmIzk7JiM5O2MtMC4wNi0wLjIzLTAuMDIxLTAuNzk0LDAuMDk2LTAuOTU4Yy0wLjAwOS0wLjAxLTAuMDE4LTAuMDIxLTAuMDI0LTAuMDNjLTAuMDU1LDAuMDI2LTAuMTA5LDAuMDU0LTAuMTYxLDAuMDg1JiMxMDsmIzk7JiM5OyYjOTtjLTAuNTkyLDAuMzYzLTEuMjU0LDAuNDc4LTEuOTI5LDAuNTYyYy0wLjgzNSwwLjEwNi0xLjY0NywwLjI5Ny0yLjM1OCwwLjc3OGMtMC44NTYsMC41NzktMS4zMTUsMS4zODQtMS4zNjQsMi40MTkmIzEwOyYjOTsmIzk7JiM5O2MtMC4wMDIsMC4wMzItMC4wMDcsMC4wNjItMC4wMTgsMC4xNDdDMzUuODg0LTcuMTYyLDM2LjEyMS04LjM2MSwzNy4zNTgtOS4zNzZ6IiBmaWxsPSIjMEQwRDBEIi8+JiN4YTsgICAgPC9nPiYjeGE7ICAgIDxwYXRoIGQ9Ik0zOC40OTEtNi4xMTljMC0wLjk0MSwwLjc2My0xLjcwNCwxLjcwMi0xLjcwNGMwLjk0MiwwLDEuNzA1LDAuNzYzLDEuNzA1LDEuNzA0JiMxMDsmIzk7JiM5O3MtMC43NjMsMS43MDQtMS43MDUsMS43MDRDMzkuMjU0LTQuNDE1LDM4LjQ5MS01LjE3OCwzOC40OTEtNi4xMTl6IiBmaWxsPSJ1cmwoI1NWR0lEXzM4XykiLz4mI3hhOyAgICA8dXNlIHhsaW5rOmhyZWY9IiNOZXdfU3ltYm9sXzIiIG92ZXJmbG93PSJ2aXNpYmxlIiB0cmFuc2Zvcm09Im1hdHJpeCgtMC4yMDEyIDAgMCAwLjIwMTIgMzkuMDUwOCAtNS4xMzA5KSIgeT0iLTMuNSIgeD0iLTMiIGhlaWdodD0iNyIgd2lkdGg9IjYiLz4mI3hhOyAgICA8cGF0aCBkPSJNNDYuMTA4LTM0LjgzYzAuMzAyLTAuMTg4LDAuNzczLTAuMTA4LDAuOTQ4LDAuMjI0YzAuNzI2LDEuMzgyLDAuNjYsMi45OTItMC4wNTEsNC4zNjYmIzEwOyYjOTsmIzk7Yy0wLjQwOCwwLjc4OC0xLjYzLDAuMTUyLTEuMjIzLTAuNjMzYzAuNDg1LTAuOTM5LDAuNTg0LTIuMDkzLDAuMTAxLTMuMDE0QzQ1LjcxLTM0LjIxNyw0NS43NzItMzQuNjIzLDQ2LjEwOC0zNC44M3oiIGZpbGw9IiNGRkZGRkYiLz4mI3hhOyAgICA8Zz4mI3hhOyAgICAgIDxwYXRoIGQ9Ik0tMjcuODc3LTM4LjgwOWMtMC40MywxMi4zMTksNy4xNjUsOC4zMTIsMTAuNTQ0LDEzLjUxMyYjMTA7JiM5OyYjOTsmIzk7YzAuMjc2LDAuMzI0LDAuNDM3LDAuNjg4LDAuNTYzLDAuOTdDLTIwLjU2My0yNi40MTQtMzEuMTk0LTI1LjAxOS0yNy44NzctMzguODA5eiIgZmlsbD0iIzQzMEExRCIgb3BhY2l0eT0iMC4yIi8+JiN4YTsgICAgPC9nPiYjeGE7ICAgIDxnPiYjeGE7ICAgICAgPHBhdGggZD0iTS0zMy42NjEtMTQuNzkzYzEwLjQzMSw4Ljk4LDMxLjAyNSw4LDMyLjUzMiw3Ljg3MyYjMTA7JiM5OyYjOTsmIzk7Yy04LjYzOC02LjE2MS0zNC41NTItMC4zNjktMzUuNTAyLTE5LjEyMkMtMzguMzE0LTIwLjcxNi0zNi4xNDctMTYuOTM0LTMzLjY2MS0xNC43OTN6IiBmaWxsPSIjMkIyQjJCIiBvcGFjaXR5PSIwLjIiLz4mI3hhOyAgICA8L2c+JiN4YTsgICAgPHBhdGggZD0iTS0xNi45ODgtMjQuODE1YzAsMC0wLjAwMS0yLjcyMiwwLTQuNjQ1JiMxMDsmIzk7JiM5O2MwLjAwMS0xLjkyMi0yLjQxNi0wLjg3NC0zLjM0OCwxLjc2NUMtMTguMDA3LTI2Ljc4Mi0xNi45ODgtMjQuODE1LTE2Ljk4OC0yNC44MTV6IiBmaWxsPSIjNDMwQTFEIiBvcGFjaXR5PSIwLjIiLz4mI3hhOyAgICA8cGF0aCBkPSJNLTE4LjI4LTI1LjcyOGMxLjc0NywzLjA4My0wLjA0OCw1Ljc1LTAuMzI3LDUuODY0JiMxMDsmIzk7JiM5O2MwLjk5MywwLjA1MiwyLjksMS45MTQsMy4zNTQsMi41MzRjMC43MSwwLjk3MSwwLjc1MywyLjM4MSwwLjgxMywzLjUzNGMxLjQwOSwwLjA2MywyLjQsMC45MjYsMy42ODIsMS4yMzImIzEwOyYjOTsmIzk7Yy0xLjA5LTEuMDIxLTIuNTY5LTIuMjI5LTMuMjMxLTMuNjA1Yy0wLjU4OS0xLjIyMi0xLjA4Ny0yLjYyOS0xLjQ4My0zLjkyOWMtMC4zMjMtMS4wNjUtMC42MjQtMi4xMjMtMC44MjQtMy4yMjImIzEwOyYjOTsmIzk7Yy0wLjE0OC0wLjgxOC0wLjYzMS0xLjkxOS0wLjU0My0yLjcxNmMwLDAtMC4xOC03LjE3MSwxLjI1OC0xMC43MTJjLTIuNzIyLDAuOTI3LTQuMTUxLDMuMTQ5LTQuNjQ3LDQuMDA5JiMxMDsmIzk7JiM5O2MtMC41NjEsMC45NzMtMS42MTgsMy4zOTItMC4zMDksNC45MzNDLTE5LjY5MS0yNy40OTctMTguNzY1LTI2LjU4My0xOC4yOC0yNS43Mjh6IiBmaWxsPSIjNDMwQTFEIiBvcGFjaXR5PSIwLjIiLz4mI3hhOyAgICA8cGF0aCBkPSJNLTQzLjc4NS0zNS4wNDNjNS40ODItNy41NTMsMTIuODE0LTEyLjQwNywyMS45MjctMTQuNTE2YzMuMDM2LTAuNzAzLDYuMTIzLTAuODk2LDkuMjM3LTAuODg0JiMxMDsmIzk7JiM5O2M3LjYxOCwwLjAzMywxNS4yMzUsMC4wMTQsMjIuODUyLDAuMDE1YzUuMTI0LDAuMDAyLDEwLjI0OCwwLDE1LjM3MSwwLjAxM2MxLjIxOSwwLjAwMiwyLjQzNSwwLjA4MywzLjYwMSwwLjQ4OSYjMTA7JiM5OyYjOTtjMS4xNDQsMC4zOTYsMi4wMjcsMS4wOTcsMi41MTgsMi4yMzJjMC43MDUsMS42MzksMC4xMDMsMy43MDEtMS40MTcsNC44MTJjLTEuMTE2LDAuODE0LTIuMzk2LDEuMDUxLTMuNzQ1LDAuOTkxJiMxMDsmIzk7JiM5O2MtMC4zNjItMC4wMTgtMC43MjQtMC4wNzQtMS4wODUtMC4xMTFjLTAuMDgzLTAuMDA5LTAuMTcyLTAuMDI4LTAuMjUxLTAuMDFjLTAuMTE2LDAuMDI1LTAuMjI2LDAuMDgzLTAuMzM4LDAuMTI1JiMxMDsmIzk7JiM5O2MwLjA2NCwwLjA5NCwwLjExLDAuMjA4LDAuMTk0LDAuMjc3YzEuMzkzLDEuMTg1LDIuMzUyLDIuNjQ1LDIuODExLDQuNDE3YzAuMTY3LDAuNjQ1LDAuMjE2LDEuMywwLjE1NiwxLjk2MSYjMTA7JiM5OyYjOTtjLTAuMDA0LDAuMDUyLTAuMDA4LDAuMTAzLTAuMDEsMC4xNTJjLTAuMDEzLDAuMzQyLDAuMTAzLDAuNDQ4LDAuNDQxLDAuNDY0YzAuOTk2LDAuMDQ2LDEuOTkyLDAuMDg1LDIuOTg1LDAuMTYzJiMxMDsmIzk7JiM5O2MwLjQ3NSwwLjAzOCwwLjk0NCwwLjE1NCwxLjQ3OSwwLjE4OGMtMC4wNjMtMC4wODItMC4xMDktMC4yMDMtMC4xOTItMC4yNDFjLTAuNzk0LTAuMzY3LTEuMzEzLTAuOTc5LTEuNTczLTEuNzk1JiMxMDsmIzk7JiM5O2MtMC4zMDUtMC45NjEtMC41MTktMS45NDMtMC40NzUtMi45NjJjMC4wNjgtMS42NDYsMC43MDgtMy4wNjIsMS43NS00LjMxMWMwLjkzNy0xLjEyLDIuMDkxLTEuOTYzLDMuMzk2LTIuNjAzJiMxMDsmIzk7JiM5O2MwLjE2OC0wLjA4MiwwLjIxMi0wLjE1NCwwLjE1NC0wLjM0NGMtMC4xNjctMC41MzgtMC4xNDctMS4wODIsMC4wNDMtMS42MmMwLjExNS0wLjMyOCwwLjMyNi0wLjU2NiwwLjYyNy0wLjczNSYjMTA7JiM5OyYjOTtjMC42ODYtMC4zODIsMS40NzYtMC40MzcsMi4yMjQtMC4xMjNjMC4wMjEtMC4xMDcsMC4wMzktMC4yMjgsMC4wNjYtMC4zMzJjMC4yMTYtMC44MiwwLjc0NS0xLjE0NiwxLjU0NC0xLjYyNiYjMTA7JiM5OyYjOTtjMC4xODYsMCwwLjM3MiwwLDAuNTU4LDBjMC4wMjMsMCwwLjA0NCwwLjA1OSwwLjA2NywwLjA2M2MxLjQwNywwLjIzNywxLjk5OCwxLjUyMywxLjgzNSwyLjc0MSYjMTA7JiM5OyYjOTtjLTAuMDQyLDAuMzE0LTAuMTMzLDAuNjIzLTAuMTk0LDAuOTA2YzAuNjM3LDAuMTY4LDEuMjk0LDAuMjk4LDEuOTIxLDAuNTE3YzIuODk1LDEuMDA4LDQuODA2LDIuOTYyLDUuNjE2LDUuOTM4JiMxMDsmIzk7JiM5O2MwLjMyMywxLjE5MSwwLjEyMywyLjI1OC0wLjgwMSwzLjE0MmMtMC4wNTgsMC4wNTgtMC4wNjMsMC4xOTgtMC4wNDksMC4yOTNjMC4xNzksMS4xMjUsMC40NTcsMi4yNDIsMC41MywzLjM3NCYjMTA7JiM5OyYjOTtjMC4xNzMsMi42ODYtMC42NzEsNS4wNDEtMi41MzgsNy4wMDRjLTAuMTEsMC4xMTUtMC4xMTcsMC4yMTMtMC4wODgsMC4zNTRjMC4xMjMsMC42MDIsMC4yNjQsMS4yMDMsMC4zMzgsMS44MTImIzEwOyYjOTsmIzk7YzAuMTUzLDEuMjI5LTAuMzE2LDIuMjQ3LTEuMTM1LDMuMTM0Yy0wLjA3MiwwLjA3OS0wLjE1MywwLjE2NC0wLjE4NywwLjI2MmMtMC4yMjksMC42ODMtMC43MDIsMS4xNDgtMS4zMjcsMS40NjImIzEwOyYjOTsmIzk7Yy0xLjI2LDAuNjM1LTIuNTk2LDAuNzY0LTMuOTczLDAuNTM1Yy0wLjkwMi0wLjE1MS0xLjcyNS0wLjUzMS0yLjU0LTAuOTE3Yy0wLjM2LTAuMTctMC42ODktMC4yNTUtMS4wMjIsMC4wMzYmIzEwOyYjOTsmIzk7Yy0wLjA1NiwwLjA0OS0wLjE0NSwwLjA2MS0wLjE5OCwwLjEwN2MtMC4wOTIsMC4wODctMC4yNDcsMC4yMDgtMC4yMjksMC4yODFjMC4wMjQsMC4xMTIsMC4xNTYsMC4yMzksMC4yNzIsMC4yODUmIzEwOyYjOTsmIzk7YzAuNjM0LDAuMjUsMS4yODksMC4zODUsMS45NzYsMC4zODVjMC41MTUsMCwxLjAzMywwLjAxNCwxLjU0MywwLjA3NWMxLjYyNywwLjE5NywzLjExOSwwLjc4NCw0LjUyLDEuNjImIzEwOyYjOTsmIzk7YzAuMDkzLDAuMDU2LDAuMTk3LDAuMTA0LDAuMzAyLDAuMTIxYzEuODExLDAuMjc3LDMuMjY2LDEuNywzLjU4MiwzLjUwMmMwLjAzMiwwLjE4MiwwLjAyOCwwLjM5MSwwLjEyMiwwLjUzNiYjMTA7JiM5OyYjOTtjMC43NjcsMS4xODYsMC44MywyLjQ0NiwwLjM4NiwzLjc0MWMtMC4yODEsMC44MTktMC42NzEsMS42MDQtMC45OCwyLjQxM0M0OC42NDgtNi44LDQ4LjQ3OS02LjM1Miw0OC40MzctNS45JiMxMDsmIzk7JiM5O2MtMC4xMTIsMS4yODMtMC4yODIsMi41NTQtMC42MjYsMy43OTNjLTAuNzM1LDIuNjQ2LTIuMDQ1LDQuOTM5LTQuMTQ4LDYuNzM4Yy0yLjEyMywxLjgxNS00LjYxMiwyLjc3MS03LjM2OSwzLjA2NCYjMTA7JiM5OyYjOTtjLTAuMjQzLDAuMDI1LTAuMzcxLDAuMTAzLTAuNDc4LDAuMzQzYy0wLjYwMiwxLjM2NS0xLjU5MiwyLjMyNC0zLjAxNywyLjgyMmMtMC4zNywwLjEyOS0wLjczOSwwLjE1OC0xLjA4NywwLjAwMSYjMTA7JiM5OyYjOTtjLTAuNDk2LTAuMjI5LTEuMDAxLTAuNDU3LTEuNDQ2LTAuNzcxYy0xLjE2NC0wLjgxMi0yLjA4NS0xLjg2Ny0yLjg1LTMuMDZjLTAuMDU5LTAuMDktMC4xMjYtMC4yMDgtMC4yMTUtMC4yMzgmIzEwOyYjOTsmIzk7Yy0wLjEyLTAuMDM5LTAuMjk3LTAuMDUzLTAuMzg5LDAuMDExYy0wLjA3MSwwLjA0OC0wLjA4NywwLjI0Mi0wLjA1OSwwLjM1NWMwLjAzMiwwLjEzMywwLjEzNCwwLjI1MSwwLjIxNCwwLjM2OCYjMTA7JiM5OyYjOTtjMi4wMjYsMi45MywzLjMxNSw2LjE1MywzLjkwOCw5LjY2NmMwLjAyLDAuMTEsMC4wOTgsMC4yMjksMC4xODEsMC4zMTJjMC40OTcsMC41MDcsMS4wMTIsMC45OTYsMS41MDUsMS41MDcmIzEwOyYjOTsmIzk7YzAuNzksMC44MTUsMS4yNzQsMS44MDEsMS41MzIsMi44OTdjMC4wNjcsMC4yODcsMC4wOTksMC41ODIsMC4xMTksMC44NzVjMC4wMDYsMC4wODktMC4wODEsMC4xODMtMC4xMjUsMC4yNzUmIzEwOyYjOTsmIzk7Yy0wLjA5NS0wLjA1NS0wLjIxOS0wLjA4OC0wLjI3Ny0wLjE2N2MtMC4xMzUtMC4xODQtMC4yMy0wLjM5NS0wLjM1NC0wLjU4NWMtMC4wODItMC4xMjYtMC4xODktMC4yMzMtMC4yODYtMC4zNTQmIzEwOyYjOTsmIzk7Yy0wLjAzLDAuMDcxLTAuMDIzLDAuMTExLTAuMDA4LDAuMTQ4YzAuNTMxLDEuMzUsMC44OTksMi43NDEsMS4wNzcsNC4xODNjMC4wNSwwLjQwMSwwLjA4NCwwLjgwOCwwLjA5NCwxLjIxMiYjMTA7JiM5OyYjOTtjMC4wMDgsMC4yOTQtMC4xODcsMC40OC0wLjM4NCwwLjQwMWMtMC4xMDUtMC4wNDMtMC4xOTYtMC4xMzEtMC4yNzctMC4yMTJjLTAuNzg4LTAuNzgtMS43MTctMS4zNTktMi42NjktMS45MDcmIzEwOyYjOTsmIzk7Yy0wLjAyMSwwLjAyOS0wLjAzNywwLjA0Mi0wLjAzOCwwLjA1N2MtMC4wMjYsMC4xNDItMC4wNTIsMC4yODItMC4wNzMsMC40MjRjLTAuMjU1LDEuNjY1LTAuNjk0LDMuMjg0LTEuMjAxLDQuODkmIzEwOyYjOTsmIzk7Yy0wLjM4OCwxLjIyNi0wLjYwNywyLjQ3OS0wLjM5MywzLjc3MWMwLjEyOCwwLjc2OSwwLjQwMSwxLjQ2NywxLjA1NCwxLjk1N2MwLjA1LDAuMDM3LDAuMDgzLDAuMDk2LDAuMTQsMC4xNjImIzEwOyYjOTsmIzk7Yy0wLjA3NiwwLjAzOS0wLjEyMywwLjA3Ny0wLjE3NiwwLjA4OGMtMC45NDQsMC4yMDgtMS45MTksMC4wODYtMi40NDgtMC45OTdjLTAuMDYtMC4xMjEtMC4xNC0wLjIzLTAuMjUtMC40MTImIzEwOyYjOTsmIzk7Yy0wLjExOSwwLjIzOC0wLjIzNywwLjM5NC0wLjI3NSwwLjU2NGMtMC4xODgsMC44NTQtMC4yMzQsMS43MjMtMC4xNTQsMi41OTZjMC4xMDEsMS4wNzgsMC40ODIsMi4wNjUsMC45NTEsMy4wMjcmIzEwOyYjOTsmIzk7YzAuMTIxLDAuMjUsMC4yMzYsMC41MDcsMC4zMTQsMC43NzFjMC4xMzksMC40NzktMC4xMjgsMC44MzMtMC42MjksMC44MjVjLTAuMjQ5LTAuMDA1LTAuNTExLTAuMDQ0LTAuNzQxLTAuMTMxJiMxMDsmIzk7JiM5O2MtMS4yMzQtMC40NjQtMi4xNzItMS4yNzktMi43OTYtMi40NDZjLTAuMDUxLTAuMDk1LTAuMDk3LTAuMTg5LTAuMTUzLTAuMzAzYy0wLjQ5NSwwLjQ4MS0wLjk0NiwwLjk1LTEuMTgxLDEuNTkyJiMxMDsmIzk7JiM5O2MtMC4xNTEsMC40MTEtMC4zNDksMC44MDctMC41NTQsMS4xOTJjLTAuMTQ4LDAuMjc2LTAuMjU4LDAuMjctMC40MzgsMC4wMTljLTAuMDQ5LTAuMDY4LTAuMDkyLTAuMTQyLTAuMTQ1LTAuMjA3JiMxMDsmIzk7JiM5O2MtMC4xMzgtMC4xNjctMC4yNDUtMC4xNjgtMC4zNTQsMC4wMjFjLTAuMDk3LDAuMTY2LTAuMTcsMC4zNDktMC4yMzYsMC41MjhjLTAuMzIyLDAuODctMC44NDgsMS41OTItMS41NzIsMi4xNjkmIzEwOyYjOTsmIzk7Yy0wLjA0OSwwLjAzNy0wLjEwNSwwLjA2Ni0wLjIyLDAuMTM3YzAuMDQyLTAuMjc1LDAuMDc3LTAuNDg4LDAuMTA1LTAuNzAyYzAuMDMtMC4yMTksMC4wNTUtMC40MzgsMC4wODMtMC42NjkmIzEwOyYjOTsmIzk7Yy0wLjA2NiwwLjAwOC0wLjA4NSwwLjAwNi0wLjA5OCwwLjAxNGMtMC4wNzEsMC4wNDUtMC4xNDIsMC4wOTItMC4yMTEsMC4xNDFjLTIuOTI0LDIuMDIxLTYuMTIxLDMuNDI1LTkuNTc3LDQuMjQ1JiMxMDsmIzk7JiM5O2MtMS4wNTMsMC4yNS0yLjE1NywwLjMzOC0zLjEwOCwwLjkzNmMtMC4wMjEsMC4wMTQtMC4wNDgsMC4wMjEtMC4wNzEsMC4wMzJjLTAuMTg4LDAuMDc0LTAuMzI2LDAuMDMzLTAuNDcyLTAuMTEzJiMxMDsmIzk7JiM5O2MtMC4wOTMtMC4wOTItMC4yNTktMC4xMzMtMC4zOTEtMC4xMzFjLTAuNDIzLDAuMDEtMC44NDQsMC4xMDMtMS4yNjUsMC4xMzhjLTAuMzg2LDAuMDMyLTAuNzg0LDAuMTItMS4xNTYsMC4yMTMmIzEwOyYjOTsmIzk7Yy0wLjYzNiwwLjE2MS0xLjI1NSwwLjc4LTEuODgxLDAuNzhjLTAuMTUyLDAtMC4zMDYsMC0wLjQ1NywwYy0wLjE0NiwwLTAuMzE5LTAuNDItMC40MzctMC41NjcmIzEwOyYjOTsmIzk7Yy0wLjIwNy0wLjI1OS0wLjQ2MS0wLjU2Mi0wLjc4Ni0wLjU4M2MtMi4xNTQtMC4xMzQtNC4yODMtMC40NDYtNi4zNzktMC45NjljLTMuMTkyLTAuNzkyLTYuMTkxLTIuMDIxLTguODc3LTMuOTUzJiMxMDsmIzk7JiM5O2MtMS45NjMtMS40MTMtMy42NDctMy4wOTEtNC44NDEtNS4yMThjLTAuMjQ0LTAuNDMyLTAuNDM3LTAuODk2LTAuNjMtMS4zNTNjLTAuMTQ3LTAuMzUyLTAuMTgyLTAuNzI0LTAuMDYtMS4wOTMmIzEwOyYjOTsmIzk7YzAuMTAyLTAuMzAzLDAuMzMxLTAuNDcxLDAuNjM5LTAuNDIzYzEuNzU1LDAuMjc2LDMuMjQtMC4zNjUsNC42MS0xLjM2YzEuMzYyLTAuOTkxLDIuNC0yLjI2MSwyLjk5Mi0zLjg0OSYjMTA7JiM5OyYjOTtjMC44NzItMi4zNDYsMC40LTQuNDQ2LTEuMjQ0LTYuMzA1Yy0wLjE2Ni0wLjE4OC0wLjM1NC0wLjM1OC0wLjU1Ni0wLjU2MmMtMC4wNzYsMC4yODUtMC4xMzksMC41NDQtMC4yMTQsMC44MDMmIzEwOyYjOTsmIzk7Yy0wLjM3MiwxLjI3LTAuOTAzLDIuNDU1LTEuODA3LDMuNDQ1Yy0wLjUyNSwwLjU3Ny0wLjczMy0wLjEwNi0wLjYwMS0xLjE1MWMwLjI4NC0yLjIyMi0wLjM5OC00LjEzMy0xLjk0NS01LjczOSYjMTA7JiM5OyYjOTtjLTAuMDk0LTAuMDk5LTAuMjM2LTAuMTYtMC4zNjktMC4yMDdjLTEuNjMtMC41NzgtMy4yNzEtMS4xMjYtNC44OTItMS43MjljLTIuODk0LTEuMDc2LTUuNjg4LTIuMzcxLTguMzM2LTMuOTY1JiMxMDsmIzk7JiM5O2MtMC4wMzYtMC4wMjEtMC4wNzQtMC4wNDEtMC4xMTMtMC4wNjJjLTAuMjUxLDAuMTYyLTAuMzU0LDAuNDA0LTAuMzQzLDAuNjc0YzAuMDE0LDAuMzYsMC4wNzMsMC43MiwwLjExNSwxLjA3OSYjMTA7JiM5OyYjOTtjMC4wMDQsMC4wNDMsMC4wMTgsMC4wODMsMC4wMjIsMC4xMjVjMC4wODYsMC42MzUtMC4xNjIsMC44NDItMC43NDcsMC41NThjLTAuMjkzLTAuMTQzLTAuNTYyLTAuMzgtMC43NzMtMC42MzEmIzEwOyYjOTsmIzk7Yy0wLjY3NC0wLjgwNy0xLjA5Mi0xLjc2My0xLjQ5My0yLjcyMWMtMC4yMTItMC41MDYtMC4zOC0xLjAzLTAuNTk0LTEuNTM1Yy0wLjA3OC0wLjE4NS0wLjIwMS0wLjM3MS0wLjM1My0wLjUmIzEwOyYjOTsmIzk7Yy0yLjI5My0xLjk1LTQuNDI5LTQuMDQ4LTYuMjQtNi40NjRjLTEuNTUxLTIuMDctMi44NzUtNC4yNzEtMy45NS02LjYyNWMtMC4wMjctMC4wNjItMC4wNTgtMC4xMjItMC4wODgtMC4xODImIzEwOyYjOTsmIzk7Yy0wLjAwOC0wLjAxNC0wLjAyNC0wLjAyMS0wLjA1OC0wLjA1MmMtMC4zNTIsMi4wNjMtMC40MjIsNC4xMTctMC4yMTUsNi4xOTJjLTAuMTY1LTAuNjE2LTAuMzQ4LTEuMjI5LTAuNDkyLTEuODUmIzEwOyYjOTsmIzk7Yy0wLjU4OC0yLjUwNC0wLjc3MS01LjAzOS0wLjU5Ni03LjYwNGMwLjAwOS0wLjEzLTAuMDI0LTAuMjctMC4wNjQtMC4zOTZjLTAuNzYzLTIuMzk4LTEuMjkxLTQuODQ5LTEuNTE1LTcuMzU0JiMxMDsmIzk7JiM5O0MtNTEuMDc3LTE5LjkyMy00OC45NS0yNy45MjUtNDMuNzg1LTM1LjA0M3ogTS00NS44NjQtOC4wOTljMS42LTMuNDk5LDMuNjA2LTYuNzYzLDUuNzkzLTkuOTE4JiMxMDsmIzk7JiM5O2MwLjExNS0wLjE2NiwwLjE2OC0wLjMyOSwwLjE3OC0wLjUzNGMwLjA0OS0xLjAxNCwwLjEwMi0yLjAyNSwwLjE4NS0zLjAzNWMwLjA1LTAuNTk0LDAuMTU5LTEuMTg2LDAuMjQxLTEuNzc1JiMxMDsmIzk7JiM5O2MtNS44NCw2LjQyNi04LjY0NSwxMy45OTQtOC41NTgsMjIuNzE1YzAuMDk4LTAuNjc3LDAuMTYyLTEuMzA5LDAuMjgzLTEuOTI5Qy00Ny4zNy00LjUwMS00Ni42NzYtNi4zMjItNDUuODY0LTguMDk5eiYjMTA7JiM5OyYjOTsgTS0yNC40MDMsMTcuNzJjLTAuMDEzLTAuMDUxLTAuMDEyLTAuMDY4LTAuMDIxLTAuMDgyYy0wLjA0Mi0wLjA2Mi0wLjA4Ny0wLjEyNC0wLjEzMS0wLjE4N2MtMS45MDgtMi42NzMtMy40NjktNS41MzQtNC42MjItOC42MTMmIzEwOyYjOTsmIzk7Yy0wLjgyNy0yLjIwNi0xLjQwNy00LjQ3My0xLjY2MS02LjgyMWMtMC4xNzctMS42NDUtMC4xOTEtMy4yODksMC00LjkzNGMwLjAxLTAuMDc3LDAuMDA5LTAuMTk4LTAuMDM2LTAuMjMxJiMxMDsmIzk7JiM5O2MtMC4zNzMtMC4yNjctMC43NTctMC41MTktMS4xNDktMC43ODFjLTAuMDI2LDAuMDk1LTAuMDQ3LDAuMTU4LTAuMDYxLDAuMjI2Yy0wLjYwMiwyLjcwOS0wLjkyOSw1LjQ0My0wLjc3MSw4LjIyNSYjMTA7JiM5OyYjOTtjMC4xMDIsMS43ODIsMC40MDcsMy41MjEsMS4wNyw1LjE4N2MwLjAxOSwwLjA0OCwwLjAyNywwLjA5OSwwLjA0LDAuMTQ3Yy0wLjIxMi0wLjMwMy0wLjM5My0wLjYxNS0wLjU0OS0wLjk0JiMxMDsmIzk7JiM5O2MtMS4yMzItMi41NjEtMS43MTktNS4yOTQtMS44MTYtOC4xMDJjLTAuMDg3LTIuNTM2LDAuMTctNS4wNTgsMC42NjEtNy41NThjLTAuNDI3LTAuMTUzLTAuOTA2LTAuMDgtMS41OTYsMC4yNiYjMTA7JiM5OyYjOTtjLTAuMDIxLTAuMDgzLTAuMDE5LTAuMTg4LTAuMDY3LTAuMjQ0Yy0xLjA4NS0xLjIyLTEuOTk2LTIuNTU1LTIuNzA3LTQuMDIzYy0wLjAxOC0wLjAzNy0wLjA0NS0wLjA2Ni0wLjA3Ni0wLjExMiYjMTA7JiM5OyYjOTtjLTAuNTMzLDAuNjA0LTAuOTk0LDEuMjI5LTEuMjczLDEuOTkyYy0wLjA4NS0wLjMxMi0wLjE1Ni0wLjYyLTAuMTc1LTAuOTMzYy0wLjA2MS0xLjAyMSwwLjE2Mi0xLjk5OCwwLjQ4My0yLjk1NiYjMTA7JiM5OyYjOTtjMC4wODUtMC4yNTgsMC4wNTgtMC40NjgtMC4wNzctMC43MDljLTAuNDYxLDAuNDQyLTAuNjIxLDEuMDIyLTAuODI4LDEuNjFjLTAuMjA4LTAuMjc4LTAuMjgtMC41Ni0wLjI5Ni0wLjg1OCYjMTA7JiM5OyYjOTtjLTAuMDQxLTAuODEyLDAuMTU4LTEuNTgzLDAuNDY3LTIuMzE2YzAuMjQxLTAuNTczLTAuMDcxLTEuMDUtMC4xLTEuNjM3Yy0wLjExNCwwLjE0OC0wLjE4NywwLjIzLTAuMjQ4LDAuMzIzJiMxMDsmIzk7JiM5O2MtMC43OTEsMS4xNjctMS42MTYsMi4zMTItMi4zNjQsMy41MDdjLTEuNzcxLDIuODMxLTMuMjE3LDUuODE3LTQuMjE2LDkuMDEzYy0wLjAzOCwwLjEyNi0wLjA1MiwwLjI4OC0wLjAwOCwwLjQwOCYjMTA7JiM5OyYjOTtjMS42NzQsNC42MDUsNC4yMjksOC42NjYsNy42MzEsMTIuMTkxYzAuMDQxLDAuMDQzLDAuMDkyLDAuMDc4LDAuMTY0LDAuMTRjLTAuMDA0LTAuMDg0LTAuMDA1LTAuMTI2LTAuMDEtMC4xNjgmIzEwOyYjOTsmIzk7Yy0wLjE0Mi0xLjE3My0wLjMxNS0yLjM0Ni0wLjQxNS0zLjUyMWMtMC4xNzUtMi4wNjItMC4xNC00LjEyMSwwLjI3MS02LjE1OWMwLjI3Ni0xLjM2NywwLjcyNi0yLjY3MywxLjU3OC0zLjgwNCYjMTA7JiM5OyYjOTtjMC41ODUtMC43NzQsMS4zMDItMS4zOTIsMi4yMi0xLjc1Yy0wLjIyMSwwLjIyLTAuNDYxLDAuNDIyLTAuNjU3LDAuNjYxYy0wLjU0OSwwLjY2NS0wLjkzLDEuNDI3LTEuMjEzLDIuMjM4JiMxMDsmIzk7JiM5O2MtMC41OTYsMS43MDctMC43MzIsMy40NzktMC43NDEsNS4yN2MtMC4wMDksMS43NzEsMC4xNDcsMy41MjgsMC4zOTIsNS4yNzljMC4yNjMsMS44NzQsMC41ODIsMy43MzcsMS4xMTcsNS41NTQmIzEwOyYjOTsmIzk7YzAuMzUsMS4xODYsMC43NzUsMi4zNDIsMS40MzgsMy4zOTVjMC4wOTMsMC4xNDYsMC4yNTIsMC4yNTMsMC4zODEsMC4zNzhjMC4wNzctMC4xNjEsMC4xOTYtMC4zMTUsMC4yMjQtMC40ODMmIzEwOyYjOTsmIzk7YzAuMDg4LTAuNTQxLDAuMjMtMS4wNiwwLjAyNS0xLjYzNGMtMC44MDUtMi4yNjQtMS4yNTItNC42MDctMS40Ni02Ljk5N2MtMC4wNDQtMC41MDItMC4wNTctMS4wMDYtMC4wODUtMS41MDgmIzEwOyYjOTsmIzk7YzAuMTI1LDAuNDUyLDAuMTkxLDAuOTEsMC4yODQsMS4zNmMwLjYyMSwzLjAyNywxLjk5NSw1LjYzNyw0LjMyNiw3LjcwMWMwLjIxOSwwLjE5MywwLjQ2OSwwLjM2MiwwLjcyOCwwLjQ5NiYjMTA7JiM5OyYjOTtjMS42NTYsMC44NjYsMy4zNzYsMS41ODYsNS4xMzIsMi4yMjJDLTI0Ljk0MSwxNy41MzMtMjQuNjgyLDE3LjYyMy0yNC40MDMsMTcuNzJ6IE0yNi42ODQsNDAuOTk5JiMxMDsmIzk7JiM5O2MwLjAwNC0wLjE3LTAuMDY1LTAuMzQ2LTAuMTIyLTAuNTEzYy0wLjY0Mi0xLjg4NC0wLjg0Ny0zLjgxNi0wLjczMi01Ljc5M2MwLjAyMS0wLjM1NCwwLjA0MS0wLjcyLTAuMDIzLTEuMDYyJiMxMDsmIzk7JiM5O2MtMC4zODMtMi4wNS0xLjQ2Mi0zLjc5Mi0yLjUwOC01LjYwMWMtMC4wMjksMC4wNzgtMC4wMzksMC4wOTItMC4wMzksMC4xMDRjLTAuMTE2LDMuMDIxLTAuMDI2LDYuMDMyLDAuNTY4LDkuMDA3JiMxMDsmIzk7JiM5O2MwLjIxOCwxLjA4NywwLjUyOCwyLjE0NywxLjExMiwzLjEwNmMwLjI4NywwLjQ3NiwwLjY0NSwwLjg4NiwxLjEzOCwxLjE2NmMwLjE1MywwLjA4NywwLjMxNiwwLjEzOCwwLjQzNy0wLjAwMyYjMTA7JiM5OyYjOTtDMjYuNjA3LDQxLjMwMywyNi42ODEsNDEuMTQsMjYuNjg0LDQwLjk5OXogTTI3LjkzMywyNC45ODFjLTAuNDc3LTAuMzQ1LTAuOTc4LTAuNjY5LTEuNTAyLTAuOTM0JiMxMDsmIzk7JiM5O2MtMS44NDQtMC45MjctMy43OTgtMS41ODctNS43My0yLjI5OWMtMC4zNzYtMC4xMzgtMC43MzctMC4zMzYtMS4wNzMtMC41NTZjLTAuNjY4LTAuNDM4LTEuMTY1LTEuMDUyLTEuNTk2LTEuNzE2JiMxMDsmIzk7JiM5O2MtMC4yMDYtMC4zMTQtMC4zOTktMC42MzgtMC41OTktMC45NTdjMC4wMDUsMC4xMDcsMC4wMzgsMC4yMDEsMC4wNjUsMC4yOThjMC4yMjgsMC43NzYsMC40ODgsMS41NDYsMC42NzEsMi4zMzQmIzEwOyYjOTsmIzk7YzAuMjU1LDEuMDk5LDAuNjU5LDIuMTI2LDEuMjcxLDMuMDY4YzAuMzMxLDAuNTA5LDAuNywwLjk5NiwxLjAyMywxLjUxM2MwLjIwNCwwLjMyNCwwLjM4MiwwLjY3NiwwLjUyNCwxLjAzMiYjMTA7JiM5OyYjOTtjMC4wODQsMC4yMTQsMC4wNzUsMC40NjQsMC4xMDksMC42OTdjLTAuMDM0LDAuMDE3LTAuMDY3LDAuMDM0LTAuMTAzLDAuMDVjLTAuMTAyLTAuMDg2LTAuMjE4LTAuMTYxLTAuMzA1LTAuMjYxJiMxMDsmIzk7JiM5O2MtMC4zNTUtMC40MDctMC42OTYtMC44MjgtMS4wNi0xLjIyOGMtMC4wNzktMC4wODktMC4yNTUtMC4xNzYtMC4zNDQtMC4xNDRjLTAuMDg1LDAuMDMxLTAuMTc1LDAuMjItMC4xNjMsMC4zMyYjMTA7JiM5OyYjOTtjMC4wNDUsMC40NDEsMC4wNzEsMC44OTYsMC4yMDksMS4zMTJjMC4xOSwwLjU3MywwLjQ5LDEuMTEsMC43MTIsMS42NzdjMC4xMDksMC4yNzYsMC4xOCwwLjU4MiwwLjIwNSwwLjg3OCYjMTA7JiM5OyYjOTtjMC4wMTIsMC4xNC0wLjEyNCwwLjI5Mi0wLjE5MSwwLjQzN2MtMC4xMTktMC4wODEtMC4yNTYtMC4xNDYtMC4zNTQtMC4yNDljLTAuMTc0LTAuMTgzLTAuMzEzLTAuMzk3LTAuNDkyLTAuNTc3JiMxMDsmIzk7JiM5O2MtMC4xNzctMC4xNzUtMC4zNDEtMC4xNDYtMC40NDMsMC4wNzdjLTAuMDczLDAuMTU2LTAuMTQ2LDAuMzQ4LTAuMTIyLDAuNTA2YzAuMDYxLDAuMzk3LDAuMTY5LDAuNzg3LDAuMjcsMS4xNzkmIzEwOyYjOTsmIzk7YzAuMDk0LDAuMzU2LDAuMjI3LDAuNzA4LDAuMywxLjA2N2MwLjA1LDAuMjQzLTAuMDEyLDAuNDg0LTAuMjY3LDAuNjY3Yy0wLjA3MS0wLjEwNC0wLjE0OS0wLjE5My0wLjE5NS0wLjI5OCYjMTA7JiM5OyYjOTtjLTAuMS0wLjIxNC0wLjE3OS0wLjQzOC0wLjI3Mi0wLjY1MmMtMC4yMTUtMC40OTQtMC40MDQtMS4wMDUtMC42NTgtMS40NzljLTAuMjI0LTAuNDE3LTAuNDQ1LTAuMzgtMC42ODYsMC4wMjUmIzEwOyYjOTsmIzk7Yy0wLjQ2NiwwLjc5Mi0wLjkyNywxLjU5LTEuNDQ4LDIuMzQ2Yy0wLjI4NywwLjQxNS0wLjQ1NCwwLjg0Mi0wLjQ5OCwxLjMyOGMtMC4wNTgsMC42NDYtMC4wOSwxLjI5OC0wLjE1OCwxLjk0NSYjMTA7JiM5OyYjOTtjLTAuMDI2LDAuMjQxLTAuMDkxLDAuNDkyLTAuMzU1LDAuNzJjLTAuMDU2LTAuMjczLTAuMTAzLTAuNDk3LTAuMTQ3LTAuNzIyYy0wLjA2Ni0wLjMzLTAuMTExLTAuNjY2LTAuMjAyLTAuOTg5JiMxMDsmIzk7JiM5O2MtMC4wNjMtMC4yMjgtMC4yNDYtMC4yNTEtMC4zNi0wLjA0OGMtMC4xMDMsMC4xODQtMC4xNzMsMC40MDQtMC4xODgsMC42MTRjLTAuMDI4LDAuMzk2LDAuMDA4LDAuNzk0LTAuMDEzLDEuMTkxJiMxMDsmIzk7JiM5O2MtMC4wMDgsMC4xOC0wLjA3MywwLjM2MS0wLjE0MSwwLjUzMmMtMC4wMjksMC4wNzMtMC4xMjYsMC4xMjItMC4xOTIsMC4xODJjLTAuMDQ0LTAuMDc0LTAuMTAzLTAuMTQyLTAuMTI4LTAuMjIzJiMxMDsmIzk7JiM5O2MtMC4wMzEtMC4wOTUtMC4wMzQtMC4xOTgtMC4wNDktMC4yOTljLTAuMDQzLTAuMjkyLTAuMDY3LTAuNTkxLTAuMTM2LTAuODc1Yy0wLjA3My0wLjMwOS0wLjI2Ny0wLjM2MS0wLjQ1OS0wLjExMSYjMTA7JiM5OyYjOTtjLTAuMTc2LDAuMjI5LTAuMzE1LDAuNS0wLjQwMywwLjc3NGMtMC4xMzUsMC40MjYtMC4xOTIsMC44NzItMC4zMjEsMS4zMDJjLTAuMDYsMC4yMDEtMC4xOTgsMC4zODUtMC4zMjcsMC41NTYmIzEwOyYjOTsmIzk7Yy0wLjA0OCwwLjA2Mi0wLjE4OCwwLjEwMi0wLjI2NSwwLjA3OWMtMC4wNTctMC4wMTUtMC4xMTMtMC4xNDYtMC4xMTYtMC4yMjhjLTAuMDA3LTAuMzI4LDAuMDA2LTAuNjU4LDAuMDExLTAuOTg3JiMxMDsmIzk7JiM5O2MwLjAwMS0wLjE2MywwLTAuMzI2LDAtMC41MDJjLTAuMDcyLDAuMDE2LTAuMSwwLjAxNS0wLjExOCwwLjAyNmMtMC4wNDEsMC4wMjgtMC4wODIsMC4wNjItMC4xMTUsMC4wOTkmIzEwOyYjOTsmIzk7Yy0wLjMzOCwwLjM1OS0wLjU2NSwwLjc3Ni0wLjYzNiwxLjI3MWMtMC4wMzEsMC4yMTktMC4wNDIsMC40MzgtMC4wODMsMC42NTNjLTAuMDUsMC4yNTQtMC4yMDIsMC4zNTEtMC40NiwwLjMxOSYjMTA7JiM5OyYjOTtjLTAuMjcxLTAuMDMyLTAuNDQzLTAuMjI5LTAuNDctMC41NzNjLTAuMDE5LTAuMjI0LTAuMDA0LTAuNDQ4LTAuMDA0LTAuNzA2Yy0wLjMwOCwwLjE1OC0wLjU4MiwwLjMwMy0wLjg2LDAuNDQmIzEwOyYjOTsmIzk7Yy0yLjg0MiwxLjQwNy01Ljg0MywyLjI3OS04Ljk5MSwyLjY0N2MtMi4wMzMsMC4yMzctNC4wNjYsMC4yNDMtNi4wODItMC4xNjZjLTEuMjE5LTAuMjQ3LTIuMzgtMC42NDQtMy4zODctMS40MDcmIzEwOyYjOTsmIzk7Yy0wLjE0OC0wLjExLTAuMjg0LTAuMjM4LTAuNDI2LTAuMzU4YzEuMTIyLDAuNjQ5LDEuNzc4LDAuOTE0LDIuNzksMS4xMDZjMS44NDIsMC4zNTQsMy42ODYsMC4zMDEsNS41MjcsMC4wMzQmIzEwOyYjOTsmIzk7YzMuMjM5LTAuNDcxLDYuMy0xLjQ5Miw5LjE3Ny0zLjA2MmMyLjIzLTEuMjE2LDQuMjQ0LTIuNzA3LDUuODczLTQuNjhjMC4xMjMtMC4xNDYsMC4yMzktMC4yOTksMC4zNTQtMC40NDkmIzEwOyYjOTsmIzk7Yy0zLjMzNSwxLjU5My03LjEwMi0xLjQwNC0xMC44Ny0wLjA3NGM1LjE2NC0yLjY2Miw4LjIyMiwwLjc2NywxMS4xMzQtMS40NTJjMC43NDEtMC41NjQsMC44NzMtMi4wMTktMC44MjEtMS43NzUmIzEwOyYjOTsmIzk7Yy0xLjYxNiwwLjIzMSwyLjQzNC0wLjU2OSwzLjE2LTQuNzc4Yy0wLjA0MS0wLjY4Ny0wLjEzNy0xLjM4Ni0wLjI5NC0yLjEwMWMtMC42OTYtMy4xNTMtMi4xNjQtNS45MzgtNC4xOC04LjQzOCYjMTA7JiM5OyYjOTtDOS4zODQsMTEuMzY3LDYuNzc3LDkuNDUsMy44NDcsNy45NTFjLTAuMDQyLTAuMDEtMC4wODgtMC4wMjUtMC4xNDYtMC4wNDljMC4wMDgsMC4wMzUsMC4wMDcsMC4wNTMsMC4wMTMsMC4wNjImIzEwOyYjOTsmIzk7YzAuMDQxLDAuMDY1LDAuMDgzLDAuMTI5LDAuMTI1LDAuMTkyYzEuNCwyLjA4MSwyLjU1LDQuMjc4LDMuMTA5LDYuNzQ2YzAuMzg0LDEuNjksMC40MywzLjM4NC0wLjEwNCw1LjA1OCYjMTA7JiM5OyYjOTtjLTAuNTk3LDEuODY5LTEuNzkxLDMuMjkyLTMuMzUxLDQuNDMyQzEuNzQ1LDI1LjY3LTAuMjMsMjYuNDY4LTIuMjg5LDI3LjA4Yy0wLjQ0LDAuMTMxLTAuODg4LDAuMjQ3LTEuMzg2LDAuMzg0JiMxMDsmIzk7JiM5O2MwLjA1Ni0wLjA2LDAuMDYyLTAuMDc2LDAuMDc2LTAuMDgxYzAuMDg1LTAuMDM2LDAuMTcyLTAuMDY5LDAuMjU5LTAuMTAzYzEuNDM4LTAuNTYyLDIuODA4LTEuMjQ4LDQuMDUtMi4xNzUmIzEwOyYjOTsmIzk7YzEuNzg4LTEuMzI5LDMuMTAzLTMuMDAzLDMuNy01LjE4YzAuNTI3LTEuOTI1LDAuNDEtMy44NS0wLjA2LTUuNzY1QzMuNzQzLDExLjY4LDIuNjE5LDkuNDMzLDEuMjYyLDcuMjg1JiMxMDsmIzk7JiM5O2MtMC4zMS0wLjQ5MS0wLjY3OS0wLjgxOC0xLjIzNy0wLjk4NEMtMC42NSw2LjEwMi0xLjMxLDUuODQzLTIuMDQsNS41ODVjMi4wNjYsMi4yMTgsMi4xMjMsNS4zMzgsMS43MjcsNy4xNjkmIzEwOyYjOTsmIzk7Yy0wLjAwNy0wLjAzMi0wLjAxNi0wLjA1My0wLjAxNy0wLjA3NWMtMC4wNzEtMS40OTItMC41NzktMi44MzYtMS40MTMtNC4wNjJjLTEuMjQ0LTEuODMtMi45MjktMy4xNjQtNC44MzEtNC4yNDkmIzEwOyYjOTsmIzk7Yy0wLjE0Ny0wLjA4NC0wLjMyNy0wLjExMS0wLjQ5Mi0wLjE2NGMwLjY4OCwwLjc5MywxLjIxNSwxLjY1NywxLjUyNCwyLjY0N2MwLjMsMC45NTgsMC40MDQsMi40NiwwLjIwNSwyLjk5OSYjMTA7JiM5OyYjOTtjLTAuMzE0LTEuMDQ3LTAuNjQxLTEuNzI5LTEuMzQtMi42MmMtMS4yLTEuNTI4LTIuNTkzLTIuODUxLTQuMjA4LTMuOTUxYy0xLjA4My0wLjc0MS0yLjIxNy0xLjM1NC0zLjQzNy0xLjgyJiMxMDsmIzk7JiM5O2MtMi4xNTctMC44MjctNC40MDctMS4zMzQtNi42NDUtMS44ODJjLTEuOTY2LTAuNDgxLTMuOTMtMC45OC01Ljg4MS0xLjUyNWMtMS4wNjUtMC4yOTgtMi4wODgtMC43MzctMi45NzMtMS40MzEmIzEwOyYjOTsmIzk7Yy0wLjE1OCwwLjM1Mi0wLjQ1NSwxLjU5Ni0wLjQ2NiwyLjU4NGMtMC4xMjksMTEuNjQ2LDkuMTM4LDE3Ljg3MSwxMS45NjIsMjEuMTI5YzAuODIyLDAuOTQ5LDEuMjk0LDIuMTEyLDEuNzA3LDMuMjg4JiMxMDsmIzk7JiM5O2MwLjE2OCwwLjQ3NywwLjMxMiwwLjk2MSwwLjQ3LDEuNDU2YzAuMDI3LTAuMDM1LDAuMDUzLTAuMDU5LDAuMDY2LTAuMDg0YzAuNzg5LTEuNTE1LDEuMjc1LTMuMDYyLDAuODk1LTQuODE2JiMxMDsmIzk7JiM5O2MtMC41OC0yLjY4My0xLjY1OS01LjA3OS0zLjY5NC02Ljk3OWMtMC4wMjItMC4wMjEtMC4wNC0wLjA0OC0wLjExLTAuMTI4YzAuMDk5LDAuMDUxLDAuMTM0LDAuMDY0LDAuMTY3LDAuMDg2JiMxMDsmIzk7JiM5O2MxLjY3MywwLjk2NCwzLjIwMiwyLjExLDQuNDk1LDMuNTU0YzIuMTc0LDIuNDI0LDMuMzQxLDUuMjYxLDMuNTAyLDguNTE5YzAuMDcsMS40MTktMC4xMjUsMi44Mi0wLjI4NCw0LjIyMSYjMTA7JiM5OyYjOTtjLTAuNDIyLDMuNzI5LTMuMTQ2LDYuNzQ4LTYuODA2LDcuNjM5Yy0wLjI3NSwwLjA2Ny0wLjU1NCwwLjE2Mi0wLjgwMywwLjI5M2MtMC4zNTEsMC4xODctMC40NDgsMC40OTMtMC4zMTUsMC44NjMmIzEwOyYjOTsmIzk7YzAuMDQ4LDAuMTMzLDAuMTE5LDAuMjYyLDAuMTk1LDAuMzgyYzAuNjUsMS4wMSwxLjQ3NCwxLjg0NSwyLjQ4OSwyLjQ5MmMwLjUyMSwwLjMzMSwxLjA0MiwwLjY2MSwxLjU0NCwxLjAyJiMxMDsmIzk7JiM5O2MyLjA1OSwxLjQ3Miw0LjI3NSwyLjYxNCw2LjcyNCwzLjI4NmMxLjAxMSwwLjI3NywyLjAzMywwLjUyMiwzLjA5NSwwLjQyOWMwLjMzMy0wLjAyNywwLjY1Ny0wLjE1LDAuOTg4LTAuMTg5JiMxMDsmIzk7JiM5O2MwLjEzNy0wLjAxOCwwLjI4NywwLjA3OSwwLjQzMiwwLjEyM0MtMy42NSw0NS44NzgtMy43MTUsNDYtMy44MTYsNDYuMDU3Yy0wLjYzOSwwLjM2OC0xLjM0NiwwLjQ4Mi0yLjA3LDAuNTA2JiMxMDsmIzk7JiM5O2MtMS4wNjUsMC4wMzYtMi4xMDItMC4xNjYtMy4xMzgtMC4zNzdjLTAuMTA0LTAuMDIxLTAuMjE0LTAuMDIxLTAuMzIxLTAuMDNjMC44NDksMC43MzQsMS44MTIsMS4yMDgsMi44NTUsMS41MjEmIzEwOyYjOTsmIzk7YzEuNzE1LDAuNTIxLDMuNDY4LDAuNjM4LDUuMjQzLDAuNDg5YzAuNTY4LTAuMDQ4LDEuMTQ0LTAuMDcxLDEuNjY4LTAuMzY4YzAuNTE0LTAuMjksMS4wNTQtMC41MzMsMS41ODYtMC43OTEmIzEwOyYjOTsmIzk7YzAuMTE1LTAuMDU2LDAuMjQzLTAuMDg0LDAuMzY2LTAuMTI1YzAuMDE4LDAuMDIxLDAuMDM2LDAuMDM5LDAuMDU1LDAuMDZjLTAuMDU2LDAuMTQ0LTAuMTAyLDAuMjkyLTAuMTczLDAuNDI4JiMxMDsmIzk7JiM5O2MtMC4xOTIsMC4zNzYtMC40MDEsMC43NDMtMC41OTQsMS4xMTljLTAuMDM1LDAuMDcxLTAuMDE4LDAuMTczLTAuMDIzLDAuMjZjMC4wOCwwLjAwNCwwLjE3LDAuMDM0LDAuMjM5LDAuMDEmIzEwOyYjOTsmIzk7YzAuNDA4LTAuMTM2LDAuODI0LTAuMjU2LDEuMjEyLTAuNDM4YzAuNTU1LTAuMjY0LDEuMTMzLTAuMzU0LDEuNzM4LTAuMzk1YzAuODI0LTAuMDU3LDEuNjUtMC4xMzUsMi40NjktMC4yNTImIzEwOyYjOTsmIzk7YzEuMjAyLTAuMTczLDIuMTE4LTAuNzkzLDIuNzEyLTEuODY4YzAuMTM5LTAuMjUxLDAuMjg3LTAuNDk3LDAuNDM4LTAuNzQyYzAuMDU0LTAuMDg3LDAuMTI4LTAuMTYxLDAuMTkzLTAuMjQmIzEwOyYjOTsmIzk7YzAuMDI5LDAuMDEzLDAuMDYxLDAuMDI0LDAuMDksMC4wNGMtMC4xODcsMC42NC0wLjM3NCwxLjI3OS0wLjU3MSwxLjk1NGMwLjYyMy0wLjE0MiwxLjI3MS0wLjU3MywxLjc4NS0xLjE3OCYjMTA7JiM5OyYjOTtjMC4yNi0wLjMwMiwwLjQ5Mi0wLjYyNSwwLjc0OS0wLjkyN2MwLjEwMy0wLjEyLDAuMjQyLTAuMjA4LDAuMzY0LTAuMzEyYzAuMDM0LDAuMDE5LDAuMDY5LDAuMDM0LDAuMTA0LDAuMDU0JiMxMDsmIzk7JiM5O2MtMC4wNSwwLjQyOC0wLjEwMSwwLjg1NS0wLjE0OSwxLjI4NWMwLjAyNSwwLjAwOSwwLjA1MiwwLjAxOSwwLjA3OSwwLjAyNmMwLjM4Ny0wLjIzNiwwLjc3MS0wLjQ3OSwxLjE1OS0wLjcxNSYjMTA7JiM5OyYjOTtjMS4zMTgtMC43OTQsMi41NTMtMS42ODgsMy40NzgtMi45NDhjMC4xMjctMC4xNzQsMC4yMjItMC4xNDksMC4yODksMC4wNjJjMC4wODMsMC4yNjUsMC4xMzcsMC41MzksMC4yMjgsMC44MDImIzEwOyYjOTsmIzk7YzAuMDI3LDAuMDgsMC4xMzgsMC4xODksMC4yMDIsMC4xODVjMC4wODktMC4wMDcsMC4yMTMtMC4wOTUsMC4yNDMtMC4xNzZjMC4wNjItMC4xNywwLjA4Ny0wLjM1NywwLjA5OS0wLjU0MiYjMTA7JiM5OyYjOTtjMC4wMjUtMC4zNywwLjAxNi0wLjc0MiwwLjA1NS0xLjExYzAuMDEyLTAuMTEzLDAuMTMyLTAuMjE4LDAuMjA0LTAuMzIzYzAuMDk1LDAuMDg0LDAuMjI1LDAuMTUsMC4yNzUsMC4yNTYmIzEwOyYjOTsmIzk7YzAuMTQ3LDAuMzAzLDAuMjU2LDAuNjI0LDAuMzkzLDAuOTMzYzAuMTI2LDAuMjg2LDAuMjAxLDAuMjkxLDAuMzg0LDAuMDQ4YzAuMjQtMC4zMjEsMC41MS0wLjU4LDAuOTYyLTAuNTQ4JiMxMDsmIzk7JiM5O2MwLjQyLDAuMDMyLDAuNDczLDAuMDAxLDAuNjI5LTAuMzljMC4yNjctMC42NjcsMC40OTQtMS4zNDcsMC43NjgtMi4wMWMwLjEzLTAuMzE2LDAuMzI5LTAuNjA0LDAuNDg2LTAuOTA4JiMxMDsmIzk7JiM5O2MwLjAzOS0wLjA3MiwwLjA3My0wLjE3NSwwLjA1My0wLjI0NmMtMC41NTYtMS43OTUtMC43MS0zLjY0NC0wLjcyOC01LjUwOGMtMC4wMTctMS43MjUsMC4wMTctMy40NS0wLjA0Mi01LjE3MiYjMTA7JiM5OyYjOTtjLTAuMDQ1LTEuMzQ3LTAuMjcxLTIuNjYxLTEuMjc2LTMuNjk5YzAuMTM5LDAuMDQ0LDAuMjcxLDAuMDk0LDAuMzk1LDAuMTU4YzAuNjQ4LDAuMzM2LDEuMTc4LDAuODE5LDEuNjQyLDEuMzc1JiMxMDsmIzk7JiM5O2MxLjAyNiwxLjIyOCwxLjcwMSwyLjY1LDIuMjk5LDQuMTIxYzAuNDc5LDEuMTc4LDAuOTYyLDIuMzU1LDEuNDY1LDMuNTIzYzAuMTI1LDAuMjksMC4zMzMsMC41NDYsMC41MTksMC44MDkmIzEwOyYjOTsmIzk7YzAuMDQ1LDAuMDYyLDAuMTc4LDAuMTMzLDAuMjI5LDAuMTA3YzAuMDc1LTAuMDMzLDAuMTQ3LTAuMTQ1LDAuMTU4LTAuMjNjMC4wMjYtMC4xOSwwLjAyNi0wLjM5LDAuMDE3LTAuNTgmIzEwOyYjOTsmIzk7Yy0wLjA0My0wLjk2My0wLjEyMy0xLjkyNSwwLjA0My0yLjg4NWMwLjAyNC0wLjE0NywwLjA2Ni0wLjMxMiwwLjAyOS0wLjQ0N2MtMC4zNjEtMS4zMTctMC44My0yLjU4OS0xLjY0Mi0zLjcwOCYjMTA7JiM5OyYjOTtjLTAuMDI1LTAuMDM1LTAuMDQxLTAuMDc4LTAuMDkzLTAuMTc3YzAuNTc5LDAuMjU4LDAuOTY4LDAuNjQsMS4yODMsMS4wODljMC4zMTUsMC40NTEsMC41OTEsMC45MywwLjkwMiwxLjQyOCYjMTA7JiM5OyYjOTtjMC4xMzEtMC41MzQsMC4yNTctMS4wNDgsMC4zODMtMS41NjJDMjguNzU5LDI2LjAzMSwyOC41MzUsMjUuNDIsMjcuOTMzLDI0Ljk4MXogTTI4LjU4NywxNy4yNjQmIzEwOyYjOTsmIzk7Yy0xLjQ3OC0xLjM5Ni0zLjIzLTIuMzgxLTUuMDctMy4yMTdjLTIuNDkxLTEuMTMyLTUuMDk5LTEuOTE3LTcuNzU5LTIuNTM1Yy0wLjk1MS0wLjIyMS0xLjkwOC0wLjQxMi0yLjkyNC0wLjYzJiMxMDsmIzk7JiM5O2MwLjQwOSwwLjUwNywwLjc3MSwwLjk2MSwxLjE0MywxLjQxYzAuMDM1LDAuMDQzLDAuMTE1LDAuMDYyLDAuMTc4LDAuMDcxYzEuNjY3LDAuMTczLDMuMjY5LDAuNjA0LDQuODEzLDEuMjQ2JiMxMDsmIzk7JiM5O2MzLjU3MSwxLjQ4Miw2LjYyOCwzLjcyMiw5LjM1Myw2LjQzOGMwLjAyNSwwLjAyNSwwLjA0MywwLjA1NywwLjA2MywwLjA4NWMtMC4wOTMtMC4wMjgtMC4xNjMtMC4wNzQtMC4yMzItMC4xMjImIzEwOyYjOTsmIzk7Yy0yLjI5OS0xLjU5Ni00LjY2NC0zLjA4NC03LjE1MS00LjM3MmMtMS41OTItMC44Mi0zLjIxNC0xLjU3NS00Ljk1OC0yLjAyMWMtMC40MTEtMC4xMDUtMC44MzEtMC4xNzUtMS4zMTItMC4yNzMmIzEwOyYjOTsmIzk7YzAuMDY3LDAuMTE0LDAuMDkzLDAuMTU2LDAuMTE3LDAuMmMwLjU0OCwwLjk1OCwxLjE1MSwxLjg5MywxLjYyNywyLjg4N2MwLjI5OCwwLjYyNSwwLjcxNSwxLjA4MywxLjI0NCwxLjQ4NiYjMTA7JiM5OyYjOTtjMS45OCwxLjUwNyw0LjE2MiwyLjY3LDYuMzg4LDMuNzU5YzAuMDIsMC4wMDksMC4wNDUsMC4wMDYsMC4xMTcsMC4wMTljLTAuODQ3LTEuMzQ0LTEuNjY0LTIuNjUyLTMuMTI0LTMuMzg5JiMxMDsmIzk7JiM5O2MwLjM3OCwwLjA2MiwwLjc1MywwLjEyNSwxLjExNCwwLjIzNWMxLjEyLDAuMzQzLDIuMDYyLDEuMDAzLDIuOTQ3LDEuNzQzYzEuMDgyLDAuOTAzLDIuMTI5LDEuODU0LDMuMjI2LDIuNzQ0JiMxMDsmIzk7JiM5O2MwLjU2NiwwLjQ2LDEuMTcxLDAuOTA0LDEuODI0LDEuMjIyYzAuNjg2LDAuMzMxLDEuNDQ4LDAuNTAyLDIuMTgxLDAuNzI5YzAuMTg3LDAuMDYyLDAuMzg5LDAuMDcyLDAuNjY0LDAuMTImIzEwOyYjOTsmIzk7Yy0wLjA5LTAuNDY0LTAuMTI4LTAuODcxLTAuMjUxLTEuMjQ5QzMxLjk2OSwyMS4yOTQsMzAuNTM1LDE5LjEwOCwyOC41ODcsMTcuMjY0eiBNMTUuMTA0LTIuNTAxJiMxMDsmIzk7JiM5O2MtMC41NDEtMC4zMDEtMS4xMTYtMC41NzEtMS43MDYtMC43NTFjLTEuMjA5LTAuMzY2LTIuNDY4LTAuMzcyLTMuNzIxLTAuMzY5QzguNzg5LTMuNjE5LDcuOTAxLTMuNjA3LDcuMDE0LTMuNjE3JiMxMDsmIzk7JiM5O0M2Ljc5Mi0zLjYyLDYuNTcyLTMuNjksNi4zNTEtMy43M0M2LjM1LTMuNzcxLDYuMzQ4LTMuODEyLDYuMzQ3LTMuODU0YzAuMTkxLTAuMDczLDAuMzc3LTAuMTYyLDAuNTcyLTAuMjE4JiMxMDsmIzk7JiM5O2MwLjYxOC0wLjE3NiwxLjIzOS0wLjMzNCwxLjg1Ni0wLjUwNmMwLjEyLTAuMDM1LDAuMjMxLTAuMTA0LDAuMzQ4LTAuMTU4QzkuMTE5LTQuNzYsOS4xMTUtNC43ODQsOS4xMTEtNC44MDgmIzEwOyYjOTsmIzk7Yy0wLjA4LTAuMDMyLTAuMTYtMC4wNzctMC4yNDUtMC4wOTZDNy42MjYtNS4xNDksNi4zOTEtNS40NDksNS4xNC01LjYyN0MzLjAyMi01LjkyOSwwLjkyMi02LjI5Ni0xLjEyOS02LjkyJiMxMDsmIzk7JiM5O2MtMC4xNzQtMC4wNTItMC4zNjctMC4wNzctMC41NDctMC4wNjVDLTMuNzUtNi44NDItNS44MjMtNi42OTItNy44OTgtNi41NDFjLTIuMzk4LDAuMTc1LTQuNzk2LDAuMTk4LTcuMTkxLTAuMDU1JiMxMDsmIzk7JiM5O2MtMi43MjEtMC4yODctNS4zNTMtMC45MzMtNy45MDEtMS45MTdjLTMuNjYxLTEuNDE1LTYuOTc5LTMuNDMzLTEwLjA5Ny01Ljc5NmMtMC4wNTMtMC4wNC0wLjEwMy0wLjA4OC0wLjE1NS0wLjEzMSYjMTA7JiM5OyYjOTtjMC4xMDIsMC4wMiwwLjE4MSwwLjA2MiwwLjI1NywwLjEwOGMyLjg0NywxLjcsNS43ODQsMy4yMTcsOC44ODcsNC4zOTljMi42MywxLjAwMSw1LjMzMSwxLjcyNCw4LjEyMiwyLjA5NCYjMTA7JiM5OyYjOTtjMi4wMTcsMC4yNjcsNC4wNDIsMC4zMjgsNi4wNzQsMC4zMTVjMi4yNzItMC4wMTIsNC41NDcsMCw2LjgxOSwwLjAwMWMwLjAzLDAsMC4wNTktMC4wMDQsMC4wOTItMC4wMDcmIzEwOyYjOTsmIzk7Qy0yLjk5OS03LjU0OC0zLTcuNTU5LTMuMDA0LTcuNTYyYy0wLjA1NC0wLjAyMi0wLjEwOC0wLjA0Ni0wLjE2My0wLjA2N2MtMi4wMzEtMC43OTQtMy45NTctMS43ODYtNS43MTUtMy4wODEmIzEwOyYjOTsmIzk7Yy0wLjUzMS0wLjM5NC0xLjEwMS0wLjY4OS0xLjcxMS0wLjkxOGMtMC40NzMtMC4xNzktMC45NDktMC4zNTQtMS40MzItMC41MDZjLTIuNDc5LTAuNzgzLTUuMDQ1LTEuMTY3LTcuNTk2LTEuNjI4JiMxMDsmIzk7JiM5O2MtMi4xMDItMC4zNzktNC4yMDMtMC43NjgtNi4yODctMS4yMjhjLTEuOS0wLjQxOS0zLjczNC0xLjA2Mi01LjQzOC0yLjAzMWMtMi45MjctMS42NjItNC42NDgtNC4xNS01LjExNy03LjQ5MSYjMTA7JiM5OyYjOTtjLTAuMDc0LTAuNTI1LTAuMTE2LTEuMDU3LTAuMTY5LTEuNTI4Yy0wLjEwMiwwLjE5LTAuMjEzLDAuNDItMC4zNDQsMC42NGMtMS4xMDksMS44NjUtMS44ODUsMy44NTEtMi4xMjcsNi4wMiYjMTA7JiM5OyYjOTtjLTAuMzI2LDIuOTMxLDAuNTEsNS40NTksMi42MzQsNy41MzZjMC4wODYsMC4wODUsMC4xNDYsMC4xOTksMC4yMDIsMC4zMTJjMC4zMDYsMC42MiwwLjU1OSwxLjI3MSwwLjkxNSwxLjg1OCYjMTA7JiM5OyYjOTtjMS4wMTQsMS42NjUsMi40NDcsMi45MTksNC4wNTksMy45NzljMi4xNDEsMS40MDUsNC40ODEsMi4zODYsNi44OTYsMy4yMDJjMy44MDgsMS4yODgsNy43MjcsMi4xMjksMTEuNjY2LDIuODg2JiMxMDsmIzk7JiM5O2MzLjIwOCwwLjYxNyw2LjQyMywxLjIwOSw5LjYzLDEuODMyYzIuNTAyLDAuNDg0LDQuOTM1LDEuMTcsNy4yMzgsMi4zMDVjMi44ODksMS40MjIsNS41NjQsMy4xMyw3LjgyOSw1LjQzOSYjMTA7JiM5OyYjOTtjMC4wNzUsMC4wNzgsMC4yMTksMC4xMiwwLjMzMywwLjEyNGMxLjUxNSwwLjA0MywzLjAyLDAuMTg1LDQuNTA5LDAuNDY2YzQuMTY3LDAuNzksNy45ODUsMi40MTMsMTEuNDgxLDQuODA4JiMxMDsmIzk7JiM5O2MwLjA1NywwLjAzNywwLjExOCwwLjA2NSwwLjIxMywwLjEyM2MtMC4wMjEtMC4xMjUtMC4wMy0wLjItMC4wNDgtMC4yNzJjLTAuMjk0LTEuMzAzLTAuNjc1LTIuNTgxLTEuMTcyLTMuODImIzEwOyYjOTsmIzk7QzI0Ljg1NCw1LjMzMywyMC44MTYsMC42NzksMTUuMTA0LTIuNTAxeiBNNDguNjI5LTM0LjIzOGMtMC4xMDEtMC45OTYtMC4zMDgtMS45ODMtMC41MjYtMi45NjMmIzEwOyYjOTsmIzk7Yy0wLjMzOS0xLjUwNy0xLjI2LTIuNTA0LTIuNzUzLTIuOTU1Yy0wLjY2OC0wLjIwMi0xLjM1NC0wLjI4Mi0yLjA1LTAuMjg0Yy0xLjM2Ny0wLjAwMy0yLjcwNiwwLjIxNy00LjAyOSwwLjU0NCYjMTA7JiM5OyYjOTtjLTEuMTAyLDAuMjc2LTIuMTY2LDAuNjQ3LTMuMTIyLDEuMjc3Yy0wLjkxMSwwLjYwMS0xLjU5LDEuMzgyLTEuODUzLDIuNDcxYy0wLjE2MiwwLjY4MS0wLjExNiwxLjM1NC0wLjAwNSwyLjAzNiYjMTA7JiM5OyYjOTtjMC4wNDQsMC4yNzEsMC4xNjEsMC4zOSwwLjQxLDAuNDg3YzIuMTc3LDAuODY5LDMuOTE1LDIuMjQ4LDQuOTU4LDQuMzk2YzAuMTM5LDAuMjg0LDAuMzM3LDAuNDI4LDAuNjQsMC40NTkmIzEwOyYjOTsmIzk7YzEuMDQxLDAuMTE1LDIuMDYxLDAuMDc3LDMuMDEyLTAuNDI4YzAuNjExLTAuMzI0LDEuMjItMC4yODcsMS44MjMsMC4wMDZjMC4yNDgsMC4xMjEsMC40ODksMC4yNzEsMC43MDksMC40MzgmIzEwOyYjOTsmIzk7YzAuMjc0LDAuMjA5LDAuNTIzLDAuNDUyLDAuODI2LDAuNzE4YzAuMDI2LTAuMDQ0LDAuMDQ0LTAuMDg0LDAuMDcxLTAuMTE2QzQ4LjI0Ny0yOS45MSw0OC44NTctMzEuOTU3LDQ4LjYyOS0zNC4yMzh6JiMxMDsmIzk7JiM5OyBNMzIuNTI5LTM4LjY4NmMwLjE2Ny0wLjEwOSwwLjMxNy0wLjI1LDAuNDY3LTAuMzg4YzEuMjk3LTEuMjA5LDIuNzkyLTIuMDg3LDQuNDQ5LTIuNzA5YzEuNDc5LTAuNTU1LDMuMDE2LTAuODA0LDQuNTgxLTAuODg4JiMxMDsmIzk7JiM5O2MxLjE1OC0wLjA2MiwyLjMyNC0wLjA1MiwzLjQ1LDAuMjU1YzAuNzcsMC4yMSwxLjUwOSwwLjUyNywyLjI3LDAuNzc3YzAuMTYyLDAuMDUzLDAuNDA4LDAuMDksMC41MTcsMC4wMDYmIzEwOyYjOTsmIzk7YzAuMTg1LTAuMTQzLDAuMDQ2LTAuMzctMC4wMjItMC41NmMtMC4wMDMtMC4wMDgtMC4wMS0wLjAxNS0wLjAxMy0wLjAyMWMtMC41NDItMS4wMzMtMS4yNS0xLjkyNi0yLjIwOS0yLjYwNCYjMTA7JiM5OyYjOTtjLTEuNzI4LTEuMjIxLTMuNjcxLTEuNDYyLTUuNzA4LTEuMjI5Yy0wLjMzNCwwLjAzOC0wLjYyMy0wLjAyMy0wLjg5Ni0wLjE3OGMtMC4xMjgtMC4wNzMtMC4yMDctMC4yMzEtMC4zMDktMC4zNTImIzEwOyYjOTsmIzk7YzAuMDE5LTAuMDIxLDAuMDM3LTAuMDQ1LDAuMDU1LTAuMDY2YzAuMDczLDAuMDA4LDAuMTQ1LDAuMDIxLDAuMjE4LDAuMDIyYzAuMzc4LDAuMDEyLDAuNzYzLDAuMDcsMS4xMzIsMC4wMjEmIzEwOyYjOTsmIzk7YzEuMTktMC4xNTgsMS43NTgtMS40NzEsMS4wNzMtMi40MzljLTAuMjMtMC4zMjctMC41MjktMC41NjItMC45NTQtMC41MDljLTAuNDM4LDAuMDU4LTAuNjU2LDAuMzgzLTAuODA1LDAuNzYmIzEwOyYjOTsmIzk7Yy0wLjAzNiwwLjA5Mi0wLjA1LDAuMTk2LTAuMDYxLDAuMjk3Yy0wLjA0NCwwLjM4MS0wLjA3MiwwLjQzNC0wLjQ2NCwwLjQyMWMtMC4zNjktMC4wMTEtMC43MzctMC4wNjgtMS4xMDQtMC4xMjQmIzEwOyYjOTsmIzk7Yy0wLjQ1Ni0wLjA2NC0wLjc1MiwwLjEwNC0wLjg5NSwwLjU0NWMtMC4xMTYsMC4zNTYtMC4wODEsMC43MTYsMC4wOTQsMS4wMzJjMC4xODksMC4zNDYsMC40MjksMC42NjEsMC42MzYsMC45NzgmIzEwOyYjOTsmIzk7Yy0wLjU1NCwwLjIzMS0xLjE2MywwLjQ0LTEuNzI5LDAuNzM0Yy0yLjE2NywxLjEyMy0zLjYzNSwyLjgyMy00LjE4OCw1LjI0Yy0wLjA1NiwwLjIzNi0wLjA3OSwwLjQ4Ni0wLjA3MSwwLjcyOSYjMTA7JiM5OyYjOTtDMzIuMDU0LTM4LjU5LDMyLjI0Ni0zOC40OTcsMzIuNTI5LTM4LjY4NnogTTMzLjY1OS0zNS42NjFjMC4xNjMtMC41MTEsMC4yNy0xLjAyOSwwLjQ4Ny0xLjQ5NGMwLjUwNC0xLjA3NiwxLjQtMS43NzQsMi40NDctMi4yNTgmIzEwOyYjOTsmIzk7YzIuNDg0LTEuMTQyLDUuMTAzLTEuNjUzLDcuODMxLTEuNDIxYzEuNjUyLDAuMTQsMy4wMiwwLjgzLDMuNzg4LDIuNDFjMC4wMDMsMC4wMDYsMC4wMTMsMC4wMSwwLjA0MywwLjAzNCYjMTA7JiM5OyYjOTtjMC41MDUtMC4yMzQsMC43ODctMC42MjQsMC44NTUtMS4xNzJjMC4wNjItMC41MDQtMC4xNTMtMC44OTQtMC41NzctMS4xMTljLTAuNTQ4LTAuMjkyLTEuMTA3LTAuNTkzLTEuNjk3LTAuNzcxJiMxMDsmIzk7JiM5O2MtMi40OTItMC43NTUtNS4wMTItMC43MzctNy41My0wLjEyN2MtMS45MTgsMC40NjQtMy42ODgsMS4yNTEtNS4yMzIsMi40OThjLTAuNjAyLDAuNDg2LTEuMTUyLDEuMDIyLTEuNDk1LDEuNzMyJiMxMDsmIzk7JiM5O2MtMC4wODUsMC4xNzYtMC4xNjQsMC4zODgtMC4xNSwwLjU3NEMzMi40NzMtMzYuMTk0LDMzLjExNy0zNS42NTgsMzMuNjU5LTM1LjY2MXogTS00NS40ODgtMjIuOTczJiMxMDsmIzk7JiM5O2MtMi4wMjMsMy41MTktMy4wNzYsNy4yNTQtMy4wNzcsNy44MjdjLTAuMDA2LDEuNzkxLDAuMTMyLDMuNTc2LDAuNDAxLDUuMzU0YzAuMDYyLDAuNDEyLDAuMTQ0LDAuODIxLDAuMjE1LDEuMjMyJiMxMDsmIzk7JiM5O2MwLjA3Ni0wLjA3NSwwLjEwMS0wLjE1MSwwLjEyNC0wLjIyOWMwLjI5OS0wLjk5MywwLjU1OS0yLDAuOTAxLTIuOTc4YzEuNzk4LTUuMTI1LDQuNTMzLTkuNzIyLDcuOTItMTMuOTQ1JiMxMDsmIzk7JiM5O2MwLjEyMy0wLjE1NCwwLjIyOS0wLjMzNiwwLjI5LTAuNTIzYzAuNzM2LTIuMjY3LDEuNzkyLTQuMzI0LDMuMTQ2LTYuMTg4Yy0xLjUxOCwwLjY0Ny0zLjI0OCwwLjg4LTUuMzA4LDMuMjUxJiMxMDsmIzk7JiM5O2MyLjUzMS00Ljg4MSw4LjUyNy02LjgxNSw4LjUyNy02LjgxNWMzLjMzNy0yLjk4NSw3LjIxOS00Ljk1OCwxMS41Mi02LjEzOWMwLjM0Ny0wLjA5NSwwLjY5OC0wLjE3MSwxLjA0OS0wLjI1NSYjMTA7JiM5OyYjOTtjLTAuMDc3LDAuMDc0LTAuMTYzLDAuMTA0LTAuMjQ5LDAuMTM4Yy0zLjIsMS4xNDUtNi4xNSwyLjc0MS04LjgyLDQuODQ2Yy0zLjMyMywyLjYyLTUuODM1LDUuODQ4LTcuMzM3LDkuODI4JiMxMDsmIzk7JiM5O2MtMC4xNjEsMC40MjgtMC4yMzcsMC44MjctMC4wNzIsMS4yNjljMC4xMTIsMC4zLDAuMTcsMC42MTksMC4yNjMsMC45MjZjMC43MDYsMi4zMDcsMS44MTEsNC4zODEsMy41ODgsNi4wNTUmIzEwOyYjOTsmIzk7YzEuNywxLjYwNCwzLjc0MywyLjU3Myw1Ljk1OSwzLjIyN2MyLjY1NCwwLjc3OCw1LjM5NiwxLjA2NSw4LjEyNSwxLjQyM2MxLjU4MywwLjIwNiwzLjE1OCwwLjQ1Niw0LjczNiwwLjY5NyYjMTA7JiM5OyYjOTtjMC40MjQsMC4wNjMsMC44NDMsMC4xNjgsMS4yOTQsMC4yNjFjLTAuMDM0LTAuMDU2LTAuMDQ0LTAuMDgxLTAuMDYxLTAuMTAxYy0xLjIzMy0xLjM4My0yLjI1OS0yLjkwMi0zLjA3NS00LjU2OCYjMTA7JiM5OyYjOTtjLTAuMDQ5LTAuMTAzLTAuMTYyLTAuMjA1LTAuMjctMC4yMzljLTAuNzI5LTAuMjMtMS40NTMtMC41MDMtMi4yMDEtMC42NTNjLTEuMTA5LTAuMjIxLTIuMjQzLTAuMzA2LTMuMzUyLTAuNTI0JiMxMDsmIzk7JiM5O2MtNS45NDctMS4xODEtNy43OC00LjM2Ny03Ljc1My00LjMzOGMxLjgwNiwxLjkxOCw0LjY5NiwyLjQ1OSw1LjQ1OSwyLjcyNWMxLjc4LDAuNjE5LDMuNjI0LDAuNzg3LDUuNDkzLDAuNzY5JiMxMDsmIzk7JiM5O2MwLjU0Ni0wLjAwOCwxLjA5MS0wLjA0LDEuNjUzLTAuMDYyYy0xLjY3Ni01LjQ3NC0xLjQ1Ni0xMC44MSwwLjgxNi0xNi4wMzdjMC4wMDIsMC4wOTgtMC4wMiwwLjE5My0wLjA0NCwwLjI4NyYjMTA7JiM5OyYjOTtjLTAuODg5LDMuMzc2LTEuMjQ5LDYuNzkxLTAuNzQxLDEwLjI2N2MwLjYxMyw0LjIyMSwyLjQ0OCw3LjgxNyw1LjUxMywxMC43OGMyLjI5NywyLjIyLDQuOTk4LDMuODE4LDcuODk2LDUuMTA2JiMxMDsmIzk7JiM5O2MyLjc1MywxLjIyNCw1LjY0NywxLjk4MSw4LjU2NSwyLjY4NWMyLjE5NiwwLjUyOSw0LjQwMSwxLjA0OCw2LjU2OSwxLjY4N2MyLjkwNCwwLjg1MSw1LjUzMywyLjI0OSw3Ljc3Myw0LjMxNSYjMTA7JiM5OyYjOTtjMC4zNDcsMC4zMiwwLjY5NywwLjY0NywwLjk4MywxLjAyMWMxLjg4NywyLjQ0Miw0LjE4OCw0LjM1NCw3LjAxOSw1LjZjMC4xNzksMC41OTksMC40OTIsMS4yMzEsMC45NzksMS44OTEmIzEwOyYjOTsmIzk7YzAuNjkyLDAuOTI2LDEuNTQ4LDEuNjg5LDIuNDcsMi4zNzRjMC4yNjEsMC4xOTMsMC42MDgsMC4zMDQsMC45MzMsMC4zNjhjMC4zNTQsMC4wNzMsMC41NjctMC4wOTgsMC42ODgtMC40NDEmIzEwOyYjOTsmIzk7YzAuMDMyLTAuMDk3LDAuMDU0LTAuMTk0LDAuMDczLTAuMjkzYzAuMTg5LTAuMDY1LDAuMzc3LTAuMTY3LDAuNTYyLTAuMzExYzAuMTI3LTAuMDk4LDAuMjQ5LTAuMjA0LDAuMzYxLTAuMzE1JiMxMDsmIzk7JiM5O2MwLjUyMS0wLjUyNCwwLjg4Ni0xLjE0OCwxLjE4Mi0xLjgxN2MwLjA2NC0wLjE0NSwwLjE1LTAuMjAyLDAuMjk5LTAuMjIxYzAuMzUxLTAuMDQ2LDAuNzAzLTAuMDk1LDEuMDUtMC4xNjImIzEwOyYjOTsmIzk7YzUuNjMyLTEuMTE0LDkuNzMzLTUuMzk0LDEwLjQ0OC0xMS41NDhjMC4wNjQtMC41NTUsMC4wNi0xLjEzLDAuMjI2LTEuNjVjMC4yMTItMC42NjEsMC41NjQtMS4yNzcsMC44NTYtMS45MTMmIzEwOyYjOTsmIzk7YzAuMjU3LTAuNTU5LDAuNTM5LTEuMTA3LDAuNzYxLTEuNjgxYzAuMjI4LTAuNTg3LDAuMjU3LTEuMTk5LDAuMDc5LTEuODE2Yy0wLjA2MS0wLjIxMi0wLjE4NS0wLjI2OC0wLjM1LTAuMTY1JiMxMDsmIzk7JiM5O2MtMC4yMzIsMC4xNDYtMC40NDEsMC4zMjktMC42NjIsMC40OTRjLTAuMjY5LDAuMjAxLTAuNTIsMC40MzEtMC44MTEsMC41OWMtMC4yMzcsMC4xMzEtMC41MDYsMC4xMDQtMC43MTgtMC4xMzkmIzEwOyYjOTsmIzk7YzAuMDQ5LTAuMDM3LDAuMDktMC4wNjYsMC4xMjYtMC4xYzAuNTgtMC41MTcsMS4xNjItMS4wMjksMS43MzMtMS41NTZjMC4wNjgtMC4wNjIsMC4xMTctMC4xODgsMC4xMTEtMC4yODUmIzEwOyYjOTsmIzk7Yy0wLjA1MS0wLjgxNy0wLjMyMi0xLjU1OC0wLjkwMy0yLjE0NmMtMC43NDctMC43NTctMS42MjYtMS4xNjEtMi43MTgtMC45MDVjLTAuMDI4LTAuNDA3LTAuMDU2LTAuNDc3LTAuMjktMC42MDMmIzEwOyYjOTsmIzk7Yy0xLjUxOS0wLjgyMy0zLjEyOS0xLjMwOC00Ljg3LTEuMjc1Yy0xLjI4MSwwLjAyMi0yLjQzNi0wLjM4NC0zLjUzOC0xYy0wLjM0Mi0wLjE5MS0wLjcwOS0wLjM2My0xLjA4Ni0wLjQ2MyYjMTA7JiM5OyYjOTtjLTEuMTktMC4zMTYtMi40MTItMC40MDctMy42NC0wLjQzOWMtMC4xMDEtMC4wMDItMC4yLTAuMDA4LTAuMy0wLjAxM2MwLjA2My0wLjA3MSwwLjEyNi0wLjA5MywwLjE4OS0wLjEwOCYjMTA7JiM5OyYjOTtjMC45OC0wLjIzMSwxLjk3My0wLjI2MSwyLjk3NC0wLjE4OGMwLjMyNCwwLjAyMywwLjY4OSwwLjA5MywwLjk3MS0wLjAyMWMwLjgyNi0wLjMzNiwxLjYyNy0wLjczOCwyLjQyMi0xLjE0NyYjMTA7JiM5OyYjOTtjMC4yMjMtMC4xMTUsMC40MTktMC4xNywwLjY0NS0wLjA4NmMwLjUwNSwwLjE4OSwxLjAxMiwwLjM3NiwxLjUwNCwwLjU5NWMxLjA0NiwwLjQ2NSwyLjExNywwLjc0NSwzLjI3MiwwLjU4NiYjMTA7JiM5OyYjOTtjMC42MzItMC4wODYsMS4yNDgtMC4yMjUsMS43OTktMC41NjJjMC4zNTctMC4yMiwwLjYzOS0wLjUsMC42NjctMC45NTZjMC4wMDUtMC4wNjQsMC4wNjMtMC4xMzUsMC4xMTUtMC4xODMmIzEwOyYjOTsmIzk7YzAuMTQ4LTAuMTM3LDAuMzEyLTAuMjYsMC40NjEtMC4zOTZjMC40NC0wLjQwNiwwLjYyNi0wLjkxLDAuNTcyLTEuNTA1Yy0wLjA0Ny0wLjUtMC4xOTUtMC41ODMtMC42My0wLjM2MiYjMTA7JiM5OyYjOTtjLTAuMjEsMC4xMDYtMC40MjksMC4xOTMtMC42NDksMC4wMjVjMC4yNzktMC4xNzgsMC41NTItMC4zMzgsMC44MTMtMC41MThjMC4zOTEtMC4yNjgsMC41My0wLjY1NCwwLjUxNi0xLjExOSYjMTA7JiM5OyYjOTtjLTAuMDQxLTEuMjk0LTEuNTY3LTIuNDM5LTIuODc3LTIuMTVjLTAuNDMyLDAuMDk1LTAuODE4LDAuMjY2LTEuMDU0LDAuNjc1Yy0wLjAzMSwwLjA1NC0wLjEyLDAuMTExLTAuMTgsMC4xMDcmIzEwOyYjOTsmIzk7Yy0wLjM0Mi0wLjAxOS0wLjY5MS0wLjAxNy0xLjAyMS0wLjA5MWMtMC42MDUtMC4xMzctMS4yMDQtMC4yODItMS44MjctMC4xNjRjLTAuMjg3LDAuMDU1LTAuNTcsMC4xMzQtMC44NjcsMC4yMDImIzEwOyYjOTsmIzk7Yy0wLjIzMi0wLjgwOC0wLjYxNC0xLjUyNi0xLjEyNC0yLjE3N2MtMS4xODUtMS41MDYtMi43NDMtMi40Ni00LjU0LTMuMDQ5Yy0yLjMzLTAuNzY1LTQuNzI0LTAuODQ5LTcuMTIxLTAuNTA1JiMxMDsmIzk7JiM5O2MtMy40NjUsMC40OTUtNS45MjEsMi4zNzYtNy4yNDYsNS42MzljLTAuMzI4LDAuODA3LTAuNDk3LDEuNjc4LTAuNzQ0LDIuNTIxYy0wLjM5NywxLjM1Ni0wLjkyNywyLjY2LTEuNjMxLDMuODkyJiMxMDsmIzk7JiM5O2MtMS4xMzMsMS45NzgtMi42MiwzLjYwNi00LjY1Nyw0LjY4Yy0yLjI4OCwxLjIwNi00LjcyLDEuNDQ3LTcuMjM5LDAuOTk5Yy0wLjQ3OC0wLjA4NS0wLjk0OC0wLjIwOC0xLjQ3Ny0wLjMyNyYjMTA7JiM5OyYjOTtjMC45MjEtMC4wNTUsMS43NjgtMC4wNzQsMi42MDctMC4xNTljMi4zMzctMC4yMzUsNC41MjctMC45MzcsNi41MTctMi4xOTdjMi4zNjctMS41MDEsNC4xMzctMy40NjksNC44NzctNi4yNjEmIzEwOyYjOTsmIzk7YzAuMzk1LTEuNDkxLDAuOTUtMi45MzgsMS42NDMtNC4zMjRjMC40NjEtMC45MjgsMC45NzEtMS44MTcsMS42ODMtMi41OGMxLjE4My0xLjI2OCwyLjY2OS0xLjk4Myw0LjMwNy0yLjQ0NCYjMTA7JiM5OyYjOTtjMC41MDQtMC4xNDEsMS4wMDQtMC4yOTcsMS41MDEtMC40NTdjMC4yNDYtMC4wOCwwLjQtMC4yNTQsMC40OTctMC41MDNjMC4yNzQtMC43MTIsMC4zNTMtMS40MzksMC4yMDUtMi4xODgmIzEwOyYjOTsmIzk7Yy0wLjIyOS0xLjE3OC0wLjgwNS0yLjE3OC0xLjU4LTMuMDcyYy0wLjY2Ni0wLjc3MS0xLjUtMS4zMzQtMi4zMzQtMS44OTdjLTAuNDA2LTAuMjcxLTAuOC0wLjU2Ni0xLjE3LTAuODg1JiMxMDsmIzk7JiM5O2MtMC4zMi0wLjI3Mi0wLjUxNS0wLjY0Ni0wLjQ5NS0xLjA3M2MwLjAzNS0wLjc2MywwLjA4LTAuODg0LDAuODQtMC42MzFjMC4xMTksMC4wNCwwLjIzNywwLjA4NywwLjM1MywwLjEzOCYjMTA7JiM5OyYjOTtjMC42MjEsMC4yNjcsMS4yMzksMC41MzksMS44NjMsMC44YzEuMTk4LDAuNTAxLDIuNDQxLDAuNjg2LDMuNzE3LDAuMzc5YzEuNDE1LTAuMzM4LDIuNDEzLTEuMTY5LDIuODYyLTIuNTg5JiMxMDsmIzk7JiM5O2MwLjA5Mi0wLjI5MSwwLjExNC0wLjYtMC4wNDItMC44NjFjLTAuMDc1LTAuMTI5LTAuMjY4LTAuMjU2LTAuNDExLTAuMjZjLTAuMTI5LTAuMDA0LTAuMjgxLDAuMTQzLTAuMzg3LDAuMjU4JiMxMDsmIzk7JiM5O2MtMC4wNjUsMC4wNzItMC4wNjMsMC4yMDYtMC4wOTIsMC4zMTJjLTAuMTQ2LDAuNTQ4LTAuMzg1LDEuMDMyLTAuOTIzLDEuMjk4Yy0wLjEwMiwwLjA1MS0wLjIxOCwwLjA2NC0wLjMyOCwwLjA5NyYjMTA7JiM5OyYjOTtjMC43MTctMC43NDQsMS4xMDUtMS41ODYsMS4wNTMtMi42MDFjLTAuMDM5LTAuNzcxLTAuNjQzLTEuMjczLTEuNDItMS4yMjljLTAuMjI2LDAuMDEzLTAuMzg1LDAuMTE5LTAuNDEsMC4zMzkmIzEwOyYjOTsmIzk7Yy0wLjAzMSwwLjI2Ny0wLjAxOSwwLjUzNy0wLjAyNCwwLjgwNmMtMC4wMDksMC4zMiwwLjAxNSwwLjY0Ni0wLjAzLDAuOTZjLTAuMDcxLDAuNTE1LTAuMzg4LDAuODUtMC44ODMsMS4wMDkmIzEwOyYjOTsmIzk7Yy0wLjIzOSwwLjA3Ni0wLjQ2OSwwLjAzNS0wLjY5MS0wLjA3OGMwLjMxMi0wLjA2NCwwLjYxLTAuMTU4LDAuNzY3LTAuNDVjMC4xNTEtMC4yOCwwLjMwNS0wLjU3MiwwLjM4MS0wLjg3NyYjMTA7JiM5OyYjOTtjMC4xNjMtMC42NTgsMC4wODQtMS4yOTMtMC41MjEtMS42OTdjLTAuMjcyLTAuMTgxLTAuNjQtMC4yNTYtMC45NzQtMC4zMDJjLTAuNzE3LTAuMS0xLjQwNSwwLjEwMy0yLjA5OCwwLjI2MyYjMTA7JiM5OyYjOTtjLTAuNDE2LDAuMDk3LTAuODQ3LDAuMTYxLTEuMjcxLDAuMTYyYy0wLjQwMSwwLjAwMS0wLjgwNi0wLjA4NC0xLjIwMy0wLjE1NWMtMi40MTgtMC40MzYtNC44NDgtMC4yNTEtNy4zMS0wLjIyMiYjMTA7JiM5OyYjOTtjLTIuNjYzLDAuMDMzLTUuMzI2LDAuMDE3LTcuOTg5LDAuMDE5Yy00Ljc2NywwLTkuNTM1LDAuMDAyLTE0LjMwNSwwLjAwMmMtMS45NjksMC0zLjkzOS0wLjAyLTUuOTA4LTAuMDA3JiMxMDsmIzk7JiM5O2MtMi43MTUsMC4wMTctNS40MDEsMC4zMjMtOC4wMjcsMS4wMTJjLTEwLjAwMywyLjYxNi0xNy40ODksOC4wMzEtMjIuNDIzLDE3LjEwOGMtMi4xNzUsNC4wMDQtMy40MTcsOC4yODctMy44NTQsMTIuNzg0JiMxMDsmIzk7JiM5O0MtNDguNDQ3LTE3Ljk1Ny00NS40NTktMjMuNTE5LTQ1LjQ4OC0yMi45NzN6IiBmaWxsPSIjMEQwRDBEIi8+JiN4YTsgICAgPHBhdGggZD0iTTMyLjcyMSwwLjYwOGMtMC44MzksMS43ODktMC44NDksMi41NDUsMC4wNzksNC4yMzhjMC43LDEuMjc4LDIuNTYsMC4xNDEsMi4zMDgsMS41NjgmIzEwOyYjOTsmIzk7Yy0wLjEwNiwxLjI0LTEuNDA1LDIuNjAyLTEuNjQ2LDIuODk4Yy0wLjI5NiwwLjM1MS0wLjQ2MSwwLjY5Ni0wLjg5OCwwLjYwN2MtMC40LTAuMDgyLTAuNzc5LTAuMjc1LTEuMTAxLTAuNTE0JiMxMDsmIzk7JiM5O2MtMS4xMzctMC44NDUtMi4xOTEtMS43ODctMy4wNDUtMi45MjhjLTEuNTQzLTIuMDU5LTAuOTA3LTMuMzA4LDAuOS00Ljk1QzMwLjA4MywwLjgzNSwzMi44MTEsMC40MTcsMzIuNzIxLDAuNjA4eiIgZmlsbD0iI0U2NTI3MCIvPiYjeGE7ICAgIDxwYXRoIGQ9Ik0zMS4wNDgsNy4zOTljMC40NDUsMC40ODYsMS4xMzgsMC45NTYsMS44NjEsMS40MzgmIzEwOyYjOTsmIzk7YzAuMzg0LDAuMjU0LTAuNzU5LTIuODY3LTEuMDkyLTMuN2MtMS4wOTItMi43MjksMC4zMzktNC40Mi0wLjA1NS00LjIxMWMtMC44NjYsMC40Ni0yLjEwMywyLjA2Ny0yLjE4OSwzLjA2JiMxMDsmIzk7JiM5O0MyOS40NzcsNS4wNjEsMzAuMzEyLDYuNTk0LDMxLjA0OCw3LjM5OXoiIGZpbGw9IiMyQjJCMkIiIG9wYWNpdHk9IjAuMiIvPiYjeGE7ICAgIDxnPiYjeGE7ICAgICAgPHBhdGggZD0iTTMyLjM3NSwwLjc3NWMtMC44NCwxLjc4OC0wLjg0OSwyLjU0NCwwLjA4LDQuMjM3YzAuNjk5LDEuMjc3LDEuMDIzLDIuNTY0LDAuNzcxLDMuOTkzJiMxMDsmIzk7JiM5OyYjOTtjLTAuMDI4LDAuMTU5LTAuMDU5LDAuMzIxLTAuMTExLDAuNDc1Yy0wLjE0OSwwLjQyOS0wLjQxMiwwLjYzOS0wLjg0OSwwLjU0OWMtMC40LTAuMDgyLTAuODMtMC4yMTctMS4xNS0wLjQ1NSYjMTA7JiM5OyYjOTsmIzk7Yy0xLjEzNy0wLjg0NS0yLjE5MS0xLjc4Ny0zLjA0NS0yLjkyOGMtMS4xODQtMS41NzktMS4wNTQtMi42NTctMC4xNTctMy44NTRjMC4yNTctMC4zNDIsMC40MTUtMC4zMzIsMC43NDYtMC4zOTQmIzEwOyYjOTsmIzk7JiM5O2MwLjQyOC0wLjA4MSwwLjUxNSwwLjUxNSwwLjM3OSwwLjc1NmMtMC4zMTMsMC41NTQtMC41MTksMS4xMTEtMC41NTgsMS41NDljLTAuMDk1LDEuMDc2LDAuNTA3LDIuMjQ0LDEuMjQzLDMuMDQ5JiMxMDsmIzk7JiM5OyYjOTtjMC42ODIsMC43NDYsMi4wNjEsMS45MDQsMy4wMDIsMi4xODVjMC4yMjctMC44NzEtMC4yNTctMi42MDktMC41NjQtMy40NTNjLTAuMzc0LTEuMDMxLTEuNTA2LTIuOTEyLTEuMjIyLTQuMTM4JiMxMDsmIzk7JiM5OyYjOTtjMCwwLDAuMzk5LTEuMTM0LDAuODIyLTEuNDIyQzMyLjE4NSwwLjYzOCwzMi4zNzUsMC43NzUsMzIuMzc1LDAuNzc1eiIgZmlsbD0iIzBEMEQwRCIvPiYjeGE7ICAgIDwvZz4mI3hhOyAgICA8cGF0aCBkPSJNMjcuODk3LDM0LjY4OSIgZmlsbD0idXJsKCNTVkdJRF8zOV8pIi8+JiN4YTsgICAgPGcgb3BhY2l0eT0iMC4yIj4mI3hhOyAgICAgIDxwYXRoIGQ9Ik0tMTguNjA3LTE5Ljg2M2MtMC4xMTUtMC4wMDYtMC4yMjEsMC4wMDYtMC4zMDgsMC4wNTNDLTE4LjgwNi0xOS44MDQtMTguNzAzLTE5LjgyNC0xOC42MDctMTkuODYzeiIgZmlsbD0iIzhCNEZCQSIvPiYjeGE7ICAgIDwvZz4mI3hhOyAgICA8cGF0aCBkPSJNMzMuMDg4LTM0Ljg1NGMwLjk4MSwxLjQ5LDIuMDg0LDEuOTk0LDMuMzMsMy4xNjcmIzEwOyYjOTsmIzk7YzEuMTg1LDEuMTEzLDIuMDk1LDIuNDU2LDMuMjc1LDMuNTQ5YzAuOTI0LTAuMTkzLDEuOTYzLTAuMDM3LDIuOTExLTAuMDg1YzAuNjc4LTEuNjc0LDMuOTctMC4wODEsNC4yNzEsMC45OTlsMC40MzctMC42NTUmIzEwOyYjOTsmIzk7YzAuOTQ5LTEuODY5LTIuNDU1LTEuOTk0LTQuMzkzLTEuOGMtMS4zNiwwLjEzNS03LjIzLTEuNDA4LTcuMDM3LTguOTc5Yy0wLjY2MS0xLjAxNS0yLjIxOC0wLjAyNC0yLjIyLTEuMzQ3JiMxMDsmIzk7JiM5O2MtMC4wMDEtMS4zNTQsMC4wMjEtMy43NDIsMS4xOTEtNC42MDRjLTAuMzM1LTEuMTgxLTEuNDk4LDAuMDY4LTEuODE5LDAuNTQxYy0wLjcxOCwxLjA1OS0xLjc0NCwyLjkzNC0xLjk3Nyw0LjE4OSYjMTA7JiM5OyYjOTtDMzAuNjYzLTM3LjczNSwzMi4wMTUtMzYuNDgzLDMzLjA4OC0zNC44NTR6IiBmaWxsPSIjNDMwQTFEIiBvcGFjaXR5PSIwLjIiLz4mI3hhOyAgPC9zeW1ib2w+JiN4YTsgIDxzeW1ib2wgdmlld0JveD0iLTMgLTMuNSA2IDciIGlkPSJOZXdfU3ltYm9sXzIiPiYjeGE7ICAgIDxwYXRoIGQ9Ik0wLTMuNWMtMC4xODQsMC0wLjM2OCwwLjA1MS0wLjUzLDAuMTUybC0yLDEuMjVDLTIuODIyLTEuOTE1LTMtMS41OTUtMy0xLjI1djIuNSYjMTA7JiM5OyYjOTtjMCwwLjM0NSwwLjE3OCwwLjY2NiwwLjQ3LDAuODQ4bDIsMS4yNUMtMC4zNjgsMy40NDktMC4xODQsMy41LDAsMy41czAuMzY4LTAuMDUxLDAuNTMtMC4xNTJsMi0xLjI1QzIuODIyLDEuOTE2LDMsMS41OTUsMywxLjI1JiMxMDsmIzk7JiM5O3YtMi41YzAtMC4zNDUtMC4xNzgtMC42NjUtMC40Ny0wLjg0OGwtMi0xLjI1QzAuMzY4LTMuNDQ5LDAuMTg0LTMuNSwwLTMuNXoiIGZpbGw9IiNGRkZGRkYiLz4mI3hhOyAgICA8cG9seWdvbiBwb2ludHM9Ii0zLDMgMywzIDMsLTMgLTMsLTMiIGZpbGw9Im5vbmUiIGRpc3BsYXk9Im5vbmUiLz4mI3hhOyAgPC9zeW1ib2w+JiN4YTsgIDxnIHRyYW5zZm9ybT0ibWF0cml4KDAuNjA5NzU4LCAwLCAwLCAwLjU3MzUzMywgLTY5MC42MDg2NDMsIDczLjU1MzY2NSkiPiYjeGE7ICAgIDx1c2UgeGxpbms6aHJlZj0iI05ld19TeW1ib2xfMyIgb3ZlcmZsb3c9InZpc2libGUiIHRyYW5zZm9ybT0ibWF0cml4KDMuNTAzNSAwIDAgLTMuNTAzNSAxMzcwLjM0MTggMjc3LjE5OTIpIiB5PSItNTAuOTU1IiB4PSItNTAuNDUyIiBoZWlnaHQ9IjEwMS45MSIgd2lkdGg9IjEwMC45MDQiLz4mI3hhOyAgICA8Zz4mI3hhOyAgICAgIDxwYXRoIGQ9Ik0xNTY2Ljk0MSwzNTIuNTQ1aDY3LjQwNHYxNi4yMjVoLTQ4LjgydjI4LjYxM2g0Ni4wMTl2MTUuNjM1aC00Ni4wMTl2NDMuOTU0aC0xOC41ODRWMzUyLjU0NUwxNTY2Ljk0MSwzNTIuNTQ1eiIvPiYjeGE7ICAgICAgPHBhdGggZD0iTTE2NTAuODY1LDM0NS40NjVoMTcuNjk5djExMS41MDdoLTE3LjY5OVYzNDUuNDY1eiIvPiYjeGE7ICAgICAgPHBhdGggZD0iTTE2ODcuODg1LDM2Mi4xMzJjMC0yLjg1MSwxLjA1Ny01LjMzMywzLjE3Mi03LjQ0OGMyLjExMy0yLjExMiw0Ljc5My0zLjE3Miw4LjAzOS0zLjE3MmMzLjI0NCwwLDUuOTc1LDEuMDEyLDguMTg4LDMuMDI0JiMxMDsmIzk7JiM5OyYjOTtjMi4yMTMsMi4wMTcsMy4zMTgsNC41NDksMy4zMTgsNy41OTZjMCwzLjA1LTEuMTA1LDUuNTgyLTMuMzE4LDcuNTk3Yy0yLjIxMywyLjAxNy00Ljk0LDMuMDIzLTguMTg4LDMuMDIzJiMxMDsmIzk7JiM5OyYjOTtzLTUuOTI2LTEuMDU2LTguMDM5LTMuMTcyQzE2ODguOTQxLDM2Ny40NjcsMTY4Ny44ODUsMzY0Ljk4NSwxNjg3Ljg4NSwzNjIuMTMyeiBNMTY5MC4zOTMsMzg2LjE3NGgxNy42OTl2NzAuNzk4aC0xNy42OTlWMzg2LjE3NCYjMTA7JiM5OyYjOTsmIzk7eiIvPiYjeGE7ICAgICAgPHBhdGggZD0iTTE3MjkuNjI1LDM4Ni4xNzRoMTYuODE0djExLjM1NmgwLjI5NWMxLjU3LTMuNTM5LDQuMzAxLTYuNjU5LDguMTg2LTkuMzY1YzMuODg1LTIuNzA0LDguNDgtNC4wNTcsMTMuNzkxLTQuMDU3JiMxMDsmIzk7JiM5OyYjOTtjNC42MjEsMCw4LjU3OCwwLjgxMiwxMS44NzMsMi40MzRjMy4yOTQsMS42MjMsNS45OTcsMy43NjIsOC4xMTMsNi40MTZjMi4xMTMsMi42NTUsMy42NjIsNS43MDQsNC42NDYsOS4xNDUmIzEwOyYjOTsmIzk7JiM5O2MwLjk4LDMuNDQzLDEuNDc3LDYuOTgzLDEuNDc3LDEwLjYydjQ0LjI0OWgtMTcuN3YtMzkuMjMyYzAtMi4wNjUtMC4xNDYtNC4yMjktMC40NC02LjQ5Yy0wLjI5NS0yLjI2MS0wLjkzOC00LjMwMS0xLjkxOC02LjEyMSYjMTA7JiM5OyYjOTsmIzk7Yy0wLjk4My0xLjgxOC0yLjMzNi0zLjMxOC00LjA1OC00LjQ5OWMtMS43MjItMS4xOC00LjAwNy0xLjc3LTYuODU2LTEuNzdjLTIuODU0LDAtNS4zMTIsMC41NjYtNy4zNzUsMS42OTUmIzEwOyYjOTsmIzk7JiM5O2MtMi4wNjQsMS4xMzEtMy43NjMsMi41ODEtNS4wODgsNC4zNTNjLTEuMzI4LDEuNzctMi4zMzksMy44MTItMy4wMjMsNi4xMmMtMC42ODgsMi4zMTItMS4wMzMsNC42NDYtMS4wMzMsNy4wMDZ2MzguOTM4aC0xNy42OTcmIzEwOyYjOTsmIzk7JiM5O3YtNzAuNzk4SDE3MjkuNjI1TDE3MjkuNjI1LDM4Ni4xNzR6Ii8+JiN4YTsgICAgICA8cGF0aCBkPSJNMTgxNS43NiwzNDUuNDY1aDE3LjY5OXY3MC41MDNoMC40NDNsMjYuODQ0LTI5Ljc5NGgyMi43MTRsLTMwLjY3OSwzMi4wMDdsMzIuNTk3LDM4Ljc5MWgtMjMuNDUybC0yOC4wMjEtMzYuMjg0aC0wLjQ0MyYjMTA7JiM5OyYjOTsmIzk7djM2LjI4NGgtMTcuNjk3VjM0NS40NjVIMTgxNS43NnoiLz4mI3hhOyAgICA8L2c+JiN4YTsgIDwvZz4mI3hhOzwvc3ZnPg==" vertex="1" parent="1">
          <mxGeometry x="420" y="350" width="106.75" height="55" as="geometry" />
        </mxCell>
        <mxCell id="cNHgtWn2ZiXuFl-ffkAe-25" value="" style="shape=stencil(fZbdcgIhDIWfZm8zQAg/17Z9j85U606tdqz9e/tmZ0c0uJ47xP0I5JwEBl59bp8/1kNwn6fj4W39M76ctgM/DCGM++36OJ50NPDjwKvN4bh+PR6+9i/z74/n6ctp9H74nlb4nbmSKZeJCu5vngmZ6jzzNAO7cX8FVKEsBuBKrgKg9oAE8gkCbLeUhEoEQKSUDZDLeWYRKIl8MEDRmHwfyBrBG6Amyu4+kDxxMoB3jhwgYu7TVAsVkFcWCs4CTBEoF4RctKeOxHIf8IXYpikHikAIf+MNUW94AGSSaoAoFIE3AlOyeWU+p2E5S9yfQZcQILVuQOwZdJNoS9Ls3wA5u2XZTIHECqeJ9kDpSaauRiNVcAY1QhdBzeLBli5WazpkSsBLV25uRaqWRyFawTQzRRIQYirJzq5atkBqLfouwqUxLBepthWb10vrWZY6UOAeyKCCtDV625mm9gmUC4Wc3VLJMMIE1BsA2FW9JraVlQB7n3c9oMKhCLEvIM1zBPZ25/umNQ1tVEC2G+fFCC8g398O2hNQuQlVu752DBfA+q0ptnqO5JFmeuIuo9DY7KjY71UxdJV4EntifPWorW++R/dC4t7V3DlIB5cHx2bc7eb3yvX//QNFp+bHDT/+Aw==);lineShape=1;" vertex="1" parent="1">
          <mxGeometry x="433.8679608424759" y="367.8753124585194" width="4.672539772115215" height="4.665236216357243" as="geometry" />
        </mxCell>
        <mxCell id="cNHgtWn2ZiXuFl-ffkAe-35" style="edgeStyle=orthogonalEdgeStyle;rounded=0;orthogonalLoop=1;jettySize=auto;html=1;" edge="1" parent="1" source="cNHgtWn2ZiXuFl-ffkAe-26" target="cNHgtWn2ZiXuFl-ffkAe-34">
          <mxGeometry relative="1" as="geometry" />
        </mxCell>
        <mxCell id="cNHgtWn2ZiXuFl-ffkAe-26" value="" style="sketch=0;outlineConnect=0;fontColor=#232F3E;gradientColor=none;fillColor=#2E27AD;strokeColor=none;dashed=0;verticalLabelPosition=bottom;verticalAlign=top;align=center;html=1;fontSize=12;fontStyle=0;aspect=fixed;pointerEvents=1;shape=mxgraph.aws4.rds_mysql_instance;" vertex="1" parent="1">
          <mxGeometry x="420" y="580" width="82.38" height="82.38" as="geometry" />
        </mxCell>
        <mxCell id="cNHgtWn2ZiXuFl-ffkAe-31" value="启动时&lt;br&gt;加载历史数据" style="endArrow=classic;html=1;rounded=0;" edge="1" parent="1">
          <mxGeometry width="50" height="50" relative="1" as="geometry">
            <mxPoint x="502" y="570" as="sourcePoint" />
            <mxPoint x="502.38" y="410" as="targetPoint" />
          </mxGeometry>
        </mxCell>
        <mxCell id="cNHgtWn2ZiXuFl-ffkAe-34" value="召回" style="rounded=0;whiteSpace=wrap;html=1;" vertex="1" parent="1">
          <mxGeometry x="680" y="591.19" width="120" height="60" as="geometry" />
        </mxCell>
        <mxCell id="cNHgtWn2ZiXuFl-ffkAe-36" value="" style="swimlane;startSize=0;fillColor=#d5e8d4;strokeColor=#82b366;fillStyle=hatch;" vertex="1" parent="1">
          <mxGeometry x="640" y="330" width="1140" height="610" as="geometry" />
        </mxCell>
      </root>
    </mxGraphModel>
  </diagram>
</mxfile>
